<svg fill="none" height="100" viewBox="0 0 1819 100" width="1819" xmlns="http://www.w3.org/2000/svg" xmlns:xlink="http://www.w3.org/1999/xlink"><clipPath id="a"><path d="m0 0h1819v100h-1819z"/></clipPath><mask id="b" fill="#fff"><path d="m1904.6-70.2171c-21.94-7.4233-45.37-11.2984-68.05-15.9704-24.36-5.0452-48.79-9.6485-73.43-13.0877-47.64-6.6298-96.47-8.8338-144-.2751-20.76 3.7372-41.53 9.8337-59.38 21.3639-19.3 12.4765-32.7 31.2267-40.76 52.5844-8.87 23.5738-11.32 48.7403-12.77 73.6577-.77 13.2897-1.34 26.5545-2.55 39.8505-1.1 12.2068-3.04 24.3888-4.46 36.5698-2.62 22.671-2.5 45.104 7.08 66.23 9.26 20.571 24.49 37.979 39.33 54.747 30.64 34.748 67.98 68.587 116.11 73.667 43.56 4.607 78.01-20.787 105.25-52.026 5.8-6.636 11.28-13.459 16.78-20.363 36.05-32.515 72.05-65.442 103.07-102.943 29.32-35.434 57.26-77.4039 67.72-122.8326 4.2-18.27608 5.01-38.4814-3.6-55.7475-9.22-18.4113-27.42-29.047-46.34-35.425zm25.38 16.6416c17.42 12.8144 24.82 32.7137 23.77 53.877607-.98 20.435593-8.26 40.062793-16.67 58.544693-9.82 21.5883-22.27 41.8762-36.27 61.0682-28.12 38.416-62.33 71.846-97.25 103.92-5.69 5.26-11.41 10.396-17.14 15.613-.68-.255-1.46-.112-2.04.617-1.09 1.382-2.21 2.801-3.34 4.22-1.05.978-2.14 1.911-3.14 2.852-.61.522-.75 1.245-.55 1.83-22.82 28.648-49.49 58.181-86.71 65.456-47.21 9.112-91.18-18.887-123.13-50.847-15.85-15.827-31.19-32.918-44.2-51.173-13.79-19.332-22.16-40.364-22.04-64.367.11-22.782 5.08-45.272 6.76-67.8925 1.79-24.4444 1.96-49.0939 6.16-73.27095 3.95-22.97565 11.94-46.16955 27.23-64.12325 14.75-17.3437 35.64-27.704 57.27-33.7756 43.38-12.2557 90.33-12.1487 134.86-7.9154 45.49 4.3081 90.27 13.6894 134.83 23.3385 21.1 4.5103 43.84 8.983 61.6 22.0277zm-159.24-11.7017c-43.66-1.6442-87.45-1.141-131.08 1.5721-17.58 1.0914-35.99 2.8925-51.32 12.3372-14 8.6103-23.56 22.4053-29.67 37.4012-13.27 32.5565-14.09 71.0746-10.2 105.5587 4 36.121 15.01 71.6 32.48 103.506 17.82 32.583 44.03 65.16 82.75 71.797 36.16 6.114 66.53-17.437 89.59-42.444 14.46-15.657 27.68-32.59 44.18-46.217 14.86-12.29 31.69-21.741 47.87-32.138 15.88-10.216 31.07-21.584 42.86-36.469 5.68-7.215 10.54-14.9403 14.86-23.0328 5.98-11.1802 11.61-22.5097 16.41-34.2686 7.81-19.0982 15.39-40.655 5.96-60.54782-.59-1.30709-1.31-2.58308-1.95-3.85278-5.11-9.3052-12.16-17.6205-20.45-24.2799-2.52-2.0662-5.19-3.9395-7.99-5.7008-36.05-22.4665-83.28-21.6579-124.3-23.2215zm155.49 75.3491c.07 1.7553.1 3.548.04 5.4154-.55 12.0448-5.41 23.4738-9.88 34.4857-2.4 5.9199-4.96 11.7465-7.72 17.5171-.68 1.4131-8.13 16.9569-8.6 16.7578-.08-.0062-.12-.0498-.24-.0996-8.31 15.5999-18.76 29.9367-32.81 41.7587-27.56 23.035-61.14 37.019-86.51 62.948-24.67 25.169-45.47 57.229-79.69 70.472-38.36 14.838-75.75-7.69-98.76-37.945-42.06-55.202-58.69-130.7107-48.98-198.8654 2.44-17.06829 6.98-34.4231 16.13-49.2264 9.83-15.8491 24.59-25.8664 42.73-29.927 17.88-3.9984 36.77-4.0132 54.98-4.8121 20.74-.8491 41.48-1.25 62.26-1.0782 20.06.1159 40.07.7172 60.1 1.7667 20.35 1.0744 40.99 2.0492 60.99 5.987 18.04 3.5832 35.99 10.4966 50.54 21.9108 7.15 5.5951 13.43 12.3045 18.13 20.0723 4.48 7.42543 6.86 14.6893 7.29 22.8622zm-51.2-29.2869c-5.94-2.1655-12.23-3.503-18.21-4.573-28.03-4.9202-56.71-1.2629-84.6 2.6184-14.56 2.0559-29.14 4.2736-43.81 5.5888-15.98 1.4585-31.75 1.2239-47.75.2797-26.83-1.5716-58.57-2.0968-78.18 19.71666-20.36 22.61034-19.22 59.44764-16.17 87.76314 3.03 28.5583 10.74 59.8363 27.23 83.8113 7.54 10.998 17.86 20.377 30.67 24.658 12.31 4.12 25.56 3.265 37.84-.39 28.9-8.606 49.18-31.223 71.16-50.453 14-12.314 29.33-21.759 46.03-29.959 15.3-7.533 30.98-14.631 44.77-24.7231 18.62-13.628 33.42-31.5381 46.46-50.4377 5.72-8.3106 11.01-17.4677 11.31-27.7819.28-8.40331-2.54-16.800007-7.82-23.39127-4.86-6.11193-11.61-10.00783-18.93-12.72703zm17.5 53.9655c-.3.6287-.62 1.2139-.92 1.8425-1.2 2.3905-3.06 4.4448-4.62 6.6859-3.29 4.7124-6.65 9.3377-10.17 13.8697-6.99 8.9456-14.51 17.4432-22.91 25.1005-22 20.0029-49.69 29.3929-74.99 44.1359-24.79 14.456-43 36.662-65.75 53.676-21.49 16.094-52.63 27.987-77.74 12.465-24.33-15.054-34.7-47.147-40.83-73.501-6.54-27.9732-9.74-60.6148-1.71-88.6079 4.27-14.9335 13.13-27.60169 27.23-34.69948 12.99-6.53122 27.68-8.17012 42.03-8.00372 15.22.1102 30.33 1.9633 45.58 1.6689 12.79-.2381 25.55-1.497 38.29-3.1232 29.95-3.7633 60-9.8796 90.3-8.4889 7.22.3104 14.36 1.0627 21.47 2.3005 11.48 2.0216 23.08 4.7839 31.44 13.5659 5.81 6.062087 9 14.36539 8.85 22.7376-.13 6.5421-2.75 12.5678-5.55 18.3758z" fill="#fff"/></mask><mask id="c" fill="#fff"><path d="m126.286-64.2303c-17.44-5.9012-36.0661-8.9817-54.0938-12.6957-19.3637-4.0107-38.7866-7.6701-58.3771-10.4041-37.8696-5.2703-76.6867-7.0223-114.4741-.2188-16.499 2.971-33.011 7.8174-47.2 16.9834-15.347 9.9182-25.994 24.8238-32.4 41.8021-7.057 18.7401-9.003 38.7463-10.157 58.5545-.611 10.5647-1.059 21.1095-2.026 31.6792-.869 9.7037-2.416 19.3877-3.543 29.0717-2.085 18.022-1.989 35.856 5.628 52.649 7.359 16.353 19.471 30.192 31.266 43.522 24.357 27.623 54.044 54.523 92.2982 58.561 34.6277 3.663 62.01495-16.525 83.6743-41.358 4.6078-5.275 8.968-10.699 13.3332-16.187 28.6599-25.849 57.28-52.024 81.9393-81.835 23.305-28.1686 45.517-61.5328 53.834-97.64643 3.34-14.52859 3.982-30.59087-2.865-44.31657-7.328-14.6362-21.792-23.0911-36.837-28.1613zm20.182 13.2293c13.846 10.1869 19.725 26.0059 18.896 42.83018-.786 16.24536-6.569 31.84802-13.253 46.54032-7.811 17.1617-17.71 33.2894-28.837 48.5463-22.354 30.5382-49.5484 57.1142-77.308 82.6112-4.5244 4.182-9.0736 8.265-13.6277 12.412-.5345-.203-1.1579-.089-1.6226.49-.8601 1.099-1.7549 2.227-2.6497 3.355-.8357.777-1.701 1.52-2.502 2.267-.4847.416-.5931.99-.4345 1.455-18.1379 22.774-39.3381 46.251-68.9272 52.035-37.5295 7.244-72.4863-15.015-97.8863-40.421-12.597-12.582-24.793-26.169-35.139-40.681-10.96-15.368-17.611-32.087-17.516-51.168.087-18.1107 4.037-35.9894 5.376-53.9716 1.416-19.4322 1.551-39.0274 4.892-58.24702 3.14-18.26458 9.495-36.70268 21.647-50.97498 11.726-13.7874 28.336-22.0234 45.526-26.8501 34.485-9.7424 71.8117-9.6578 107.20603-6.2923 36.16627 3.4248 71.76637 10.8825 107.18847 18.553 16.7755 3.5855 34.8475 7.1411 48.9715 17.511zm-126.5928-9.3023c-34.7102-1.3071-69.5181-.907-104.2011 1.2497-13.9771.8676-28.6121 2.2995-40.7981 9.8075-11.133 6.8449-18.73 17.8112-23.586 29.7322-10.546 25.88091-11.197 56.5011-8.111 83.9142 3.182 28.7146 11.934 56.9187 25.821 82.2817 14.169 25.903 35.0022 51.8 65.7865 57.076 28.7455 4.861 52.8831-13.862 71.22091-33.741 11.49519-12.447 21.99999-25.907 35.11919-36.741 11.8088-9.769 25.1925-17.282 38.0512-25.547 12.6213-8.1219 24.6982-17.159 34.0752-28.9915 4.514-5.7357 8.379-11.8769 11.813-18.3101 4.754-8.8877 9.225-17.8942 13.044-27.242 6.204-15.1821 12.233-32.318814 4.736-48.1327-.471-1.039-1.04-2.0534-1.546-3.0627-4.062-7.3973-9.673-14.0075-16.257-19.3014-2.01-1.6426-4.129-3.1318-6.351-4.5319-28.6607-17.8598-66.2046-17.217-98.8168-18.46zm123.6098 59.899009c.055 1.395425.076 2.820521.027 4.305011-.438 9.57498-4.301 18.66058-7.848 27.41458-1.911 4.706-3.947 9.3379-6.14 13.9252-.539 1.1233-6.463 13.4799-6.839 13.3216-.064-.0049-.094-.0395-.188-.0791-6.607 12.4012-14.916 23.7981-26.0821 33.1963-21.9063 18.3117-48.6022 29.4287-68.7752 50.0407-19.60939 20.008-36.14235 45.494-63.3434 56.022-30.5003 11.796-60.2246-6.114-78.5133-30.165-33.439-43.882-46.656-103.9085-38.936-158.08836 1.94-13.56847 5.548-27.36474 12.818-39.13264 7.819-12.5994 19.554-20.5626 33.97-23.7906 14.2182-3.1785 29.2301-3.1903 43.707-3.8254 16.4858-.675 32.9768-.9936 49.4978-.8571 15.9421.0921 31.8548.5701 47.7726 1.4045 16.1751.8541 32.5828 1.629 48.4873 4.7593 14.3409 2.8485 28.6093 8.3443 40.1793 17.4181 5.678 4.4479 10.674 9.7815 14.409 15.9565 3.561 5.9029 5.451 11.67734 5.797 18.174409zm-40.703-23.281709c-4.7213-1.7215-9.7194-2.7848-14.4749-3.6353-22.2829-3.9114-45.0856-1.004-67.2548 2.0815-11.57685 1.6343-23.16352 3.3973-34.8249 4.4428-12.7053 1.1595-25.2433.973-37.9648.2224-21.3212-1.2494-46.5555-1.6669-62.1446 15.67379-16.186 17.97421-15.28 47.25811-12.855 69.76761 2.41 22.7025 8.538 47.5672 21.643 66.6262 5.9981 8.743 14.197 16.199 24.387 19.602 9.7792 3.275 20.3127 2.596 30.0778-.31 22.9731-6.842 39.0957-24.821 56.56587-40.108 11.13083-9.789 23.31723-17.2972 36.59273-23.8157 12.1676-5.989 24.6323-11.6315 35.5961-19.654 14.8015-10.8336 26.5625-25.0713 36.9275-40.0956 4.548-6.6065 8.758-13.886 8.995-22.08536.218-6.68023-2.023-13.35521-6.217-18.59494-3.868-4.8588-9.229-7.9557-15.049-10.1174zm13.909 42.9c-.233.4998-.495.965-.727 1.4648-.953 1.9003-2.437 3.5334-3.672 5.3149-2.615 3.7462-5.289 7.4231-8.087 11.0258-5.5569 7.1114-11.5391 13.8665-18.2145 19.9537-17.4846 15.901-39.5024 23.3657-59.6123 35.0857-19.70429 11.4921-34.18435 29.1451-52.2644 42.6701-17.086 12.794-41.8435 22.248-61.8018 9.909-19.34-11.967-27.586-37.48-32.459-58.43-5.196-22.237-7.747-48.1856-1.36-70.4388 3.396-11.87142 10.44-21.94206 21.6429-27.5845 10.3275-5.192 22.0085-6.4948 33.4184-6.3626 12.0926.0876 24.112 1.5608 36.2291 1.3267 10.1727-.1893 20.31016-1.19 30.437544-2.4828 23.811956-2.9916 47.701856-7.8537 71.783856-6.7482 5.7397.2467 11.4202.8447 17.0714 1.8288 9.1299 1.6071 18.3448 3.803 24.9938 10.7842 4.615 4.8191 7.153 11.41985 7.034 18.07532-.105 5.20066-2.185 9.99088-4.413 14.60788z" fill="#fff"/></mask><g clip-path="url(#a)"><path d="m0 0h1819v100h-1819z" fill="#f7c440"/><g fill="#fff"><path d="m1904.6-70.2171c-21.94-7.4233-45.37-11.2984-68.05-15.9704-24.36-5.0452-48.79-9.6485-73.43-13.0877-47.64-6.6298-96.47-8.8338-144-.2751-20.76 3.7372-41.53 9.8337-59.38 21.3639-19.3 12.4765-32.7 31.2267-40.76 52.5844-8.87 23.5738-11.32 48.7403-12.77 73.6577-.77 13.2897-1.34 26.5545-2.55 39.8505-1.1 12.2068-3.04 24.3888-4.46 36.5698-2.62 22.671-2.5 45.104 7.08 66.23 9.26 20.571 24.49 37.979 39.33 54.747 30.64 34.748 67.98 68.587 116.11 73.667 43.56 4.607 78.01-20.787 105.25-52.026 5.8-6.636 11.28-13.459 16.78-20.363 36.05-32.515 72.05-65.442 103.07-102.943 29.32-35.434 57.26-77.4039 67.72-122.8326 4.2-18.27608 5.01-38.4814-3.6-55.7475-9.22-18.4113-27.42-29.047-46.34-35.425zm25.38 16.6416c17.42 12.8144 24.82 32.7137 23.77 53.877607-.98 20.435593-8.26 40.062793-16.67 58.544693-9.82 21.5883-22.27 41.8762-36.27 61.0682-28.12 38.416-62.33 71.846-97.25 103.92-5.69 5.26-11.41 10.396-17.14 15.613-.68-.255-1.46-.112-2.04.617-1.09 1.382-2.21 2.801-3.34 4.22-1.05.978-2.14 1.911-3.14 2.852-.61.522-.75 1.245-.55 1.83-22.82 28.648-49.49 58.181-86.71 65.456-47.21 9.112-91.18-18.887-123.13-50.847-15.85-15.827-31.19-32.918-44.2-51.173-13.79-19.332-22.16-40.364-22.04-64.367.11-22.782 5.08-45.272 6.76-67.8925 1.79-24.4444 1.96-49.0939 6.16-73.27095 3.95-22.97565 11.94-46.16955 27.23-64.12325 14.75-17.3437 35.64-27.704 57.27-33.7756 43.38-12.2557 90.33-12.1487 134.86-7.9154 45.49 4.3081 90.27 13.6894 134.83 23.3385 21.1 4.5103 43.84 8.983 61.6 22.0277zm-159.24-11.7017c-43.66-1.6442-87.45-1.141-131.08 1.5721-17.58 1.0914-35.99 2.8925-51.32 12.3372-14 8.6103-23.56 22.4053-29.67 37.4012-13.27 32.5565-14.09 71.0746-10.2 105.5587 4 36.121 15.01 71.6 32.48 103.506 17.82 32.583 44.03 65.16 82.75 71.797 36.16 6.114 66.53-17.437 89.59-42.444 14.46-15.657 27.68-32.59 44.18-46.217 14.86-12.29 31.69-21.741 47.87-32.138 15.88-10.216 31.07-21.584 42.86-36.469 5.68-7.215 10.54-14.9403 14.86-23.0328 5.98-11.1802 11.61-22.5097 16.41-34.2686 7.81-19.0982 15.39-40.655 5.96-60.54782-.59-1.30709-1.31-2.58308-1.95-3.85278-5.11-9.3052-12.16-17.6205-20.45-24.2799-2.52-2.0662-5.19-3.9395-7.99-5.7008-36.05-22.4665-83.28-21.6579-124.3-23.2215zm155.49 75.3491c.07 1.7553.1 3.548.04 5.4154-.55 12.0448-5.41 23.4738-9.88 34.4857-2.4 5.9199-4.96 11.7465-7.72 17.5171-.68 1.4131-8.13 16.9569-8.6 16.7578-.08-.0062-.12-.0498-.24-.0996-8.31 15.5999-18.76 29.9367-32.81 41.7587-27.56 23.035-61.14 37.019-86.51 62.948-24.67 25.169-45.47 57.229-79.69 70.472-38.36 14.838-75.75-7.69-98.76-37.945-42.06-55.202-58.69-130.7107-48.98-198.8654 2.44-17.06829 6.98-34.4231 16.13-49.2264 9.83-15.8491 24.59-25.8664 42.73-29.927 17.88-3.9984 36.77-4.0132 54.98-4.8121 20.74-.8491 41.48-1.25 62.26-1.0782 20.06.1159 40.07.7172 60.1 1.7667 20.35 1.0744 40.99 2.0492 60.99 5.987 18.04 3.5832 35.99 10.4966 50.54 21.9108 7.15 5.5951 13.43 12.3045 18.13 20.0723 4.48 7.42543 6.86 14.6893 7.29 22.8622zm-51.2-29.2869c-5.94-2.1655-12.23-3.503-18.21-4.573-28.03-4.9202-56.71-1.2629-84.6 2.6184-14.56 2.0559-29.14 4.2736-43.81 5.5888-15.98 1.4585-31.75 1.2239-47.75.2797-26.83-1.5716-58.57-2.0968-78.18 19.71666-20.36 22.61034-19.22 59.44764-16.17 87.76314 3.03 28.5583 10.74 59.8363 27.23 83.8113 7.54 10.998 17.86 20.377 30.67 24.658 12.31 4.12 25.56 3.265 37.84-.39 28.9-8.606 49.18-31.223 71.16-50.453 14-12.314 29.33-21.759 46.03-29.959 15.3-7.533 30.98-14.631 44.77-24.7231 18.62-13.628 33.42-31.5381 46.46-50.4377 5.72-8.3106 11.01-17.4677 11.31-27.7819.28-8.40331-2.54-16.800007-7.82-23.39127-4.86-6.11193-11.61-10.00783-18.93-12.72703zm17.5 53.9655c-.3.6287-.62 1.2139-.92 1.8425-1.2 2.3905-3.06 4.4448-4.62 6.6859-3.29 4.7124-6.65 9.3377-10.17 13.8697-6.99 8.9456-14.51 17.4432-22.91 25.1005-22 20.0029-49.69 29.3929-74.99 44.1359-24.79 14.456-43 36.662-65.75 53.676-21.49 16.094-52.63 27.987-77.74 12.465-24.33-15.054-34.7-47.147-40.83-73.501-6.54-27.9732-9.74-60.6148-1.71-88.6079 4.27-14.9335 13.13-27.60169 27.23-34.69948 12.99-6.53122 27.68-8.17012 42.03-8.00372 15.22.1102 30.33 1.9633 45.58 1.6689 12.79-.2381 25.55-1.497 38.29-3.1232 29.95-3.7633 60-9.8796 90.3-8.4889 7.22.3104 14.36 1.0627 21.47 2.3005 11.48 2.0216 23.08 4.7839 31.44 13.5659 5.81 6.062087 9 14.36539 8.85 22.7376-.13 6.5421-2.75 12.5678-5.55 18.3758z" mask="url(#b)" stroke="#fff" stroke-width="2"/><path d="m126.286-64.2303c-17.44-5.9012-36.0661-8.9817-54.0938-12.6957-19.3637-4.0107-38.7866-7.6701-58.3771-10.4041-37.8696-5.2703-76.6867-7.0223-114.4741-.2188-16.499 2.971-33.011 7.8174-47.2 16.9834-15.347 9.9182-25.994 24.8238-32.4 41.8021-7.057 18.7401-9.003 38.7463-10.157 58.5545-.611 10.5647-1.059 21.1095-2.026 31.6792-.869 9.7037-2.416 19.3877-3.543 29.0717-2.085 18.022-1.989 35.856 5.628 52.649 7.359 16.353 19.471 30.192 31.266 43.522 24.357 27.623 54.044 54.523 92.2982 58.561 34.6277 3.663 62.01495-16.525 83.6743-41.358 4.6078-5.275 8.968-10.699 13.3332-16.187 28.6599-25.849 57.28-52.024 81.9393-81.835 23.305-28.1686 45.517-61.5328 53.834-97.64643 3.34-14.52859 3.982-30.59087-2.865-44.31657-7.328-14.6362-21.792-23.0911-36.837-28.1613zm20.182 13.2293c13.846 10.1869 19.725 26.0059 18.896 42.83018-.786 16.24536-6.569 31.84802-13.253 46.54032-7.811 17.1617-17.71 33.2894-28.837 48.5463-22.354 30.5382-49.5484 57.1142-77.308 82.6112-4.5244 4.182-9.0736 8.265-13.6277 12.412-.5345-.203-1.1579-.089-1.6226.49-.8601 1.099-1.7549 2.227-2.6497 3.355-.8357.777-1.701 1.52-2.502 2.267-.4847.416-.5931.99-.4345 1.455-18.1379 22.774-39.3381 46.251-68.9272 52.035-37.5295 7.244-72.4863-15.015-97.8863-40.421-12.597-12.582-24.793-26.169-35.139-40.681-10.96-15.368-17.611-32.087-17.516-51.168.087-18.1107 4.037-35.9894 5.376-53.9716 1.416-19.4322 1.551-39.0274 4.892-58.24702 3.14-18.26458 9.495-36.70268 21.647-50.97498 11.726-13.7874 28.336-22.0234 45.526-26.8501 34.485-9.7424 71.8117-9.6578 107.20603-6.2923 36.16627 3.4248 71.76637 10.8825 107.18847 18.553 16.7755 3.5855 34.8475 7.1411 48.9715 17.511zm-126.5928-9.3023c-34.7102-1.3071-69.5181-.907-104.2011 1.2497-13.9771.8676-28.6121 2.2995-40.7981 9.8075-11.133 6.8449-18.73 17.8112-23.586 29.7322-10.546 25.88091-11.197 56.5011-8.111 83.9142 3.182 28.7146 11.934 56.9187 25.821 82.2817 14.169 25.903 35.0022 51.8 65.7865 57.076 28.7455 4.861 52.8831-13.862 71.22091-33.741 11.49519-12.447 21.99999-25.907 35.11919-36.741 11.8088-9.769 25.1925-17.282 38.0512-25.547 12.6213-8.1219 24.6982-17.159 34.0752-28.9915 4.514-5.7357 8.379-11.8769 11.813-18.3101 4.754-8.8877 9.225-17.8942 13.044-27.242 6.204-15.1821 12.233-32.318814 4.736-48.1327-.471-1.039-1.04-2.0534-1.546-3.0627-4.062-7.3973-9.673-14.0075-16.257-19.3014-2.01-1.6426-4.129-3.1318-6.351-4.5319-28.6607-17.8598-66.2046-17.217-98.8168-18.46zm123.6098 59.899009c.055 1.395425.076 2.820521.027 4.305011-.438 9.57498-4.301 18.66058-7.848 27.41458-1.911 4.706-3.947 9.3379-6.14 13.9252-.539 1.1233-6.463 13.4799-6.839 13.3216-.064-.0049-.094-.0395-.188-.0791-6.607 12.4012-14.916 23.7981-26.0821 33.1963-21.9063 18.3117-48.6022 29.4287-68.7752 50.0407-19.60939 20.008-36.14235 45.494-63.3434 56.022-30.5003 11.796-60.2246-6.114-78.5133-30.165-33.439-43.882-46.656-103.9085-38.936-158.08836 1.94-13.56847 5.548-27.36474 12.818-39.13264 7.819-12.5994 19.554-20.5626 33.97-23.7906 14.2182-3.1785 29.2301-3.1903 43.707-3.8254 16.4858-.675 32.9768-.9936 49.4978-.8571 15.9421.0921 31.8548.5701 47.7726 1.4045 16.1751.8541 32.5828 1.629 48.4873 4.7593 14.3409 2.8485 28.6093 8.3443 40.1793 17.4181 5.678 4.4479 10.674 9.7815 14.409 15.9565 3.561 5.9029 5.451 11.67734 5.797 18.174409zm-40.703-23.281709c-4.7213-1.7215-9.7194-2.7848-14.4749-3.6353-22.2829-3.9114-45.0856-1.004-67.2548 2.0815-11.57685 1.6343-23.16352 3.3973-34.8249 4.4428-12.7053 1.1595-25.2433.973-37.9648.2224-21.3212-1.2494-46.5555-1.6669-62.1446 15.67379-16.186 17.97421-15.28 47.25811-12.855 69.76761 2.41 22.7025 8.538 47.5672 21.643 66.6262 5.9981 8.743 14.197 16.199 24.387 19.602 9.7792 3.275 20.3127 2.596 30.0778-.31 22.9731-6.842 39.0957-24.821 56.56587-40.108 11.13083-9.789 23.31723-17.2972 36.59273-23.8157 12.1676-5.989 24.6323-11.6315 35.5961-19.654 14.8015-10.8336 26.5625-25.0713 36.9275-40.0956 4.548-6.6065 8.758-13.886 8.995-22.08536.218-6.68023-2.023-13.35521-6.217-18.59494-3.868-4.8588-9.229-7.9557-15.049-10.1174zm13.909 42.9c-.233.4998-.495.965-.727 1.4648-.953 1.9003-2.437 3.5334-3.672 5.3149-2.615 3.7462-5.289 7.4231-8.087 11.0258-5.5569 7.1114-11.5391 13.8665-18.2145 19.9537-17.4846 15.901-39.5024 23.3657-59.6123 35.0857-19.70429 11.4921-34.18435 29.1451-52.2644 42.6701-17.086 12.794-41.8435 22.248-61.8018 9.909-19.34-11.967-27.586-37.48-32.459-58.43-5.196-22.237-7.747-48.1856-1.36-70.4388 3.396-11.87142 10.44-21.94206 21.6429-27.5845 10.3275-5.192 22.0085-6.4948 33.4184-6.3626 12.0926.0876 24.112 1.5608 36.2291 1.3267 10.1727-.1893 20.31016-1.19 30.437544-2.4828 23.811956-2.9916 47.701856-7.8537 71.783856-6.7482 5.7397.2467 11.4202.8447 17.0714 1.8288 9.1299 1.6071 18.3448 3.803 24.9938 10.7842 4.615 4.8191 7.153 11.41985 7.034 18.07532-.105 5.20066-2.185 9.99088-4.413 14.60788z" mask="url(#c)" stroke="#fff" stroke-width="2"/><path d="m1780.61-182.882c76.47-3.458 141.44 45.652 175.12 111.5537 17.11 33.4065 29.07 72.81622 26.15 110.68-3.04 39.5739-26.81 69.9833-54.1 96.9243-28.6 28.129-59.89 60.625-100.48 69.96-20.66 4.763-42.16 3.235-62.95-.097-24.96-3.965-56.97-10.878-79.01-24.668-32.13-20.2-50.67-55.815-57.33-92.2296-7.76-42.0787-3.92-87.82638 4.72-129.5354 7.98-38.4449 23.96-76.652 52.95-104.115 25.65-24.184 59.91-36.939 94.93-38.473z" fill-opacity=".2"/><path d="m27.7194-153.793c60.7912-2.749 112.4376 36.29 139.2176 88.6794 13.598 26.5566 23.11 57.88546 20.781 87.9854-2.412 31.4594-21.306 55.6338-43.006 77.05-22.732 22.3612-47.6082 48.1942-79.8765 55.6152-16.421 3.787-33.5117 2.571-50.0365-.077-19.84495-3.152-45.2916-8.648-62.8145-19.61-25.5384-16.058-40.2778-44.3703-45.5755-73.3182-6.1689-33.4506-3.1161-69.81789 3.7587-102.9746 6.3407-30.5619 19.0469-60.9352 42.089-82.7662 20.3873-19.226 47.62394-29.366 75.4627-30.584z" fill-opacity=".2"/><path d="m398.297 16.8446-109.361 18.4452c-6.036 1.0254-10.103 6.7425-9.091 12.7807l18.445 109.3605c1.025 6.036 6.742 10.103 12.78 9.092l109.361-18.446c6.036-1.025 10.103-6.742 9.092-12.78l-18.445-109.3608c-1.026-6.0358-6.743-10.1027-12.781-9.0916zm-108.623 22.8197 109.361-18.4452c3.624-.6112 7.057 1.8311 7.668 5.4549l1.107 6.5616-122.484 20.6587-1.107-6.5616c-.611-3.624 1.831-7.0571 5.455-7.6684zm130.019 104.0387-109.36 18.445c-3.624.611-7.058-1.831-7.669-5.455l-16.6-98.4244 122.484-20.6587 16.6 98.4251c.611 3.624-1.831 7.057-5.455 7.668z" fill-opacity=".5"/><path d="m383.012 32.9186c1.208-.2037 2.022-1.3481 1.819-2.556-.204-1.2079-1.348-2.022-2.556-1.8182-1.208.2037-2.022 1.3481-1.819 2.556.204 1.2079 1.349 2.022 2.556 1.8182z" fill-opacity=".5"/><path d="m391.761 31.4431c1.208-.2037 2.022-1.3481 1.819-2.556-.204-1.2079-1.348-2.022-2.556-1.8182-1.208.2037-2.022 1.3481-1.819 2.556.204 1.2079 1.349 2.022 2.556 1.8182z" fill-opacity=".5"/><path d="m400.51 29.9676c1.208-.2037 2.022-1.3481 1.818-2.556s-1.348-2.022-2.556-1.8183c-1.208.2038-2.022 1.3481-1.818 2.5561.203 1.2079 1.348 2.0219 2.556 1.8182z" fill-opacity=".5"/><path d="m301.058 80.4832 43.744-7.3782c2.416-.4075 4.044-2.6963 3.637-5.1123l-1.476-8.7488c-.407-2.416-2.696-4.0442-5.112-3.6367l-43.745 7.3782c-2.416.4075-4.044 2.6963-3.636 5.1123l1.475 8.7488c.408 2.4159 2.697 4.0441 5.113 3.6367zm-2.214-13.1233 43.745-7.3781 1.475 8.7487-43.744 7.3781z" fill-opacity=".5"/><path d="m398.718 46.0162-43.744 7.3781c-2.416.4075-4.044 2.6963-3.637 5.1123l1.476 8.7488c.407 2.416 2.696 4.0442 5.112 3.6367l43.745-7.3781c2.416-.4075 4.044-2.6964 3.636-5.1124l-1.475-8.7488c-.408-2.4159-2.697-4.0441-5.113-3.6366zm-41.531 20.5014-1.475-8.7488 43.744-7.3781 1.476 8.7487z" fill-opacity=".5"/><path d="m402.407 67.8882-100.612 16.9697c-2.416.4075-4.044 2.6963-3.637 5.1124l7.378 43.7437c.408 2.416 2.697 4.045 5.113 3.637l100.611-16.97c2.416-.407 4.045-2.696 3.637-5.112l-7.378-43.7443c-.407-2.4157-2.696-4.0439-5.112-3.6365zm-92.496 65.0888-7.378-43.7448 100.611-16.9697 7.379 43.7445z" fill-opacity=".5"/><path d="m310.57 96.8744 6.562-1.1067c1.208-.2037 2.022-1.3483 1.818-2.556-.204-1.208-1.348-2.0219-2.556-1.8182l-6.562 1.1067c-1.208.2037-2.022 1.3482-1.818 2.556.204 1.2077 1.348 2.0219 2.556 1.8182z" fill-opacity=".5"/><path d="m325.88 94.292 26.247-4.4269c1.208-.2037 2.022-1.3483 1.818-2.556-.204-1.208-1.348-2.022-2.556-1.8182l-26.246 4.4268c-1.208.2038-2.022 1.3483-1.819 2.556.204 1.2078 1.348 2.022 2.556 1.8183z" fill-opacity=".5"/><path d="m368.176 91.6567-56.868 9.5913c-1.208.204-2.022 1.348-1.818 2.556.203 1.208 1.348 2.022 2.556 1.818l56.867-9.5911c1.208-.2037 2.022-1.348 1.819-2.556-.204-1.208-1.348-2.022-2.556-1.8182z" fill-opacity=".5"/><path d="m289.864 50.22c.998.7098 2.382.4762 3.092-.5216l.533-.7489.749.5328c.998.6841 2.36.4422 3.062-.5438.701-.9861.483-2.3522-.491-3.0706l-.749-.5327.533-.7488c.684-.998.442-2.3603-.544-3.0616-.986-.7014-2.352-.4831-3.07.4905l-.533.7489-.749-.5327c-.998-.6842-2.36-.4423-3.062.5438-.701.9861-.483 2.3521.491 3.0705l.749.5327-.533.7489c-.71.998-.476 2.3826.522 3.0926z" fill-opacity=".5"/><path d="m1828.3 18.8446-109.36 18.4452c-6.04 1.0254-10.11 6.7425-9.1 12.7807l18.45 109.3605c1.03 6.036 6.74 10.103 12.78 9.092l109.36-18.446c6.04-1.025 10.1-6.742 9.09-12.78l-18.44-109.3608c-1.03-6.0358-6.75-10.1027-12.78-9.0916zm-108.63 22.8197 109.36-18.4452c3.63-.6112 7.06 1.8311 7.67 5.4549l1.11 6.5616-122.48 20.6587-1.11-6.5616c-.61-3.624 1.83-7.0571 5.45-7.6684zm130.02 104.0387-109.36 18.445c-3.62.611-7.05-1.831-7.67-5.455l-16.6-98.4244 122.49-20.6587 16.6 98.4251c.61 3.624-1.83 7.057-5.46 7.668z" fill-opacity=".5"/><path d="m1813.01 34.9186c1.21-.2037 2.02-1.3481 1.82-2.556s-1.35-2.022-2.56-1.8182c-1.2.2037-2.02 1.3481-1.81 2.556.2 1.2079 1.34 2.022 2.55 1.8182z" fill-opacity=".5"/><path d="m1821.76 33.4431c1.21-.2037 2.02-1.3481 1.82-2.556s-1.35-2.022-2.56-1.8182c-1.2.2037-2.02 1.3481-1.81 2.556.2 1.2079 1.34 2.022 2.55 1.8182z" fill-opacity=".5"/><path d="m1731.06 82.4832 43.74-7.3782c2.42-.4075 4.05-2.6963 3.64-5.1123l-1.48-8.7488c-.4-2.416-2.69-4.0442-5.11-3.6367l-43.74 7.3782c-2.42.4075-4.05 2.6963-3.64 5.1123l1.48 8.7488c.4 2.4159 2.69 4.0441 5.11 3.6367zm-2.22-13.1233 43.75-7.3781 1.47 8.7487-43.74 7.3781z" fill-opacity=".5"/><path d="m1828.72 48.0162-43.75 7.3781c-2.41.4075-4.04 2.6963-3.63 5.1123l1.47 8.7488c.41 2.416 2.7 4.0442 5.12 3.6367l43.74-7.3781c2.42-.4075 4.04-2.6964 3.64-5.1124l-1.48-8.7488c-.41-2.4159-2.7-4.0441-5.11-3.6366zm-41.53 20.5014-1.48-8.7488 43.75-7.3781 1.47 8.7487z" fill-opacity=".5"/><path d="m1832.41 69.8882-100.62 16.9697c-2.41.4075-4.04 2.6963-3.63 5.1124l7.38 43.7437c.4 2.416 2.69 4.045 5.11 3.637l100.61-16.97c2.42-.407 4.04-2.696 3.64-5.112l-7.38-43.7443c-.41-2.4157-2.7-4.0439-5.11-3.6365zm-92.5 65.0888-7.38-43.7448 100.61-16.9697 7.38 43.7445z" fill-opacity=".5"/><path d="m1740.57 98.8744 6.56-1.1067c1.21-.2037 2.02-1.3483 1.82-2.556-.2-1.208-1.35-2.0219-2.56-1.8182l-6.56 1.1067c-1.21.2037-2.02 1.3482-1.82 2.556.21 1.2077 1.35 2.0219 2.56 1.8182z" fill-opacity=".5"/><path d="m1755.88 96.292 26.25-4.4269c1.2-.2037 2.02-1.3483 1.82-2.556-.21-1.208-1.35-2.022-2.56-1.8182l-26.25 4.4268c-1.21.2038-2.02 1.3483-1.82 2.556.21 1.2078 1.35 2.022 2.56 1.8183z" fill-opacity=".5"/><path d="m1798.18 93.6567-56.87 9.5913c-1.21.204-2.02 1.348-1.82 2.556s1.35 2.022 2.56 1.818l56.86-9.5911c1.21-.2037 2.03-1.348 1.82-2.556-.2-1.208-1.35-2.022-2.55-1.8182z" fill-opacity=".5"/><path d="m1719.86 52.22c1 .7098 2.39.4762 3.1-.5216l.53-.7489.75.5328c1 .6841 2.36.4422 3.06-.5438.7-.9861.48-2.3522-.49-3.0706l-.75-.5327.53-.7488c.69-.998.45-2.3603-.54-3.0616-.99-.7014-2.35-.4831-3.07.4905l-.53.7489-.75-.5327c-1-.6842-2.36-.4423-3.06.5438-.71.9861-.49 2.3521.49 3.0705l.74.5327-.53.7489c-.71.998-.47 2.3826.52 3.0926z" fill-opacity=".5"/><path d="m1303.51 35.6138-109.94-49.6489c-6.07-2.7335-13.21-.0366-15.96 6.02904l-49.65 109.93906c-2.73 6.071-.03 13.21 6.03 15.958l109.94 49.649c6.07 2.734 13.21.037 15.96-6.029l49.65-109.9383c2.73-6.0722.04-13.211-6.03-15.9589zm-111.92-45.25124 109.94 49.64894c3.64 1.6452 5.26 5.9323 3.61 9.5753l-2.98 6.5963-123.13-55.606851 2.98-6.596309c1.65-3.64318 5.93-5.26264 9.58-3.61738zm54.33 172.77944-109.94-49.648c-3.64-1.646-5.26-5.933-3.62-9.576l44.69-98.94438 123.13 55.60678-44.69 98.9446c-1.64 3.643-5.93 5.263-9.57 3.617z" fill-opacity=".2"/><path d="m1279.96 40.8622c1.22.5483 2.65.0085 3.19-1.2058.55-1.2143.01-2.6432-1.2-3.1916-1.22-.5484-2.64-.0086-3.19 1.2057s-.01 2.6433 1.2 3.1917z" fill-opacity=".2"/><path d="m1288.76 44.8342c1.21.5484 2.64.0086 3.19-1.2057s.01-2.6432-1.21-3.1916c-1.21-.5484-2.64-.0086-3.19 1.2057s-.01 2.6433 1.21 3.1916z" fill-opacity=".2"/><path d="m1297.55 48.8059c1.22.5484 2.65.0086 3.19-1.2057.55-1.2143.01-2.6433-1.2-3.1916-1.22-.5484-2.64-.0086-3.19 1.2057s-.01 2.6432 1.2 3.1916z" fill-opacity=".2"/><path d="m1177.12 34.1247 43.97 19.8596c2.43 1.0969 5.29.0172 6.39-2.4116l3.97-8.795c1.1-2.4288.02-5.2868-2.41-6.3836l-43.98-19.8596c-2.43-1.0969-5.29-.0172-6.38 2.4116l-3.97 8.795c-1.1 2.4289-.02 5.2869 2.41 6.3836zm5.96-13.1926 43.97 19.8596-3.97 8.795-43.98-19.8596z" fill-opacity=".2"/><path d="m1286.2 62.212-43.97-19.8596c-2.43-1.0969-5.29-.0172-6.38 2.4116l-3.98 8.795c-1.09 2.4288-.01 5.2868 2.42 6.3836l43.97 19.8596c2.43 1.0969 5.29.0172 6.38-2.4116l3.98-8.795c1.09-2.4289.01-5.2869-2.42-6.3836zm-49.93-6.667 3.97-8.795 43.98 19.8596-3.97 8.795z" fill-opacity=".2"/><path d="m1276.27 84.1994-101.14-45.6771c-2.43-1.0969-5.29-.0172-6.38 2.4116l-19.86 43.9753c-1.1 2.4287-.02 5.2867 2.41 6.3836l101.14 45.6772c2.43 1.097 5.29.017 6.39-2.412l19.86-43.9754c1.09-2.4285.01-5.2865-2.42-6.3832zm-122.98 2.6958 19.86-43.9755 101.14 45.6769-19.86 43.9754z" fill-opacity=".2"/><path d="m1175.77 54.6939 6.6 2.979c1.21.5484 2.64.0084 3.19-1.2058.55-1.2144.01-2.6433-1.21-3.1916l-6.59-2.9789c-1.22-.5485-2.65-.0084-3.2 1.2057-.54 1.2141 0 2.6433 1.21 3.1916z" fill-opacity=".2"/><path d="m1191.16 61.6444 26.39 11.9158c1.21.5484 2.64.0084 3.19-1.2058.55-1.2144.01-2.6432-1.21-3.1916l-26.38-11.9157c-1.22-.5485-2.65-.0084-3.19 1.2057-.55 1.214-.01 2.6432 1.2 3.1916z" fill-opacity=".2"/><path d="m1230.95 84.9083-57.17-25.8175c-1.21-.5484-2.64-.0086-3.19 1.2058s-.01 2.6433 1.21 3.1916l57.17 25.8175c1.21.5484 2.64.0086 3.19-1.2058.55-1.2143.01-2.6432-1.21-3.1916z" fill-opacity=".2"/><path d="m1185.36.00965099c.47 1.24601901 1.86 1.87461901 3.11 1.40405901l.93-.35326.36.93508c.48 1.22289 1.86 1.83044 3.09 1.36516 1.23-.46518 1.86-1.83114 1.42-3.070132l-.35-.935083.93-.353259c1.22-.486356 1.83-1.863276 1.37-3.094336-.47-1.23131-1.84-1.86246-3.07-1.41875l-.94.35326-.35-.93508c-.49-1.22289-1.87-1.83044-3.1-1.36516-1.23.46518-1.86 1.83113-1.42 3.07013l.36.93508-.94.35326c-1.24.47083-1.87 1.86275-1.4 3.10903099z" fill-opacity=".2"/><path d="m597.524-6.14263-69.177-15.71697c-3.82-.863-7.617 1.5284-8.49 5.3461l-15.717 69.1775c-.863 3.8196 1.529 7.6171 5.347 8.4893l69.177 15.7169c3.82.8631 7.617-1.5284 8.489-5.346l15.717-69.1773c.863-3.81982-1.528-7.61738-5.346-8.48953zm-69.806-12.94977 69.178 15.71696c2.292.52079 3.728 2.801398 3.207 5.09366l-.943 4.15064-77.478-17.60296.943-4.1507c.52-2.2924 2.801-3.7284 5.093-3.2076zm51.574 93.1955-69.177-15.717c-2.292-.5208-3.728-2.8014-3.207-5.0936l14.145-62.25965 77.479 17.60299-14.146 62.25966c-.521 2.2924-2.801 3.7284-5.094 3.2076z" fill-opacity=".5"/><path d="m590.104.901098c.764.173602 1.524-.305085 1.698-1.069167s-.305-1.524221-1.069-1.697821-1.524.30509-1.698 1.069167c-.174.7640826.305 1.524223 1.069 1.697821z" fill-opacity=".5"/><path d="m595.638 2.15839c.764.1736 1.524-.30508 1.698-1.06917.173-.764079-.305-1.524219-1.069-1.697817-.764-.173597-1.525.305084-1.698 1.069166-.174.764081.305 1.524221 1.069 1.697821z" fill-opacity=".5"/><path d="m524.513 7.82339 27.671 6.28681c1.528.3472 3.049-.6102 3.396-2.1385l1.257-5.53411c.347-1.52828-.61-3.04862-2.138-3.39584l-27.671-6.28679c-1.529-.34723-3.049.61018-3.396 2.13846l-1.257 5.53413c-.347 1.52831.61 3.04865 2.138 3.39584zm1.886-8.301285 27.671 6.286795-1.257 5.5341-27.671-6.28676z" fill-opacity=".5"/><path d="m590.671 11.2148-27.671-6.28676c-1.528-.34722-3.049.61018-3.396 2.13846l-1.257 5.5341c-.348 1.5283.61 3.0486 2.138 3.3959l27.671 6.2868c1.528.3472 3.049-.6102 3.396-2.1385l1.257-5.5341c.347-1.5283-.61-3.0487-2.138-3.3959zm-29.557 2.0145 1.257-5.53411 27.671 6.28681-1.257 5.5341z" fill-opacity=".5"/><path d="m587.527 25.0502-63.643-14.4596c-1.528-.3473-3.049.6101-3.396 2.1384l-6.287 27.6709c-.347 1.5282.611 3.0486 2.139 3.3958l63.643 14.4596c1.528.3472 3.049-.6102 3.396-2.1385l6.287-27.671c.347-1.5281-.611-3.0484-2.139-3.3956zm-70.558 15.9783 6.286-27.671 63.643 14.4596-6.286 27.671z" fill-opacity=".5"/><path d="m577.971 60.7081-19.369-4.4007c-2.293-.5208-4.573.9153-5.094 3.2076-.521 2.2922.915 4.5728 3.208 5.0936l19.369 4.4008c2.293.5208 4.573-.9154 5.094-3.2076.521-2.2923-.915-4.5729-3.208-5.0937zm-1.257 5.5343-19.37-4.4007c-.764-.1737-1.243-.9339-1.069-1.6979.174-.7641.934-1.2427 1.698-1.0691l19.37 4.4007c.764.1736 1.242.9339 1.069 1.6978-.174.764-.934 1.2428-1.698 1.0692z" fill-opacity=".5"/><path d="m526.149 19.8349 4.15.943c.765.1736 1.525-.3052 1.698-1.0692.174-.7641-.305-1.5242-1.069-1.6978l-4.151-.943c-.764-.1736-1.524.3052-1.697 1.0692-.174.7639.305 1.5242 1.069 1.6978z" fill-opacity=".5"/><path d="m535.833 22.0351 16.603 3.7721c.764.1736 1.524-.3052 1.698-1.0692.173-.7642-.305-1.5242-1.069-1.6978l-16.603-3.7721c-.764-.1736-1.524.3052-1.698 1.0692-.174.7639.305 1.5242 1.069 1.6978z" fill-opacity=".5"/><path d="m561.492 30.7744-35.972-8.1728c-.764-.1736-1.524.305-1.698 1.0692-.173.7641.305 1.5242 1.069 1.6978l35.973 8.1728c.764.1736 1.524-.305 1.698-1.0692.173-.7641-.305-1.5242-1.07-1.6978z" fill-opacity=".5"/><path d="m899.438-6.42009-94.035 15.79863c-5.189.87826-8.689 5.79146-7.823 10.98336l15.799 94.0341c.878 5.19 5.791 8.69 10.983 7.824l94.034-15.799c5.19-.878 8.69-5.791 7.824-10.9834l-15.799-94.0341c-.878-5.18984-5.791-8.68954-10.983-7.82359zm-93.403 19.56009 94.035-15.79868c3.116-.5235 6.066 1.57822 6.59 4.69413l.948 5.64206-105.319 17.69449-.948-5.6421c-.523-3.1161 1.578-6.0664 4.694-6.5899zm111.729 89.52-94.034 15.798c-3.116.524-6.067-1.578-6.59-4.694l-14.219-84.6308 105.319-17.6945 14.218 84.6308c.524 3.1162-1.578 6.0665-4.694 6.5905z" fill-opacity=".1"/><path d="m886.288 7.39136c1.039-.1745 1.739-1.15794 1.565-2.19657-.175-1.03863-1.158-1.73915-2.197-1.56465s-1.739 1.15794-1.565 2.19657c.175 1.03864 1.158 1.73915 2.197 1.56465z" fill-opacity=".1"/><path d="m893.811 6.12752c1.039-.1745 1.739-1.15794 1.565-2.19658-.175-1.03863-1.158-1.73915-2.197-1.56465s-1.739 1.15794-1.565 2.19658c.175 1.03863 1.158 1.73915 2.197 1.56465z" fill-opacity=".1"/><path d="m901.333 4.86372c1.039-.1745 1.739-1.15794 1.565-2.19657-.175-1.03863-1.158-1.739151-2.197-1.56465-1.038.1745-1.739 1.15794-1.564 2.19657.174 1.03863 1.158 1.73915 2.196 1.56465z" fill-opacity=".1"/><path d="m815.8 48.2406 37.614-6.3195c2.078-.349 3.479-2.3159 3.13-4.3934l-1.264-7.5226c-.349-2.0775-2.316-3.4785-4.394-3.1295l-37.613 6.3195c-2.078.349-3.479 2.3159-3.13 4.3934l1.264 7.5226c.349 2.0774 2.316 3.4785 4.393 3.1295zm-1.895-11.2841 37.613-6.3195 1.264 7.5227-37.614 6.3195z" fill-opacity=".1"/><path d="m899.784 18.6607-37.614 6.3194c-2.077.3491-3.478 2.316-3.129 4.3934l1.264 7.5227c.349 2.0774 2.316 3.4785 4.393 3.1295l37.614-6.3195c2.077-.349 3.478-2.316 3.129-4.3934l-1.263-7.5226c-.35-2.0774-2.317-3.4785-4.394-3.1295zm-35.718 17.6035-1.264-7.5226 37.614-6.3195 1.264 7.5227z" fill-opacity=".1"/><path d="m902.943 37.4675-86.511 14.5348c-2.078.349-3.479 2.3159-3.13 4.3934l6.32 37.6135c.349 2.0774 2.316 3.4785 4.393 3.1295l86.512-14.5348c2.077-.349 3.478-2.3159 3.129-4.3933l-6.319-37.6138c-.349-2.0772-2.316-3.4783-4.394-3.1293zm-79.56 55.9097-6.319-37.6137 86.511-14.5348 6.32 37.6138z" fill-opacity=".1"/><path d="m909.278 86.6811-26.329 4.4236c-3.116.5235-5.218 3.4741-4.694 6.59.523 3.1163 3.474 5.2173 6.59 4.6943l26.33-4.4238c3.115-.5235 5.217-3.4741 4.694-6.59-.524-3.1158-3.474-5.2176-6.591-4.6941zm1.264 7.5229-26.329 4.4236c-1.039.1745-2.022-.5261-2.197-1.5646-.174-1.0388.527-2.0221 1.565-2.1966l26.33-4.4236c1.038-.1746 2.022.5261 2.196 1.5646.175 1.0385-.526 2.0221-1.565 2.1966z" fill-opacity=".1"/><path d="m823.97 62.3384 5.642-.9479c1.039-.1745 1.739-1.1581 1.565-2.1966-.175-1.0387-1.158-1.7391-2.197-1.5647l-5.642.948c-1.039.1745-1.739 1.158-1.565 2.1965.175 1.0385 1.159 1.7392 2.197 1.5647z" fill-opacity=".1"/><path d="m837.134 60.1265 22.569-3.7917c1.038-.1745 1.739-1.1581 1.564-2.1966-.174-1.0387-1.158-1.7391-2.196-1.5646l-22.569 3.7916c-1.038.1746-1.739 1.1581-1.564 2.1966.174 1.0385 1.158 1.7392 2.196 1.5647z" fill-opacity=".1"/><path d="m873.5 57.8839-48.898 8.2153c-1.039.1745-1.739 1.1579-1.565 2.1966.175 1.0387 1.158 1.7391 2.197 1.5646l48.898-8.2153c1.038-.1745 1.739-1.1578 1.564-2.1965-.174-1.0387-1.158-1.7392-2.196-1.5647z" fill-opacity=".1"/><path d="m806.193 22.2154c.858.6108 2.048.4108 2.659-.4468l.459-.6435.643.4584c.858.5888 2.029.3815 2.633-.4658.603-.8475.416-2.0221-.42-2.6402l-.644-.4584.458-.6436c.589-.8576.382-2.0291-.465-2.6325-.848-.6036-2.022-.4167-2.641.42l-.458.6436-.644-.4584c-.857-.5888-2.029-.3816-2.632.4658-.604.8474-.417 2.0221.42 2.6402l.644.4584-.459.6436c-.611.8577-.411 2.0483.447 2.6592z" fill-opacity=".1"/><path d="m1417.06 40.4704-61.87 34.7031c-3.42 1.9198-4.63 6.2399-2.72 9.6577l34.7 61.8728c1.92 3.413 6.24 4.628 9.66 2.717l61.87-34.704c3.42-1.919 4.63-6.239 2.72-9.657l-34.7-61.8727c-1.92-3.4131-6.24-4.6285-9.66-2.7169zm-60.48 37.1781 61.87-34.7032c2.05-1.1499 4.64-.42 5.79 1.6302l2.08 3.7123-69.29 38.8676-2.08-3.7124c-1.15-2.0503-.42-4.6445 1.63-5.7945zm100.74 34.5945-61.88 34.703c-2.05 1.15-4.64.42-5.79-1.63l-31.23-55.6858 69.29-38.8676 31.24 55.6854c1.15 2.05.42 4.645-1.63 5.795z" fill-opacity=".5"/><path d="m1411.32 53.4473c.69-.3833.93-1.248.55-1.9314-.39-.6834-1.25-.9267-1.93-.5434-.69.3833-.93 1.248-.55 1.9314.39.6834 1.25.9267 1.93.5434z" fill-opacity=".5"/><path d="m1416.27 50.6711c.69-.3834.93-1.2481.55-1.9315-.39-.6834-1.25-.9267-1.93-.5434-.69.3833-.93 1.2481-.55 1.9315.39.6834 1.25.9267 1.93.5434z" fill-opacity=".5"/><path d="m1421.22 47.895c.69-.3833.93-1.2481.55-1.9315-.39-.6834-1.25-.9266-1.93-.5433-.69.3833-.93 1.248-.55 1.9314.39.6834 1.25.9267 1.93.5434z" fill-opacity=".5"/><path d="m1372.24 99.7716 24.75-13.8813c1.36-.7666 1.85-2.4962 1.08-3.8631l-2.77-4.9497c-.77-1.3669-2.5-1.8535-3.87-1.0868l-24.75 13.8813c-1.36.7666-1.85 2.4962-1.08 3.8631l2.77 4.9497c.77 1.3672 2.5 1.8532 3.87 1.0868zm-4.17-7.4247 24.75-13.8813 2.78 4.9498-24.75 13.8813z" fill-opacity=".5"/><path d="m1423.61 57.9453-24.75 13.8813c-1.37.7667-1.85 2.4962-1.09 3.8631l2.78 4.9497c.76 1.367 2.49 1.8535 3.86 1.0868l24.75-13.8812c1.37-.7667 1.85-2.4963 1.09-3.8632l-2.78-4.9497c-.77-1.3668-2.5-1.8534-3.86-1.0868zm-20.59 21.306-2.77-4.9498 24.75-13.8813 2.77 4.9498z" fill-opacity=".5"/><path d="m1430.55 70.3199-56.92 31.9271c-1.37.767-1.86 2.496-1.09 3.863l13.88 24.749c.77 1.367 2.5 1.853 3.86 1.087l56.93-31.927c1.36-.7668 1.85-2.4964 1.08-3.8633l-13.88-24.7491c-.77-1.3667-2.49-1.8533-3.86-1.0867zm-41.66 59.1511-13.88-24.749 56.93-31.9272 13.88 24.7491z" fill-opacity=".5"/><path d="m1390.16 102.731 14.85-8.3289c.69-.3833.93-1.2481.55-1.9315-.39-.6834-1.25-.9267-1.93-.5433l-14.85 8.3287c-.69.383-.93 1.248-.55 1.931.39.684 1.25.927 1.93.544z" fill-opacity=".5"/><path d="m1415.06 92.0182-32.17 18.0458c-.68.383-.93 1.248-.54 1.931.38.684 1.24.927 1.93.544l32.17-18.046c.69-.3834.93-1.248.55-1.9315-.39-.6834-1.25-.9267-1.94-.5433z" fill-opacity=".5"/><path d="m1358.97 83.9637c.75.212 1.53-.2273 1.75-.9814l.16-.5659.56.1592c.75.1967 1.52-.2429 1.73-.988s-.22-1.5206-.96-1.7431l-.57-.1592.16-.5659c.2-.7485-.24-1.5167-.98-1.7262-.75-.2096-1.52.2166-1.75.9579l-.16.5659-.56-.1592c-.75-.1967-1.52.2429-1.73.988s.22 1.5206.96 1.7431l.57.1592-.16.5659c-.22.7542.22 1.5375.98 1.7497z" fill-opacity=".5"/></g></g></svg>