<svg width="365" height="250" viewBox="0 0 365 250" fill="none" xmlns="http://www.w3.org/2000/svg">
<g clip-path="url(#clip0_833_83)">
<rect width="365" height="250" fill="#A3488A"/>
<path d="M133.184 6.00233L49.3804 26.0246C44.7556 27.1354 41.9025 31.7798 43.0022 36.4073L63.0246 120.211C64.1353 124.836 68.7797 127.689 73.4072 126.589L157.211 106.567C161.836 105.456 164.689 100.811 163.589 96.184L143.567 12.3805C142.456 7.75567 137.811 4.90255 133.184 6.00233V6.00233ZM50.1813 29.3768L133.985 9.3545C136.762 8.69104 139.551 10.4045 140.215 13.1814L141.416 18.2096L47.5558 40.6346L46.3545 35.6064C45.691 32.8293 47.4042 30.0403 50.1813 29.3768V29.3768ZM156.41 103.214L72.6063 123.237C69.8294 123.9 67.0402 122.187 66.3767 119.41L48.3567 43.9866L142.217 21.5616L160.237 96.9849C160.9 99.762 159.187 102.551 156.41 103.214Z" fill="white" fill-opacity="0.12"/>
<path d="M122.178 19.2621C123.104 19.041 123.675 18.1113 123.454 17.1857C123.233 16.2601 122.303 15.689 121.377 15.9101C120.452 16.1313 119.881 17.0609 120.102 17.9866C120.323 18.9122 121.253 19.4833 122.178 19.2621Z" fill="white" fill-opacity="0.12"/>
<path d="M128.882 17.6606C129.808 17.4394 130.379 16.5098 130.158 15.5841C129.937 14.6585 129.007 14.0874 128.081 14.3086C127.156 14.5297 126.585 15.4594 126.806 16.385C127.027 17.3106 127.957 17.8817 128.882 17.6606Z" fill="white" fill-opacity="0.12"/>
<path d="M135.586 16.0588C136.512 15.8376 137.083 14.908 136.862 13.9823C136.641 13.0567 135.711 12.4856 134.786 12.7067C133.86 12.9279 133.289 13.8576 133.51 14.7832C133.731 15.7088 134.661 16.2799 135.586 16.0588Z" fill="white" fill-opacity="0.12"/>
<path d="M61.1415 60.4212L94.663 52.4123C96.5144 51.9699 97.6566 50.1106 97.2143 48.2592L95.6125 41.5549C95.1702 39.7035 93.3108 38.5613 91.4594 39.0036L57.9379 47.0126C56.0865 47.4549 54.9443 49.3143 55.3866 51.1657L56.9884 57.8699C57.4309 59.7213 59.2903 60.8635 61.1415 60.4212V60.4212ZM58.7388 50.3648L92.2603 42.3558L93.8621 49.0601L60.3406 57.069L58.7388 50.3648Z" fill="white" fill-opacity="0.12"/>
<path d="M135.038 28.592L101.516 36.6009C99.6649 37.0433 98.5226 38.9027 98.965 40.7541L100.567 47.4583C101.009 49.3097 102.868 50.4519 104.72 50.0096L138.241 42.0007C140.093 41.5583 141.235 39.6989 140.793 37.8475L139.191 31.1433C138.748 29.292 136.889 28.1497 135.038 28.592V28.592ZM103.919 46.6574L102.317 39.9532L135.839 31.9442L137.44 38.6484L103.919 46.6574Z" fill="white" fill-opacity="0.12"/>
<path d="M139.042 45.353L61.9428 63.7736C60.0914 64.2159 58.9491 66.0753 59.3915 67.9267L67.4004 101.448C67.8427 103.299 69.7021 104.442 71.5535 103.999L148.653 85.5788C150.504 85.1364 151.646 83.2771 151.204 81.4257L143.195 47.9042C142.753 46.0529 140.893 44.9107 139.042 45.353V45.353ZM70.7526 100.647L62.7436 67.1256L139.843 48.7051L147.852 82.2266L70.7526 100.647Z" fill="white" fill-opacity="0.12"/>
<path d="M147.778 89.3311L124.313 94.9373C121.536 95.6008 119.823 98.39 120.486 101.167C121.149 103.944 123.939 105.657 126.716 104.994L150.181 99.3875C152.958 98.724 154.671 95.9349 154.008 93.1579C153.344 90.3811 150.555 88.6676 147.778 89.3311ZM149.38 96.0355L125.915 101.642C124.989 101.863 124.059 101.292 123.838 100.366C123.617 99.4405 124.188 98.5109 125.114 98.2897L148.579 92.6835C149.505 92.4623 150.434 93.0336 150.655 93.9591C150.876 94.8846 150.305 95.8144 149.38 96.0355Z" fill="white" fill-opacity="0.12"/>
<path d="M69.3736 72.6286L74.4018 71.4272C75.3275 71.2061 75.8985 70.2763 75.6774 69.3508C75.4562 68.4251 74.5265 67.8541 73.601 68.0752L68.5727 69.2766C67.647 69.4977 67.076 70.4275 67.2972 71.353C67.5183 72.2785 68.4481 72.8497 69.3736 72.6286Z" fill="white" fill-opacity="0.12"/>
<path d="M81.1063 69.8254L101.219 65.02C102.145 64.7988 102.716 63.8691 102.495 62.9436C102.274 62.0179 101.344 61.4468 100.418 61.668L80.3054 66.4733C79.3797 66.6945 78.8087 67.6243 79.0298 68.5498C79.2508 69.4753 80.1806 70.0465 81.1063 69.8254Z" fill="white" fill-opacity="0.12"/>
<path d="M113.752 65.5688L70.1743 75.9804C69.2486 76.2016 68.6776 77.1312 68.8987 78.0569C69.1199 78.9826 70.0497 79.5536 70.9752 79.3324L114.553 68.9208C115.479 68.6997 116.05 67.7701 115.829 66.8444C115.608 65.9187 114.678 65.3476 113.752 65.5688Z" fill="white" fill-opacity="0.12"/>
<path d="M50.8812 37.5491C51.692 38.047 52.753 37.7935 53.2512 36.9829L53.6249 36.3745L54.2332 36.7482C55.0426 37.2263 56.086 36.9675 56.5779 36.1665C57.07 35.3654 56.8293 34.3179 56.037 33.8121L55.4286 33.4383L55.8023 32.83C56.2804 32.0206 56.0216 30.9773 55.2206 30.4854C54.4195 29.9932 53.372 30.234 52.8662 31.0263L52.4924 31.6346L51.8841 31.2609C51.0747 30.7828 50.0314 31.0416 49.5395 31.8427C49.0473 32.6438 49.2881 33.6912 50.0804 34.1971L50.6887 34.5708L50.315 35.1791C49.8169 35.99 50.0704 37.051 50.8812 37.5491V37.5491Z" fill="white" fill-opacity="0.12"/>
<circle cx="196" cy="77" r="39" fill="white"/>
<rect x="194" y="99" width="3" height="42" fill="white"/>
<path d="M181.961 64.0025H178.241L188.384 92.6763L194.063 76.4484L189.66 64.0025H185.735V61.2703H203.119V64.0025H199.048L209.191 92.6763L212.838 82.2565C217.621 68.9066 208.917 64.7481 208.917 61.7688C208.917 58.7894 211.333 56.3743 214.312 56.3743C214.473 56.3743 214.629 56.3831 214.783 56.3974C209.735 51.632 202.928 48.7097 195.438 48.7097C185.651 48.7097 177.031 53.6983 171.977 61.2703H181.961V64.0025H181.961Z" fill="#009CB6"/>
<path d="M167.251 76.8971C167.251 87.6887 173.317 97.0623 182.224 101.799L169.503 65.8411C168.054 69.2358 167.251 72.9726 167.251 76.8971Z" fill="#009CB6"/>
<path d="M219.97 63.0071C220.373 65.3811 220.251 68.0494 219.632 70.728H219.744L219.318 71.9458C219.066 72.8252 218.748 73.7248 218.386 74.6087L208.688 101.78C217.576 97.0381 223.626 87.6747 223.626 76.8968C223.626 71.8464 222.296 67.1069 219.97 63.0071Z" fill="#009CB6"/>
<path d="M186.745 103.716C189.484 104.603 192.405 105.084 195.439 105.084C198.333 105.084 201.124 104.647 203.752 103.837L195.507 80.53L186.745 103.716Z" fill="#009CB6"/>
<path d="M219.26 53.0759C212.897 46.7131 204.437 43.209 195.438 43.209C186.44 43.209 177.98 46.7131 171.618 53.0759C165.255 59.4387 161.751 67.8984 161.751 76.8969C161.751 85.8953 165.255 94.355 171.618 100.718C177.98 107.081 186.44 110.585 195.439 110.585C204.437 110.585 212.897 107.081 219.26 100.718C225.622 94.355 229.127 85.8951 229.127 76.8969C229.126 67.8984 225.622 59.4387 219.26 53.0759ZM195.438 108.208C178.173 108.208 164.127 94.162 164.127 76.8969C164.127 59.6318 178.173 45.5854 195.438 45.5854C212.704 45.5854 226.75 59.6318 226.75 76.8969C226.75 94.162 212.704 108.208 195.438 108.208Z" fill="#009CB6"/>
<mask id="path-20-inside-1_833_83" fill="white">
<path d="M407.671 85.1673C415.246 73.8069 421.028 61.0558 427.148 48.8549C433.738 35.7539 440.087 22.543 445.806 9.03453C456.85 -17.0811 465.556 -44.5508 467.935 -72.9247C468.974 -85.3138 468.671 -98.0725 464.829 -109.996C460.67 -122.893 452.036 -133.381 441.104 -141.228C429.034 -149.881 415.076 -155.114 401.109 -159.743C393.658 -162.209 386.191 -164.553 378.805 -167.275C372.021 -169.76 365.38 -172.727 358.66 -175.393C346.15 -180.346 333.357 -183.7 319.865 -181.467C306.739 -179.334 294.5 -173.314 282.688 -167.424C258.226 -155.278 233.258 -139.176 223.023 -112.548C213.753 -88.4459 222.957 -64.9527 236.588 -44.6709C239.483 -40.3577 242.531 -36.1932 245.625 -32.0129C258.64 -6.52154 271.897 19.004 288.518 42.3903C304.223 64.4909 323.86 86.8064 348.133 99.6959C357.899 104.877 369.282 108.42 380.428 106.149C392.319 103.709 401.152 94.9713 407.671 85.1673ZM394.321 97.0847C384.366 105.048 371.906 106.223 360.014 102.4C348.527 98.7189 338.461 91.5814 329.219 83.9732C318.425 75.0841 308.772 64.8973 299.979 53.9982C282.393 32.1244 268.576 7.54292 255.64 -17.2361C253.513 -21.2797 251.461 -25.3222 249.365 -29.3804C249.613 -29.7244 249.651 -30.1928 249.325 -30.6368C248.703 -31.4638 248.067 -32.3214 247.43 -33.1789C247.034 -33.9266 246.668 -34.689 246.287 -35.4062C246.082 -35.8332 245.692 -36.021 245.328 -35.9967C232.495 -53.3608 219.747 -73.0534 221.284 -95.359C223.298 -123.633 245.952 -144.402 269.027 -157.72C280.457 -164.328 292.531 -170.457 304.912 -175.082C318.024 -179.984 331.278 -181.539 344.928 -177.809C357.884 -174.27 369.933 -168.009 382.557 -163.598C396.205 -158.854 410.216 -154.996 423.343 -148.914C435.823 -143.159 447.812 -135.068 455.703 -123.624C463.328 -112.577 466.04 -99.0985 466.198 -85.858C466.558 -59.2855 459.333 -32.5634 450.128 -7.85524C440.733 17.3945 428.558 41.4645 416.264 65.3662C410.476 76.695 404.46 88.9581 394.321 97.0847ZM425.283 8.18798C432.881 -16.4251 439.276 -41.4359 444.388 -66.6944C446.449 -76.8732 448.233 -87.6314 445.193 -97.802C442.427 -107.091 436.03 -114.638 428.422 -120.404C411.907 -132.926 390.098 -139.27 369.869 -142.321C348.689 -145.553 326.805 -144.697 305.971 -139.618C284.697 -134.44 262.147 -124.487 252.459 -103.448C243.46 -83.7895 252.238 -62.9054 262.959 -45.9537C269.668 -35.3304 277.294 -25.2218 282.536 -13.7447C287.268 -3.41062 290.081 7.61865 293.533 18.4162C296.929 29.0161 301.084 39.4014 307.76 48.3902C311.003 52.7243 314.66 56.6716 318.609 60.3665C324.063 65.4777 329.657 70.4095 335.62 74.9388C345.304 82.297 356.423 89.9054 369.19 87.5703C370.024 87.4325 370.86 87.2191 371.68 87.0508C377.759 85.5606 383.571 82.8104 388.627 79.11C390.189 77.9855 391.663 76.7536 393.092 75.4302C411.387 58.3279 418.133 31.3106 425.283 8.18798ZM358.65 85.2362C357.639 85.0081 356.615 84.7494 355.56 84.4298C348.786 82.2777 343.019 77.7667 337.429 73.546C334.425 71.2734 331.497 68.9264 328.632 66.4745C327.931 65.8731 320.217 59.2579 320.402 59.0188C320.418 58.9737 320.449 58.959 320.495 58.8993C312.88 51.7864 306.311 43.6465 301.722 33.8442C292.809 14.6373 289.97 -6.61964 279.077 -25.0265C268.508 -42.9137 253.425 -59.6486 251.104 -81.1543C248.509 -105.267 267.043 -123.122 287.783 -131.606C325.635 -147.136 371.171 -145.083 408.5 -129.153C417.847 -125.159 427.037 -119.927 434.071 -112.461C441.596 -104.441 445.048 -94.5062 444.593 -83.5601C444.141 -72.7652 441.268 -62.0095 438.944 -51.5173C436.263 -39.5784 433.326 -27.7042 430.058 -15.8959C426.932 -4.49377 423.535 6.81321 419.882 18.0555C416.166 29.4784 412.461 41.0829 407.166 51.8751C402.373 61.6011 395.697 70.7672 386.977 77.3132C382.701 80.527 377.921 83.0821 372.781 84.5723C367.869 85.9906 363.37 86.2355 358.65 85.2362ZM383.139 60.5485C385.279 57.4968 387 54.1206 388.522 50.8774C395.601 35.6662 397.895 18.7738 399.94 2.30109C400.991 -6.30548 401.952 -14.9438 403.442 -23.4979C405.05 -32.8216 407.59 -41.7672 410.569 -50.7359C415.557 -65.7692 420.699 -83.7652 411.27 -98.2602C401.501 -113.305 380.35 -118.277 363.76 -120.86C347.035 -123.491 328.048 -123.874 311.88 -118.145C304.466 -115.526 297.551 -111.084 293.157 -104.438C288.934 -98.0616 287.399 -90.3857 287.606 -82.8329C288.098 -65.0634 297.882 -50.0634 305.48 -34.6147C310.355 -24.7623 313.395 -14.5918 315.516 -3.83092C317.47 6.03463 319.12 16.0465 322.762 25.4401C327.682 38.1223 335.623 49.2799 344.396 59.5887C348.256 64.1142 352.662 68.5276 358.49 70.271C363.233 71.7094 368.445 71.3852 373.004 69.3863C377.226 67.5484 380.474 64.3028 383.139 60.5485ZM349.739 62.2774C349.426 62.0151 349.143 61.7382 348.829 61.4759C347.651 60.4281 346.766 59.0521 345.727 57.825C343.545 55.2329 341.425 52.6115 339.381 49.9157C335.354 44.5704 331.663 38.9886 328.584 33.0384C320.549 17.4615 319.428 0.25674 314.893 -16.3982C310.442 -32.7188 300.577 -46.4796 294.358 -62.027C288.473 -76.7218 286.453 -96.2711 299.122 -108.2C311.407 -119.756 331.265 -120.766 347.208 -120.236C364.134 -119.689 383.212 -116.536 397.927 -107.69C405.779 -102.979 411.641 -96 413.532 -86.8919C415.269 -78.4974 413.96 -69.8799 411.675 -61.732C409.292 -53.0865 405.929 -44.7594 403.771 -36.0346C401.954 -28.7112 400.725 -21.2573 399.708 -13.7547C397.28 3.87685 396.178 21.9232 390.763 38.9617C389.485 43.0258 387.966 46.9802 386.177 50.8394C383.273 57.071 379.931 63.2501 373.654 66.6736C369.316 69.0543 364.101 69.6053 359.356 68.2426C355.651 67.1689 352.619 64.7597 349.739 62.2774Z"/>
</mask>
<path d="M407.671 85.1673C415.246 73.8069 421.028 61.0558 427.148 48.8549C433.738 35.7539 440.087 22.543 445.806 9.03453C456.85 -17.0811 465.556 -44.5508 467.935 -72.9247C468.974 -85.3138 468.671 -98.0725 464.829 -109.996C460.67 -122.893 452.036 -133.381 441.104 -141.228C429.034 -149.881 415.076 -155.114 401.109 -159.743C393.658 -162.209 386.191 -164.553 378.805 -167.275C372.021 -169.76 365.38 -172.727 358.66 -175.393C346.15 -180.346 333.357 -183.7 319.865 -181.467C306.739 -179.334 294.5 -173.314 282.688 -167.424C258.226 -155.278 233.258 -139.176 223.023 -112.548C213.753 -88.4459 222.957 -64.9527 236.588 -44.6709C239.483 -40.3577 242.531 -36.1932 245.625 -32.0129C258.64 -6.52154 271.897 19.004 288.518 42.3903C304.223 64.4909 323.86 86.8064 348.133 99.6959C357.899 104.877 369.282 108.42 380.428 106.149C392.319 103.709 401.152 94.9713 407.671 85.1673ZM394.321 97.0847C384.366 105.048 371.906 106.223 360.014 102.4C348.527 98.7189 338.461 91.5814 329.219 83.9732C318.425 75.0841 308.772 64.8973 299.979 53.9982C282.393 32.1244 268.576 7.54292 255.64 -17.2361C253.513 -21.2797 251.461 -25.3222 249.365 -29.3804C249.613 -29.7244 249.651 -30.1928 249.325 -30.6368C248.703 -31.4638 248.067 -32.3214 247.43 -33.1789C247.034 -33.9266 246.668 -34.689 246.287 -35.4062C246.082 -35.8332 245.692 -36.021 245.328 -35.9967C232.495 -53.3608 219.747 -73.0534 221.284 -95.359C223.298 -123.633 245.952 -144.402 269.027 -157.72C280.457 -164.328 292.531 -170.457 304.912 -175.082C318.024 -179.984 331.278 -181.539 344.928 -177.809C357.884 -174.27 369.933 -168.009 382.557 -163.598C396.205 -158.854 410.216 -154.996 423.343 -148.914C435.823 -143.159 447.812 -135.068 455.703 -123.624C463.328 -112.577 466.04 -99.0985 466.198 -85.858C466.558 -59.2855 459.333 -32.5634 450.128 -7.85524C440.733 17.3945 428.558 41.4645 416.264 65.3662C410.476 76.695 404.46 88.9581 394.321 97.0847ZM425.283 8.18798C432.881 -16.4251 439.276 -41.4359 444.388 -66.6944C446.449 -76.8732 448.233 -87.6314 445.193 -97.802C442.427 -107.091 436.03 -114.638 428.422 -120.404C411.907 -132.926 390.098 -139.27 369.869 -142.321C348.689 -145.553 326.805 -144.697 305.971 -139.618C284.697 -134.44 262.147 -124.487 252.459 -103.448C243.46 -83.7895 252.238 -62.9054 262.959 -45.9537C269.668 -35.3304 277.294 -25.2218 282.536 -13.7447C287.268 -3.41062 290.081 7.61865 293.533 18.4162C296.929 29.0161 301.084 39.4014 307.76 48.3902C311.003 52.7243 314.66 56.6716 318.609 60.3665C324.063 65.4777 329.657 70.4095 335.62 74.9388C345.304 82.297 356.423 89.9054 369.19 87.5703C370.024 87.4325 370.86 87.2191 371.68 87.0508C377.759 85.5606 383.571 82.8104 388.627 79.11C390.189 77.9855 391.663 76.7536 393.092 75.4302C411.387 58.3279 418.133 31.3106 425.283 8.18798ZM358.65 85.2362C357.639 85.0081 356.615 84.7494 355.56 84.4298C348.786 82.2777 343.019 77.7667 337.429 73.546C334.425 71.2734 331.497 68.9264 328.632 66.4745C327.931 65.8731 320.217 59.2579 320.402 59.0188C320.418 58.9737 320.449 58.959 320.495 58.8993C312.88 51.7864 306.311 43.6465 301.722 33.8442C292.809 14.6373 289.97 -6.61964 279.077 -25.0265C268.508 -42.9137 253.425 -59.6486 251.104 -81.1543C248.509 -105.267 267.043 -123.122 287.783 -131.606C325.635 -147.136 371.171 -145.083 408.5 -129.153C417.847 -125.159 427.037 -119.927 434.071 -112.461C441.596 -104.441 445.048 -94.5062 444.593 -83.5601C444.141 -72.7652 441.268 -62.0095 438.944 -51.5173C436.263 -39.5784 433.326 -27.7042 430.058 -15.8959C426.932 -4.49377 423.535 6.81321 419.882 18.0555C416.166 29.4784 412.461 41.0829 407.166 51.8751C402.373 61.6011 395.697 70.7672 386.977 77.3132C382.701 80.527 377.921 83.0821 372.781 84.5723C367.869 85.9906 363.37 86.2355 358.65 85.2362ZM383.139 60.5485C385.279 57.4968 387 54.1206 388.522 50.8774C395.601 35.6662 397.895 18.7738 399.94 2.30109C400.991 -6.30548 401.952 -14.9438 403.442 -23.4979C405.05 -32.8216 407.59 -41.7672 410.569 -50.7359C415.557 -65.7692 420.699 -83.7652 411.27 -98.2602C401.501 -113.305 380.35 -118.277 363.76 -120.86C347.035 -123.491 328.048 -123.874 311.88 -118.145C304.466 -115.526 297.551 -111.084 293.157 -104.438C288.934 -98.0616 287.399 -90.3857 287.606 -82.8329C288.098 -65.0634 297.882 -50.0634 305.48 -34.6147C310.355 -24.7623 313.395 -14.5918 315.516 -3.83092C317.47 6.03463 319.12 16.0465 322.762 25.4401C327.682 38.1223 335.623 49.2799 344.396 59.5887C348.256 64.1142 352.662 68.5276 358.49 70.271C363.233 71.7094 368.445 71.3852 373.004 69.3863C377.226 67.5484 380.474 64.3028 383.139 60.5485ZM349.739 62.2774C349.426 62.0151 349.143 61.7382 348.829 61.4759C347.651 60.4281 346.766 59.0521 345.727 57.825C343.545 55.2329 341.425 52.6115 339.381 49.9157C335.354 44.5704 331.663 38.9886 328.584 33.0384C320.549 17.4615 319.428 0.25674 314.893 -16.3982C310.442 -32.7188 300.577 -46.4796 294.358 -62.027C288.473 -76.7218 286.453 -96.2711 299.122 -108.2C311.407 -119.756 331.265 -120.766 347.208 -120.236C364.134 -119.689 383.212 -116.536 397.927 -107.69C405.779 -102.979 411.641 -96 413.532 -86.8919C415.269 -78.4974 413.96 -69.8799 411.675 -61.732C409.292 -53.0865 405.929 -44.7594 403.771 -36.0346C401.954 -28.7112 400.725 -21.2573 399.708 -13.7547C397.28 3.87685 396.178 21.9232 390.763 38.9617C389.485 43.0258 387.966 46.9802 386.177 50.8394C383.273 57.071 379.931 63.2501 373.654 66.6736C369.316 69.0543 364.101 69.6053 359.356 68.2426C355.651 67.1689 352.619 64.7597 349.739 62.2774Z" fill="white" stroke="white" stroke-width="2" mask="url(#path-20-inside-1_833_83)"/>
<mask id="path-21-inside-2_833_83" fill="white">
<path d="M-49.0767 245.611C-46.3998 259 -41.4718 272.105 -37.1724 285.06C-32.5682 298.984 -27.7164 312.815 -22.2082 326.41C-11.5509 352.686 1.71733 378.266 20.0983 400.012C28.1243 409.507 37.3597 418.315 48.5079 424.029C60.5682 430.207 74.0893 431.519 87.3688 429.337C102.021 426.921 115.592 420.752 128.741 414.148C135.753 410.623 142.692 407.001 149.839 403.703C156.393 400.663 163.186 398.066 169.823 395.198C182.171 389.855 193.589 383.18 201.55 372.062C209.324 361.272 213.721 348.361 217.908 335.843C226.618 309.957 232.887 280.917 221.295 254.85C210.807 231.253 187.687 221.149 163.707 216.447C158.61 215.443 153.51 214.654 148.366 213.886C121.138 205.064 93.715 196.388 65.425 191.605C38.6925 187.083 9.02808 185.188 -17.2498 193.238C-27.819 196.48 -38.373 202.023 -44.6493 211.511C-51.332 221.644 -51.3991 234.068 -49.0767 245.611ZM-48.0636 227.744C-46.6553 215.074 -38.6756 205.433 -27.5627 199.727C-16.838 194.207 -4.67281 192.136 7.24179 190.981C21.16 189.634 35.1886 190.012 49.1133 191.501C77.0151 194.533 104.167 202.145 130.836 210.519C135.199 211.874 139.508 213.282 143.86 214.669C143.928 215.087 144.233 215.445 144.777 215.529C145.801 215.674 146.858 215.831 147.914 215.987C148.723 216.235 149.521 216.516 150.298 216.753C150.744 216.91 151.153 216.767 151.393 216.493C172.745 219.697 195.685 224.607 210.371 241.467C228.939 262.884 227.606 293.588 220.707 319.322C217.297 332.077 213.093 344.948 207.609 356.974C201.803 369.711 193.532 380.183 181.242 387.197C169.578 393.857 156.631 397.949 144.585 403.757C131.58 410.053 118.945 417.232 105.362 422.213C92.468 426.969 78.2697 429.724 64.5973 427.212C51.3942 424.793 39.9459 417.18 30.4718 407.929C11.4278 389.394 -2.35868 365.389 -13.3215 341.409C-24.5324 316.912 -32.9432 291.283 -41.1514 265.689C-45.0691 253.585 -49.4866 240.66 -48.0636 227.744ZM-7.09736 312.497C4.93371 335.274 18.0974 357.481 32.3431 378.956C38.083 387.611 44.4292 396.479 53.7699 401.522C62.2941 406.134 72.1542 406.947 81.6109 405.645C102.143 402.821 122.05 391.886 138.512 379.739C155.774 367.048 170.643 350.969 181.783 332.645C193.165 313.941 202.072 290.958 194.046 269.231C186.509 248.966 165.534 240.407 145.967 236C133.711 233.233 121.171 231.477 109.348 227.069C98.6953 223.107 88.9073 217.297 78.831 212.104C68.9349 207.009 58.653 202.604 47.5762 200.969C42.219 200.197 36.8416 199.992 31.4365 200.171C23.9657 200.414 16.5233 200.882 9.10394 201.896C-2.94716 203.541 -16.1889 206.022 -23.5653 216.701C-24.0581 217.389 -24.4983 218.131 -24.9592 218.83C-28.2037 224.182 -30.3687 230.236 -31.3272 236.428C-31.6369 238.328 -31.8077 240.241 -31.8828 242.187C-32.7259 267.217 -18.3917 291.091 -7.09736 312.497ZM-14.4619 210.899C-13.5862 210.346 -12.6787 209.804 -11.7073 209.285C-5.39514 206.016 1.87239 205.128 8.80963 204.16C12.5409 203.642 16.2704 203.232 20.03 202.94C20.9511 202.869 31.0837 202.092 31.1215 202.392C31.1422 202.435 31.131 202.467 31.1404 202.542C41.5548 202.187 51.9556 203.298 62.1318 206.984C82.0151 214.264 99.0539 227.287 119.772 232.6C139.893 237.775 162.392 238.943 179.24 252.509C198.125 267.724 197.645 293.455 188.979 314.119C173.195 351.866 139.545 382.613 101.885 397.744C92.4514 401.529 82.2532 404.328 71.9995 404.023C61.0084 403.673 51.5424 399.088 44.1239 391.027C36.8104 383.074 31.2365 373.437 25.4605 364.375C18.9141 354.037 12.5945 343.564 6.55624 332.903C0.704055 322.63 -4.88934 312.233 -10.2558 301.7C-15.7051 290.995 -21.2913 280.17 -25.1783 268.795C-28.6665 258.528 -30.4276 247.327 -28.8899 236.532C-28.1389 231.235 -26.5659 226.049 -23.9849 221.361C-21.5145 216.884 -18.5064 213.53 -14.4619 210.899ZM-14.322 245.672C-13.6769 249.343 -12.5065 252.947 -11.2894 256.317C-5.53898 272.078 4.78353 285.645 14.9855 298.739C20.3279 305.568 25.7565 312.356 30.752 319.458C36.2078 327.188 40.7371 335.31 44.9722 343.758C52.0757 357.915 61.1645 374.276 78.0817 377.858C95.6277 381.589 114.099 370.149 127.657 360.245C141.343 350.279 155.04 337.123 162.422 321.639C165.813 314.545 167.561 306.515 165.968 298.709C164.445 291.214 160.103 284.7 154.616 279.506C141.704 267.289 124.179 263.601 107.882 258.049C97.468 254.53 88.1273 249.488 79.0182 243.379C70.6601 237.785 62.4143 231.871 53.1965 227.805C40.7502 222.316 27.2451 220.042 13.7524 218.955C7.82318 218.485 1.58671 218.48 -3.76709 221.368C-8.13828 223.705 -11.5943 227.619 -13.4041 232.256C-15.0905 236.542 -15.0918 241.133 -14.322 245.672ZM8.07306 220.832C8.48016 220.796 8.87604 220.792 9.28314 220.756C10.8572 220.664 12.456 221.011 14.0584 221.144C17.434 221.434 20.787 221.788 24.1384 222.249C30.766 223.181 37.3226 224.518 43.7074 226.548C60.403 231.882 73.3614 243.255 88.3453 251.824C103.033 260.218 119.739 262.972 135.13 269.569C149.682 275.798 164.934 288.193 164.41 305.586C163.895 322.445 150.567 337.201 138.919 348.099C126.564 359.681 110.845 370.942 94.1843 375.091C85.3008 377.312 76.2212 376.522 68.4433 371.419C61.2793 366.712 56.1112 359.693 51.9653 352.316C47.5376 344.517 44.027 336.251 39.3836 328.556C35.49 322.093 31.0883 315.953 26.5028 309.928C15.7519 295.744 3.77088 282.204 -4.44873 266.328C-6.41856 262.55 -8.14081 258.68 -9.60427 254.685C-11.9575 248.226 -13.9639 241.494 -11.946 234.634C-10.5621 229.884 -7.26385 225.806 -2.94524 223.415C0.433899 221.554 4.28154 221.113 8.07306 220.832Z"/>
</mask>
<path d="M-49.0767 245.611C-46.3998 259 -41.4718 272.105 -37.1724 285.06C-32.5682 298.984 -27.7164 312.815 -22.2082 326.41C-11.5509 352.686 1.71733 378.266 20.0983 400.012C28.1243 409.507 37.3597 418.315 48.5079 424.029C60.5682 430.207 74.0893 431.519 87.3688 429.337C102.021 426.921 115.592 420.752 128.741 414.148C135.753 410.623 142.692 407.001 149.839 403.703C156.393 400.663 163.186 398.066 169.823 395.198C182.171 389.855 193.589 383.18 201.55 372.062C209.324 361.272 213.721 348.361 217.908 335.843C226.618 309.957 232.887 280.917 221.295 254.85C210.807 231.253 187.687 221.149 163.707 216.447C158.61 215.443 153.51 214.654 148.366 213.886C121.138 205.064 93.715 196.388 65.425 191.605C38.6925 187.083 9.02808 185.188 -17.2498 193.238C-27.819 196.48 -38.373 202.023 -44.6493 211.511C-51.332 221.644 -51.3991 234.068 -49.0767 245.611ZM-48.0636 227.744C-46.6553 215.074 -38.6756 205.433 -27.5627 199.727C-16.838 194.207 -4.67281 192.136 7.24179 190.981C21.16 189.634 35.1886 190.012 49.1133 191.501C77.0151 194.533 104.167 202.145 130.836 210.519C135.199 211.874 139.508 213.282 143.86 214.669C143.928 215.087 144.233 215.445 144.777 215.529C145.801 215.674 146.858 215.831 147.914 215.987C148.723 216.235 149.521 216.516 150.298 216.753C150.744 216.91 151.153 216.767 151.393 216.493C172.745 219.697 195.685 224.607 210.371 241.467C228.939 262.884 227.606 293.588 220.707 319.322C217.297 332.077 213.093 344.948 207.609 356.974C201.803 369.711 193.532 380.183 181.242 387.197C169.578 393.857 156.631 397.949 144.585 403.757C131.58 410.053 118.945 417.232 105.362 422.213C92.468 426.969 78.2697 429.724 64.5973 427.212C51.3942 424.793 39.9459 417.18 30.4718 407.929C11.4278 389.394 -2.35868 365.389 -13.3215 341.409C-24.5324 316.912 -32.9432 291.283 -41.1514 265.689C-45.0691 253.585 -49.4866 240.66 -48.0636 227.744ZM-7.09736 312.497C4.93371 335.274 18.0974 357.481 32.3431 378.956C38.083 387.611 44.4292 396.479 53.7699 401.522C62.2941 406.134 72.1542 406.947 81.6109 405.645C102.143 402.821 122.05 391.886 138.512 379.739C155.774 367.048 170.643 350.969 181.783 332.645C193.165 313.941 202.072 290.958 194.046 269.231C186.509 248.966 165.534 240.407 145.967 236C133.711 233.233 121.171 231.477 109.348 227.069C98.6953 223.107 88.9073 217.297 78.831 212.104C68.9349 207.009 58.653 202.604 47.5762 200.969C42.219 200.197 36.8416 199.992 31.4365 200.171C23.9657 200.414 16.5233 200.882 9.10394 201.896C-2.94716 203.541 -16.1889 206.022 -23.5653 216.701C-24.0581 217.389 -24.4983 218.131 -24.9592 218.83C-28.2037 224.182 -30.3687 230.236 -31.3272 236.428C-31.6369 238.328 -31.8077 240.241 -31.8828 242.187C-32.7259 267.217 -18.3917 291.091 -7.09736 312.497ZM-14.4619 210.899C-13.5862 210.346 -12.6787 209.804 -11.7073 209.285C-5.39514 206.016 1.87239 205.128 8.80963 204.16C12.5409 203.642 16.2704 203.232 20.03 202.94C20.9511 202.869 31.0837 202.092 31.1215 202.392C31.1422 202.435 31.131 202.467 31.1404 202.542C41.5548 202.187 51.9556 203.298 62.1318 206.984C82.0151 214.264 99.0539 227.287 119.772 232.6C139.893 237.775 162.392 238.943 179.24 252.509C198.125 267.724 197.645 293.455 188.979 314.119C173.195 351.866 139.545 382.613 101.885 397.744C92.4514 401.529 82.2532 404.328 71.9995 404.023C61.0084 403.673 51.5424 399.088 44.1239 391.027C36.8104 383.074 31.2365 373.437 25.4605 364.375C18.9141 354.037 12.5945 343.564 6.55624 332.903C0.704055 322.63 -4.88934 312.233 -10.2558 301.7C-15.7051 290.995 -21.2913 280.17 -25.1783 268.795C-28.6665 258.528 -30.4276 247.327 -28.8899 236.532C-28.1389 231.235 -26.5659 226.049 -23.9849 221.361C-21.5145 216.884 -18.5064 213.53 -14.4619 210.899ZM-14.322 245.672C-13.6769 249.343 -12.5065 252.947 -11.2894 256.317C-5.53898 272.078 4.78353 285.645 14.9855 298.739C20.3279 305.568 25.7565 312.356 30.752 319.458C36.2078 327.188 40.7371 335.31 44.9722 343.758C52.0757 357.915 61.1645 374.276 78.0817 377.858C95.6277 381.589 114.099 370.149 127.657 360.245C141.343 350.279 155.04 337.123 162.422 321.639C165.813 314.545 167.561 306.515 165.968 298.709C164.445 291.214 160.103 284.7 154.616 279.506C141.704 267.289 124.179 263.601 107.882 258.049C97.468 254.53 88.1273 249.488 79.0182 243.379C70.6601 237.785 62.4143 231.871 53.1965 227.805C40.7502 222.316 27.2451 220.042 13.7524 218.955C7.82318 218.485 1.58671 218.48 -3.76709 221.368C-8.13828 223.705 -11.5943 227.619 -13.4041 232.256C-15.0905 236.542 -15.0918 241.133 -14.322 245.672ZM8.07306 220.832C8.48016 220.796 8.87604 220.792 9.28314 220.756C10.8572 220.664 12.456 221.011 14.0584 221.144C17.434 221.434 20.787 221.788 24.1384 222.249C30.766 223.181 37.3226 224.518 43.7074 226.548C60.403 231.882 73.3614 243.255 88.3453 251.824C103.033 260.218 119.739 262.972 135.13 269.569C149.682 275.798 164.934 288.193 164.41 305.586C163.895 322.445 150.567 337.201 138.919 348.099C126.564 359.681 110.845 370.942 94.1843 375.091C85.3008 377.312 76.2212 376.522 68.4433 371.419C61.2793 366.712 56.1112 359.693 51.9653 352.316C47.5376 344.517 44.027 336.251 39.3836 328.556C35.49 322.093 31.0883 315.953 26.5028 309.928C15.7519 295.744 3.77088 282.204 -4.44873 266.328C-6.41856 262.55 -8.14081 258.68 -9.60427 254.685C-11.9575 248.226 -13.9639 241.494 -11.946 234.634C-10.5621 229.884 -7.26385 225.806 -2.94524 223.415C0.433899 221.554 4.28154 221.113 8.07306 220.832Z" fill="white" stroke="white" stroke-width="2" mask="url(#path-21-inside-2_833_83)"/>
<path d="M510.747 -24.2484C501.048 19.8259 463.17 49.3289 420.502 58.456C398.868 63.0996 374.601 63.9002 353.486 56.4544C331.414 48.6884 317.723 30.5142 306.547 10.8589C294.892 -9.71711 281.162 -32.4949 282.04 -57.034C282.479 -69.5237 286.63 -81.5331 291.699 -92.8619C297.766 -106.472 306.587 -123.646 317.803 -134.094C334.208 -149.306 357.318 -154.43 379.071 -152.668C404.217 -150.667 429.682 -141.5 452.113 -130.211C472.789 -119.803 492.107 -104.871 503.323 -84.1751C513.182 -65.8809 515.217 -44.4242 510.747 -24.2484Z" fill="white" fill-opacity="0.2"/>
<path d="M-38.4203 374.865C-62.7273 336.841 -56.805 289.196 -33.088 252.571C-21.0744 233.99 -4.48072 216.264 15.7145 206.599C36.8134 196.483 59.3452 199.653 81.1461 205.649C103.937 211.957 129.752 218.355 146.483 236.328C155.004 245.47 160.561 256.897 164.987 268.492C170.321 282.406 176.227 300.787 175.684 316.105C174.841 338.462 162.123 358.426 145.495 372.563C126.299 388.928 101.811 400.452 77.9667 408.332C55.9874 415.592 31.769 418.694 9.2038 411.99C-10.7034 406.025 -27.315 392.292 -38.4203 374.865Z" fill="white" fill-opacity="0.2"/>
<path d="M332.587 157.685L259.014 137.971C254.951 136.888 250.778 139.297 249.685 143.357L229.971 216.931C228.888 220.993 231.297 225.166 235.357 226.26L308.931 245.974C312.993 247.057 317.166 244.648 318.26 240.588L337.974 167.014C339.057 162.951 336.648 158.778 332.587 157.685V157.685ZM258.226 140.914L331.799 160.628C334.237 161.282 335.684 163.788 335.031 166.226L333.848 170.64L251.445 148.56L252.628 144.146C253.282 141.708 255.787 140.261 258.226 140.914V140.914ZM309.719 243.03L236.146 223.317C233.708 222.663 232.261 220.157 232.914 217.719L250.657 151.503L333.059 173.583L315.317 239.799C314.663 242.237 312.157 243.684 309.719 243.03Z" fill="white" fill-opacity="0.12"/>
<path d="M318.45 163.36C319.263 163.578 320.098 163.095 320.316 162.283C320.534 161.47 320.052 160.635 319.239 160.417C318.426 160.199 317.591 160.681 317.373 161.494C317.156 162.307 317.638 163.142 318.45 163.36Z" fill="white" fill-opacity="0.12"/>
<path d="M324.336 164.937C325.149 165.155 325.984 164.673 326.202 163.86C326.419 163.047 325.937 162.212 325.124 161.994C324.312 161.777 323.477 162.259 323.259 163.072C323.041 163.884 323.523 164.719 324.336 164.937Z" fill="white" fill-opacity="0.12"/>
<path d="M330.222 166.514C331.034 166.732 331.87 166.25 332.087 165.437C332.305 164.624 331.823 163.789 331.01 163.571C330.198 163.354 329.362 163.836 329.145 164.648C328.927 165.461 329.409 166.296 330.222 166.514Z" fill="white" fill-opacity="0.12"/>
<path d="M253.677 169.661L283.107 177.546C284.732 177.982 286.403 177.017 286.838 175.392L288.415 169.506C288.851 167.881 287.886 166.21 286.261 165.775L256.831 157.889C255.206 157.453 253.535 158.418 253.1 160.043L251.523 165.929C251.087 167.555 252.052 169.225 253.677 169.661V169.661ZM256.043 160.832L285.472 168.718L283.895 174.603L254.466 166.718L256.043 160.832Z" fill="white" fill-opacity="0.12"/>
<path d="M324.519 176.026L295.089 168.14C293.464 167.705 291.793 168.669 291.358 170.295L289.781 176.181C289.345 177.806 290.31 179.477 291.935 179.912L321.365 187.798C322.99 188.233 324.661 187.269 325.096 185.643L326.673 179.758C327.109 178.132 326.144 176.461 324.519 176.026V176.026ZM292.724 176.969L294.301 171.083L323.73 178.969L322.153 184.855L292.724 176.969Z" fill="white" fill-opacity="0.12"/>
<path d="M320.576 190.741L252.889 172.604C251.263 172.168 249.593 173.133 249.157 174.758L241.271 204.187C240.836 205.813 241.8 207.483 243.426 207.919L311.113 226.056C312.739 226.491 314.409 225.527 314.845 223.901L322.731 194.472C323.166 192.847 322.201 191.176 320.576 190.741V190.741ZM244.214 204.976L252.1 175.547L319.788 193.683L311.902 223.113L244.214 204.976Z" fill="white" fill-opacity="0.12"/>
<path d="M308.854 228.605L288.253 223.085C285.815 222.431 283.309 223.878 282.656 226.316C282.003 228.754 283.45 231.26 285.888 231.914L306.488 237.433C308.926 238.087 311.432 236.64 312.085 234.202C312.739 231.764 311.292 229.258 308.854 228.605ZM307.277 234.491L286.676 228.971C285.863 228.753 285.381 227.918 285.599 227.105C285.817 226.292 286.652 225.81 287.465 226.028L308.065 231.548C308.878 231.766 309.36 232.601 309.142 233.413C308.925 234.226 308.089 234.708 307.277 234.491Z" fill="white" fill-opacity="0.12"/>
<path d="M254.937 182.615L259.352 183.798C260.164 184.016 261 183.534 261.217 182.721C261.435 181.908 260.953 181.073 260.14 180.855L255.726 179.673C254.913 179.455 254.078 179.937 253.86 180.75C253.642 181.562 254.125 182.398 254.937 182.615Z" fill="white" fill-opacity="0.12"/>
<path d="M265.238 185.375L282.895 190.107C283.708 190.325 284.543 189.842 284.761 189.03C284.979 188.217 284.496 187.382 283.684 187.164L266.026 182.433C265.213 182.215 264.378 182.697 264.16 183.51C263.943 184.322 264.425 185.158 265.238 185.375Z" fill="white" fill-opacity="0.12"/>
<path d="M292.407 195.809L254.149 185.558C253.336 185.34 252.501 185.823 252.283 186.635C252.065 187.448 252.548 188.283 253.36 188.501L291.618 198.752C292.431 198.97 293.266 198.488 293.484 197.675C293.702 196.862 293.22 196.027 292.407 195.809Z" fill="white" fill-opacity="0.12"/>
<path d="M255.329 147.562C255.75 148.29 256.681 148.54 257.41 148.119L257.956 147.804L258.272 148.35C258.7 149.063 259.62 149.301 260.34 148.885C261.059 148.47 261.313 147.554 260.91 146.827L260.595 146.281L261.141 145.965C261.854 145.537 262.092 144.617 261.676 143.897C261.26 143.178 260.345 142.924 259.618 143.327L259.071 143.642L258.756 143.096C258.328 142.383 257.408 142.145 256.688 142.561C255.969 142.977 255.715 143.892 256.118 144.619L256.433 145.166L255.887 145.481C255.158 145.902 254.909 146.833 255.329 147.562V147.562Z" fill="white" fill-opacity="0.12"/>
<path fill-rule="evenodd" clip-rule="evenodd" d="M234.413 199.62C236.789 199.622 239.111 198.92 241.087 197.602C243.063 196.284 244.604 194.41 245.515 192.216C246.426 190.023 246.666 187.608 246.205 185.278C245.744 182.948 244.602 180.807 242.924 179.126C241.246 177.445 239.107 176.3 236.778 175.834C234.449 175.368 232.034 175.604 229.839 176.511C227.644 177.418 225.767 178.956 224.445 180.929C223.124 182.903 222.417 185.224 222.415 187.599C222.414 189.177 222.723 190.738 223.325 192.196C223.927 193.654 224.811 194.978 225.925 196.095C227.039 197.211 228.362 198.097 229.818 198.701C231.275 199.306 232.836 199.618 234.413 199.62V199.62ZM234.413 194.692C235.814 194.695 237.184 194.281 238.35 193.505C239.516 192.729 240.425 191.624 240.963 190.331C241.501 189.038 241.644 187.614 241.372 186.24C241.101 184.866 240.429 183.603 239.44 182.611C238.451 181.619 237.19 180.942 235.817 180.667C234.444 180.391 233.019 180.529 231.725 181.063C230.43 181.597 229.322 182.503 228.542 183.667C227.762 184.83 227.345 186.199 227.343 187.599V187.599C227.341 188.529 227.523 189.451 227.877 190.31C228.232 191.17 228.752 191.952 229.409 192.61C230.066 193.269 230.845 193.792 231.704 194.149C232.563 194.506 233.483 194.691 234.413 194.692V194.692Z" fill="white"/>
<path fill-rule="evenodd" clip-rule="evenodd" d="M208.969 199.62C211.345 199.622 213.667 198.92 215.643 197.602C217.619 196.284 219.16 194.41 220.071 192.216C220.982 190.023 221.222 187.608 220.761 185.278C220.3 182.948 219.158 180.807 217.48 179.126C215.802 177.445 213.663 176.3 211.334 175.834C209.005 175.368 206.59 175.604 204.395 176.511C202.199 177.418 200.322 178.956 199.001 180.929C197.68 182.903 196.973 185.224 196.971 187.599C196.971 190.781 198.233 193.832 200.481 196.084C202.728 198.335 205.777 199.603 208.958 199.609L208.969 199.62ZM208.969 194.692C210.37 194.695 211.74 194.281 212.906 193.505C214.071 192.729 214.981 191.624 215.519 190.331C216.057 189.038 216.199 187.614 215.928 186.24C215.657 184.866 214.985 183.603 213.996 182.611C213.007 181.619 211.746 180.942 210.373 180.667C208.999 180.391 207.575 180.529 206.28 181.063C204.986 181.597 203.878 182.503 203.098 183.667C202.318 184.83 201.901 186.199 201.898 187.599V187.599C201.897 188.529 202.079 189.451 202.433 190.31C202.788 191.17 203.308 191.952 203.965 192.61C204.621 193.269 205.401 193.792 206.26 194.149C207.119 194.506 208.039 194.691 208.969 194.692V194.692Z" fill="white"/>
<path fill-rule="evenodd" clip-rule="evenodd" d="M195.888 187.522V187.611C195.888 190.315 194.975 192.94 193.296 195.06C191.617 197.18 189.271 198.67 186.639 199.29C184.006 199.909 181.242 199.621 178.793 198.473C176.345 197.324 174.357 195.382 173.151 192.961C171.945 190.541 171.592 187.784 172.149 185.138C172.706 182.492 174.141 180.111 176.221 178.383C178.301 176.654 180.904 175.679 183.607 175.615C186.311 175.552 188.957 176.403 191.115 178.032V170.386C191.115 169.753 191.367 169.147 191.814 168.699C192.262 168.251 192.869 168 193.502 168C194.135 168 194.742 168.251 195.189 168.699C195.637 169.147 195.888 169.753 195.888 170.386V170.386V187.522ZM183.879 194.692C185.28 194.699 186.651 194.29 187.819 193.517C188.987 192.745 189.9 191.643 190.442 190.351C190.984 189.06 191.131 187.637 190.864 186.262C190.597 184.887 189.929 183.622 188.943 182.626C187.957 181.631 186.699 180.951 185.326 180.671C183.954 180.392 182.529 180.525 181.233 181.055C179.936 181.585 178.826 182.488 178.042 183.649C177.258 184.81 176.837 186.177 176.83 187.577V187.577C176.826 188.507 177.005 189.429 177.357 190.29C177.708 191.151 178.226 191.934 178.881 192.595C179.535 193.256 180.314 193.781 181.171 194.141C182.029 194.501 182.949 194.688 183.879 194.692V194.692Z" fill="white"/>
<path fill-rule="evenodd" clip-rule="evenodd" d="M159.009 199.598C161.385 199.598 163.707 198.894 165.681 197.574C167.656 196.254 169.196 194.379 170.105 192.184C171.014 189.99 171.251 187.575 170.788 185.246C170.325 182.916 169.181 180.776 167.501 179.097C165.822 177.417 163.682 176.273 161.352 175.81C159.023 175.346 156.608 175.584 154.414 176.493C152.219 177.402 150.344 178.942 149.024 180.916C147.704 182.891 147 185.213 147 187.589C147 190.774 148.265 193.828 150.517 196.08C152.77 198.333 155.824 199.598 159.009 199.598V199.598ZM158.899 194.715C160.301 194.715 161.672 194.298 162.838 193.518C164.004 192.738 164.911 191.629 165.446 190.333C165.981 189.036 166.118 187.61 165.841 186.235C165.564 184.86 164.886 183.598 163.891 182.609C162.896 181.621 161.63 180.95 160.253 180.682C158.877 180.413 157.451 180.56 156.158 181.103C154.865 181.645 153.762 182.56 152.989 183.73C152.216 184.901 151.808 186.274 151.817 187.677V187.677C151.829 189.547 152.58 191.337 153.907 192.656C155.234 193.975 157.028 194.715 158.899 194.715V194.715Z" fill="white"/>
</g>
<defs>
<clipPath id="clip0_833_83">
<rect width="365" height="250" fill="white"/>
</clipPath>
</defs>
</svg>
