<svg fill="none" height="147" viewBox="0 0 365 147" width="365" xmlns="http://www.w3.org/2000/svg" xmlns:xlink="http://www.w3.org/1999/xlink"><linearGradient id="a" gradientUnits="userSpaceOnUse" x1="96" x2="191.5" y1="9" y2="147"><stop offset="0" stop-color="#5e576b"/><stop offset="1" stop-color="#826d80"/></linearGradient><rect fill="url(#a)" height="147" rx="20" width="365"/><path d="m182.259 75.4559c-.02-10.7244 2.947-21.2467 8.575-30.4099h-14.3c-39.885 0-79.7657 0-119.6421 0-.382-.0224-.7644.0348-1.1225.1681-.3582.1333-.684.3397-.9564.6057s-.4853.5857-.6248.9384c-.1396.3528-.2028.7306-.1854 1.109.0574 17.1371.0574 34.272 0 51.4048 0 1.312.1789 2.48 1.3253 3.32h133.6309c-4.422-8.3669-6.721-17.6734-6.7-27.1165zm-97.5901 2.0338c-.0739 1.1596-.5342 2.2621-1.3088 3.1347-.7747.8727-1.8199 1.4663-2.9718 1.6876-.5499.1115-1.1065.1575-1.471.2034-1.9092.009-3.7696-.5966-5.3009-1.7255-.4705-.3543-.6958-.702-.2452-1.2269.148-.2105.2829-.4296.4042-.6561.5433-.8136.9873-.9251 1.8089-.374 1.0189.799 2.2927 1.2109 3.5915 1.1613.4939.0058.9759-.1508 1.3703-.4453.3945-.2944.6792-.71.8097-1.1818.0906-.2204.1349-.4567.1302-.6946s-.0583-.4724-.1575-.6891-.2419-.4111-.4195-.5714-.3863-.2831-.6134-.3609c-.8879-.3937-1.8421-.6561-2.7632-.9513-1.5306-.5118-2.9751-1.181-3.5185-2.8212-.7885-2.4145-.0861-4.947 2.4517-6.1082 2.5379-1.1613 5.0691-.7874 7.4015.761.3976.269.5102.5577.2319.9645-.0928.1378-.1656.2887-.2452.433-.6626 1.3122-.8746 1.3712-2.18.6233-.5059-.3286-1.0788-.5425-1.6779-.6265-.5991-.0839-1.2095-.0358-1.7876.141-.3584.0898-.6791.2889-.917.5691-.2378.2802-.3806.6274-.4082.9924-.0528.3562.0199.7195.2057 1.0289s.4735.5461.8147.6704c.5025.2456 1.0179.4647 1.5439.656.6295.2297 1.2789.4134 1.9017.6561 2.518.9842 3.5053 2.4341 3.3198 4.7501zm14.8294 4.9273c-1.6218-.1596-3.1234-.9178-4.2063-2.1237-1.0829-1.206-1.6677-2.7713-1.638-4.3848 0-3.2148-.053-6.4231-.0994-9.6379 0-.6561.2518-.8923.9012-.8464.5604.0361 1.1226.0361 1.683 0 .6626-.0525.8548.2428.8548.8792-.0265 3.1536-.0265 6.3116 0 9.4739-.031.6153.0951 1.2284.3665 1.7827.2715.5544.6796 1.032 1.1867 1.389s1.0968.5817 1.7152.6534c.618.0718 1.244-.0117 1.82-.2428 1.465-.4986 2.353-1.883 2.366-3.7594 0-3.0508 0-6.0951 0-9.1459 0-.7873.219-1.0563 1.04-1.0432 2.3 0 2.3 0 2.3 2.2504v3.661 2.1192 2.1191c.079 4.4221-3.426 7.4991-8.2897 6.8562zm20.6007-.0853c-2.346-.0394-2.346 0-2.346-2.3094v-6.2329c0-1.2203 0-2.4407 0-3.661s0-2.4341 0-3.6544c0-.8726.279-1.1416 1.107-1.0563.44.0509.885.0509 1.325 0 .809-.0919 1.014.2886.994 1.0169v4.4877 10.3072c.013.8004-.205 1.1219-1.08 1.1022zm23.192-15.884c-.053.538 0 1.0957 0 1.7452-1.524 0-2.902.0328-4.274 0-.663 0-.808.2034-.802.8136v12.3017c0 .807-.238 1.0432-1.047 1.0366-2.292-.0328-2.292 0-2.292-2.2635 0-3.6282 0-7.2629 0-10.8911 0-.8201-.259-1.0366-1.047-.9973-1.147.0591-2.3 0-3.446 0-.47 0-.663-.1574-.663-.6167 0-.0525 0-.105 0-.164 0-2.4407-.139-1.9683 1.922-1.9683h10.602c.875-.0394 1.159.21 1.073 1.0038zm17.645 15.8643c-2.696 0-5.393 0-8.084 0-.748 0-.96-.2362-.947-.9579 0-1.2597 0-2.5259 0-3.7856s0-2.526 0-3.7857 0-2.4669 0-3.7003c0-1.2335 0-2.4669 0-3.7004 0-.702.159-.9907.928-.9841 3.034.0393 6.063.0328 9.097 0 .663 0 .882.2296.875.8791-.046 2.1848.212 1.8502-1.875 1.8699-1.604 0-3.201 0-4.798 0-.576 0-.821.1706-.801.7611.033.9644.033 1.9682 0 2.9064 0 .6036.251.748.815.7414 1.457-.0328 2.915 0 4.373 0 .51 0 .663.1772.716.6561.145 1.9289.139 1.9683-1.809 1.9683-1.067 0-2.134.0328-3.201 0-.715-.0394-.928.2427-.894.912.039.8857.033 1.778 0 2.6637 0 .6561.185.8791.868.866 1.901-.0459 3.816 0 5.725 0 .662 0 .894.2165.881.8661-.02 2.1323.232 1.8108-1.842 1.8239z" fill="#eb6758"/><g fill="#fff"><path d="m309.821 45.0394h-17.46v.3608l-.212-.3608h-101.315c-5.294 8.6202-8.248 18.4486-8.577 28.5321-.328 10.0835 1.98 20.08 6.702 29.0205h122.041v-57.592c-.391.0131-.782.0394-1.179.0394zm-82.357 40.0215c-1.987 2.2316-4.726 3.6706-7.707 4.0481-.993.1509-1.987.1903-2.551.2362-5.619 0-9.939-1.7846-12.854-6.1082-2.214-3.2477-2.896-6.9218-2.651-10.7861.147-3.3878 1.451-6.626 3.697-9.1853 3.254-3.6348 7.462-5.0454 12.279-4.8748 3.404.0425 6.686 1.2634 9.276 3.4511.531.4527.557.761.12 1.2728-.63.7479-1.18 1.5483-1.769 2.3225-.915 1.1941-1.677 1.3713-2.949.5315-1.492-1.053-3.27-1.6361-5.102-1.6731-3.724 0-6.368 1.7387-7.495 5.2488-1.126 3.5101-1.086 6.8561.736 10.0644.595.9852 1.396 1.8332 2.349 2.487s2.036 1.0984 3.177 1.3041c1.14.2056 2.312.1675 3.437-.1118 1.124-.2793 2.176-.7933 3.083-1.5076 1.326-1.0367 1.849-.9973 2.995.2034.617.656 1.213 1.3121 1.869 1.9158.477.433.47.7151.066 1.1743zm27.598 3.9366c-1.769 0-3.539-.0394-5.301 0-.659.0552-1.318-.0923-1.889-.4223-.57-.33-1.024-.8264-1.298-1.4213-1.372-2.4801-2.83-4.9076-4.248-7.3614-1.126-1.9683-1.822-2.2635-4.241-1.8436v10.9698c-.351 0-.616.0591-.887.0591-1.823 0-3.651 0-5.474 0-.702 0-.907-.2034-.901-.8923 0-5.1831 0-10.3662 0-15.5559 0-4.2646 0-8.5292 0-12.8069 0-.7676.172-1.0563 1.014-1.0432 3.565.0525 7.13-.0656 10.688.0919 1.759.0914 3.497.4271 5.162.9972 6.977 2.3816 6.699 10.6877 3.121 14.1388-.995.8653-2.047 1.6653-3.148 2.3947.818.9147 1.585 1.8717 2.3 2.8671 1.868 2.8999 3.651 5.8458 5.466 8.7785.166.2756.318.5643.544.9579-.371.0591-.637.0919-.902.0919zm37.769-.0591h-6.268v-19.1972h-.179c-2.231 4.2865-4.468 8.5664-6.713 12.8397l-.583 1.1022c-1.047 2.0273-1.987 2.5129-4.254 2.2439-.502-.0587-.981-.248-1.386-.5487-.405-.3008-.722-.7023-.92-1.1637-2.403-4.632-4.815-9.2597-7.235-13.8829-.134-.2816-.323-.5337-.557-.7414 0 .5905.099 1.181.099 1.7714v16.6385c0 .7742-.172 1.0694-1.013 1.0432-1.763-.0656-3.526 0-5.368 0 0-.3871-.046-.6561-.046-.9776 0-9.4302 0-18.8604 0-28.2906 0-.7939.212-1.0432 1.027-1.017 1.657.0591 3.313.0394 4.97 0 .42-.0302.838.0723 1.196.2928.357.2205.634.5476.792.9341 3.021 5.9967 6.058 11.989 9.111 17.9769.037.0577.082.1106.132.1575 1.325-2.6244 2.664-5.2487 4.016-7.8731 1.749-3.4051 3.511-6.8037 5.248-10.2219.157-.4048.44-.7499.808-.9856s.802-.3501 1.239-.3266h5.4.464z"/><path d="m242.678 64.3021c-1.506-.1187-3.019-.1319-4.526-.0394v8.726c1.519-.0204 3.036-.119 4.545-.2952 2.233-.374 3.459-2.0667 3.459-4.4352 0-2.1848-1.139-3.6216-3.478-3.9562z"/></g></svg>