<svg fill="none" height="178" viewBox="0 0 178 178" width="178" xmlns="http://www.w3.org/2000/svg" xmlns:xlink="http://www.w3.org/1999/xlink"><clipPath id="a"><path d="m0 0h178v178h-178z"/></clipPath><g clip-path="url(#a)"><circle cx="89" cy="89" fill="#f8f8f8" r="89"/><path d="m37.9462 101.56c7.3289.986 13.7435-.671 18.958-5.3572l8.729.4572-4.7574 14.015c-5.2859 8.386-12.9577 10.172-20.8152 9.643z" fill="#7eaaba"/><path d="m41.1891 104.732 1.4287 12.858c6.5432 0 11.7577-2.186 15.715-8.129l3.4431-10.0009-3.8288-.2c-4.684 3.8719-10.6454 5.8539-16.7151 5.5579z" fill="#d3e8ef"/><path d="m41.1891 104.732.8572 7.586c8.9862-1.057 15.9865-4.758 19.6153-12.9436l-3.8288-.2c-4.656 3.8716-10.5955 5.8546-16.6437 5.5576z" fill="#fff"/><path d="m40.0606 90.5882c2.9426-.0028 5.82.8674 8.2679 2.5005s4.3563 3.9557 5.4837 6.6738c1.1274 2.7185 1.4231 5.7095.8497 8.5955-.5734 2.887-1.9901 5.538-4.0709 7.619-2.0807 2.08-4.732 3.497-7.6182 4.07-2.8863.574-5.8778.278-8.5959-.849-2.7181-1.128-5.0407-3.036-6.6737-5.484-1.6331-2.448-2.5033-5.325-2.5005-8.268.0076-3.938 1.5754-7.7129 4.3601-10.4976 2.7848-2.7848 6.5595-4.3526 10.4978-4.3602z" fill="#7eaaba"/><path d="m40.0606 93.4884c-2.3544-.0028-4.6566.6927-6.6155 1.9986-1.959 1.306-3.4865 3.1636-4.3894 5.338-.9029 2.174-1.1406 4.567-.6831 6.877.4576 2.309 1.5899 4.431 3.2536 6.097 1.6638 1.666 3.7842 2.8 6.0931 3.261 2.3089.46 4.7024.225 6.8778-.675s4.0349-2.426 5.3431-4.383c1.3083-1.957 2.0066-4.259 2.0066-6.613.0019-1.562-.3041-3.109-.9006-4.553-.5965-1.4439-1.4718-2.7559-2.5757-3.8612-1.1039-1.1052-2.4149-1.982-3.858-2.5803-1.443-.5982-2.9898-.9061-4.5519-.9061z" fill="#d3e8ef"/><path d="m40.0605 93.4884c-1.9194-.0098-3.8123.4482-5.515 1.3343-1.7026.8862-3.1637 2.1739-4.2569 3.7516.2022 3.0197 1.5407 5.8507 3.746 7.9237s5.1138 3.233 8.1403 3.248c1.9195.01 3.8124-.448 5.515-1.334 1.7027-.886 3.1638-2.174 4.2569-3.752-.1889-3.024-1.5233-5.8632-3.7315-7.9387s-5.1243-3.2316-8.1548-3.2329z" fill="#fff"/><path d="m38.5462 92.7741c2.1985 0 4.3475.6529 6.1745 1.8758s3.2497 2.9608 4.0877 4.9934c.838 2.0327 1.0537 4.2677.6195 6.4237-.4341 2.155-1.4985 4.133-3.058 5.682-1.5596 1.55-3.5442 2.601-5.7022 3.021-2.158.421-4.3922.191-6.4192-.66-2.0271-.852-3.7558-2.286-4.9669-4.12-1.2111-1.835-1.8501-3.988-1.8359-6.187.0113-2.934 1.1868-5.7434 3.2681-7.8113 2.0813-2.068 4.8984-3.2252 7.8324-3.2176z" fill="#7eaaba"/><path d="m37.7462 89.7882c2.2063.0029 4.3622.6607 6.1944 1.89 1.8321 1.2294 3.2581 2.975 4.0972 5.0156s1.0535 4.2842.6161 6.4472c-.4374 2.162-1.507 4.146-3.0731 5.7-1.5662 1.555-3.5584 2.609-5.7243 3.03-2.1659.42-4.408.189-6.442-.666-2.0341-.855-3.7686-2.294-4.9838-4.136s-1.8564-4.003-1.8422-6.209c.0226-2.9468 1.2072-5.7658 3.2964-7.8443s4.9142-3.2486 7.8613-3.2561" fill="#7f3e13"/><path d="m38.8034 94.017c-1.7519 0-3.4644.5195-4.921 1.4927-1.4566.9733-2.5919 2.3567-3.2624 3.9752-.6704 1.6181-.8458 3.3991-.504 5.1181.3418 1.718 1.1854 3.296 2.4241 4.535 1.2388 1.239 2.817 2.082 4.5352 2.424s3.4992.166 5.1177-.504c1.6185-.671 3.0019-1.806 3.9752-3.262.9733-1.457 1.4927-3.17 1.4927-4.921-.0037-2.348-.9382-4.5992-2.5985-6.2595-1.6602-1.6603-3.911-2.5948-6.259-2.5985z" fill="#b85a1b"/><path d="m32.1316 80.8592c0-1.2882.5118-2.5237 1.4227-3.4347.9109-.9109 2.1464-1.4227 3.4347-1.4227 1.2882 0 2.5237.5118 3.4347 1.4227.9109.911 1.4227 2.1465 1.4227 3.4347 2.7001-4.5716 11.2291-2.0572 8.5718 5.086.1452.564.2549 1.1366.3286 1.7143 4.6288.2572 6.1431 7.4575-.2 9.7148-.4722 1.8502-1.3236 3.5817-2.5001 5.0857-5.4289 4.686-7.1432.857-10.1148-2.314-2.8573 0-10.572-1.9145-8.3861 5.343-4.9431-3.2-8.1147-9.6148-5.7432-19.001-3.3001-7.6003 5.486-10.429 8.329-5.7145z" fill="#7f3e13"/><path d="m26.7885 87.5452c-1.1286 4.5574-1.2 9.7148 2.043 13.4148 4.5574 5.215 13.8007 4.958 17.3723-1.5856 1.9143-3.5716 1.7858-8.0004.9857-11.8863-6.7326-1.3573-13.6684-1.3573-20.401 0z" fill="#b85a1b"/><path d="m26.7885 87.5452c-1.1286 4.5574-1.2 9.7148 2.043 13.4148 1.0377 1.14 2.3015 2.052 3.7109 2.677 1.4094.624 2.9335.949 4.4752.952v-18.1009c-3.4355.0264-6.8607.3804-10.2291 1.0571z" fill="#e1762f"/><path d="m31.2744 91.0454c-.4354 1.2464-.5549 2.5813-.348 3.8852s.7339 2.5362 1.5338 3.5866c.6243.7108 1.4085 1.2632 2.2882 1.6118.8796.348 1.8294.482 2.7711.392.9417-.091 1.8484-.404 2.6454-.9139.7969-.5098 1.4614-1.2016 1.9386-2.0185.9378-2.0719 1.1247-4.4056.5286-6.6003-3.7473-.7644-7.6104-.7644-11.3577 0" fill="#7f3e13"/><path d="m36.9604 84.0451c.6507-.0485 1.2591-.3412 1.7031-.8195.4439-.4782.6907-1.1067.6907-1.7592 0-.6526-.2468-1.281-.6907-1.7593-.444-.4782-1.0524-.7709-1.7031-.8194zm9.3147-3.1859c.508.0028 1.0038.156 1.4248.4403s.7484.6869.9408 1.157c.1925.4702.2414.9868.1405 1.4846-.1008.4979-.3468.9548-.707 1.313s-.8185.6017-1.3169.6998-1.0148.0463-1.4838-.1487c-.4691-.1951-.8699-.5247-1.1518-.9473-.2819-.4225-.4324-.9192-.4324-1.4271.0038-.6834.2779-1.3374.7624-1.8193.4845-.4818 1.1401-.7523 1.8234-.7523z" fill="#b85a1b"/><path d="m28.1743 81.0735c.6507.0485 1.2591.3412 1.7031.8194.4439.4783.6906 1.1067.6906 1.7593 0 .6525-.2467 1.281-.6906 1.7592-.444.4783-1.0524.771-1.7031.8195-.6693-.0137-1.3085-.2809-1.7885-.7476s-.7649-1.0981-.7974-1.7668c.0038-.6834.2779-1.3374.7624-1.8193.4846-.4818 1.1401-.7523 1.8235-.7523m8.7861 2.9716v-5.1574c-.6699.0254-1.3048.3057-1.7749.7837-.47.4781-.7397 1.1176-.7538 1.7879.0018.3357.0705.6677.202.9766s.3231.5886.5638.8226c.2407.2341.5256.4179.8381.5407.3125.1227.6463.1821.982.1745z" fill="#e1762f"/><path d="m49.1753 90.1311c.5086 0 1.0057.1508 1.4286.4334.4229.2825.7525.6842.9472 1.1541.1946.4698.2455.9869.1463 1.4857-.0992.4989-.3441.9571-.7038 1.3167-.3596.3596-.8178.6046-1.3167.7038-.4988.0992-1.0158.0483-1.4857-.1464-.4699-.1946-.8715-.5242-1.1541-.9471s-.4334-.9201-.4334-1.4287c-.0058-.3393.0568-.6763.1839-.9909.1272-.3146.3164-.6004.5564-.8403.2399-.24.5257-.4292.8403-.5564.3147-.1272.6517-.1897.991-.1839z" fill="#b85a1b"/><path d="m137.565 120.518c-.586-7.729-4.086-13.286-10.957-16.258l1.428-5.3428 11.101-2.9858c9.643 2.8572 13.343 9.1286 15.186 16.8576l-16.715 7.729z" fill="#7eaaba"/><path d="m139.88 116.289 11.043-5.157c-1.929-6.472-5.157-10.629-11.958-12.2862l-8.657 2.3142-.4 1.429c2.541 1.439 4.747 3.402 6.471 5.76 1.725 2.357 2.927 5.054 3.529 7.912z" fill="#fff"/><path d="m126.865 121.833c-.892-2.71-.961-5.623-.198-8.372.764-2.749 2.325-5.209 4.486-7.071s4.826-3.042 7.657-3.39 5.702.151 8.25 1.434 4.658 3.292 6.065 5.774c1.406 2.482 2.045 5.325 1.836 8.17s-1.256 5.564-3.01 7.814c-1.753 2.25-4.135 3.93-6.843 4.827-1.8.6-3.702.839-5.595.702-1.894-.137-3.741-.647-5.437-1.501-1.695-.854-3.205-2.034-4.443-3.474-1.238-1.439-2.178-3.109-2.768-4.913z" fill="#7eaaba"/><path d="m129.251 121.047c.739 2.24 2.126 4.21 3.985 5.662s4.107 2.32 6.459 2.494c2.353.175 4.704-.352 6.757-1.514 2.053-1.161 3.716-2.905 4.778-5.011s1.476-4.48 1.189-6.821c-.287-2.342-1.261-4.545-2.8-6.333s-3.573-3.079-5.846-3.711c-2.273-.631-4.681-.575-6.922.162-1.49.488-2.87 1.266-4.059 2.288s-2.165 2.269-2.871 3.67c-.706 1.4-1.128 2.926-1.244 4.49-.115 1.564.08 3.135.574 4.624z" fill="#d3e8ef"/><path d="m152.366 115.689c-.084-.717-.237-1.426-.457-2.114-.488-1.489-1.266-2.866-2.287-4.054s-2.267-2.163-3.666-2.869c-1.398-.706-2.923-1.129-4.485-1.246-1.562-.116-3.132.077-4.62.569-1.84.635-3.515 1.675-4.9 3.043.095.717.253 1.424.471 2.114.993 3.002 3.135 5.488 5.958 6.913s6.095 1.672 9.1.687c1.866-.57 3.551-1.619 4.886-3.043z" fill="#fff"/><path d="m124.165 125.533c-.845-2.556-.913-5.305-.194-7.899.718-2.594 2.19-4.916 4.229-6.673 2.04-1.757 4.554-2.87 7.226-3.197s5.38.147 7.783 1.36 4.391 3.112 5.714 5.456c1.323 2.345 1.92 5.029 1.717 7.713-.204 2.684-1.199 5.247-2.86 7.365s-3.914 3.695-6.472 4.532c-1.694.561-3.482.781-5.261.649s-3.515-.614-5.108-1.418c-1.593-.805-3.011-1.916-4.173-3.269-1.163-1.354-2.047-2.923-2.601-4.619z" fill="#7f3e13"/><path d="m126.936 124.676c-.666-2.012-.721-4.176-.158-6.219s1.72-3.872 3.323-5.258 3.582-2.265 5.684-2.526c2.103-.262 4.236.106 6.13 1.057s3.463 2.442 4.51 4.285c1.046 1.843 1.523 3.954 1.369 6.068-.154 2.113-.931 4.134-2.233 5.806-1.301 1.672-3.07 2.92-5.081 3.587-2.698.891-5.639.675-8.178-.6s-4.469-3.505-5.366-6.2z" fill="#b85a1b"/><path d="m126.479 119.59c.316-1.954 1.159-3.784 2.438-5.294 1.279-1.511 2.945-2.644 4.819-3.278 1.341-.442 2.755-.615 4.163-.51 1.407.106 2.78.488 4.039 1.125 1.26.637 2.381 1.517 3.3 2.588s1.618 2.313 2.056 3.654c.279.858.456 1.745.529 2.643-3.225 2.042-6.997 3.048-10.811 2.882-3.813-.166-7.484-1.496-10.519-3.81z" fill="#e1762f"/><path d="m77.0623 38c2.6766.0822 5.2125 1.2181 7.0559 3.1605s2.8452 4.5342 2.7874 7.2114c.038 1.3282-.1868 2.6508-.6614 3.8919-.4747 1.241-1.19 2.376-2.1046 3.3398-.9147.9638-2.0108 1.7374-3.2254 2.2763-1.2145.5389-2.5236.8325-3.8519.864-2.6653-.097-5.1852-1.2398-7.0141-3.181s-2.8197-4.5246-2.7578-7.191c-.0619-2.6663.9289-5.2497 2.7578-7.191 1.8289-1.9412 4.3488-3.084 7.0141-3.1809z" fill="#7f3e13"/><path d="m77.0623 40.8573c-1.91.089-3.7078.9283-5.0025 2.3354-1.2948 1.4071-1.9819 3.2684-1.9121 5.1792-.0659 1.9161.6259 3.7809 1.9256 5.1902 1.2997 1.4094 3.1025 2.2497 5.0176 2.3388 1.9165-.0817 3.7223-.9203 5.0213-2.3317 1.299-1.4115 1.985-3.2806 1.9076-5.1973.0546-1.9139-.6434-3.773-1.9443-5.178-1.3008-1.405-3.1007-2.2439-5.0132-2.3366z" fill="#b85a1b"/><path d="m77.0623 43.7146c-.5771.0433-1.1401.2001-1.6566.4614-.5164.2613-.9763.6219-1.3532 1.0611-.3769.4393-.6634.9486-.8432 1.4988-.1797.5502-.2492 1.1304-.2043 1.7075-.056 1.1598.34 2.2962 1.1047 3.1701s1.8384 1.4173 2.9955 1.5158c1.1566-.0877 2.2313-.63 2.989-1.5082s1.1367-2.0208 1.054-3.1777c.0714-1.1657-.3162-2.313-1.0797-3.1967s-1.8425-1.4336-3.0062-1.5321z" fill="#63300f"/><path d="m118.807 38c2.689.0637 5.243 1.1915 7.102 3.1359s2.87 4.5467 2.813 7.236c.072 1.3373-.129 2.6752-.591 3.9321-.462 1.257-1.176 2.4066-2.097 3.3787s-2.031 1.7463-3.261 2.2754-2.555.802-3.894.802c-1.34 0-2.665-.2729-3.895-.802s-2.34-1.3033-3.261-2.2754-1.634-2.1217-2.097-3.3787c-.462-1.2569-.663-2.5948-.591-3.9321-.058-2.6653.934-5.2466 2.762-7.187s4.346-3.0843 7.01-3.1849z" fill="#7f3e13"/><path d="m118.807 40.8573c-1.916.0817-3.722.9202-5.021 2.3317s-1.985 3.2806-1.908 5.1972c-.075.9567.049 1.9186.363 2.8253s.813 1.7385 1.464 2.4432c.652.7047 1.442 1.267 2.321 1.6515.879.3846 1.829.5831 2.788.5831.96 0 1.909-.1985 2.789-.5831.879-.3845 1.669-.9468 2.32-1.6515.652-.7047 1.15-1.5365 1.465-2.4432.314-.9067.438-1.8686.362-2.8253.055-1.913-.64-3.7716-1.938-5.1785-1.297-1.4069-3.094-2.2505-5.005-2.3504z" fill="#b85a1b"/><path d="m118.807 43.7146c-.578.038-1.143.19-1.663.4471-.519.2571-.983.6143-1.363 1.051-.381.4367-.672.9444-.857 1.494-.184.5495-.258 1.13-.217 1.7081-.056 1.1599.34 2.2962 1.105 3.1702.764.8739 1.838 1.4172 2.995 1.5157.578-.0363 1.143-.1865 1.662-.4421s.983-.6114 1.364-1.047.672-.9424.857-1.491c.184-.5487.258-1.1284.217-1.7058.06-1.1623-.334-2.3023-1.099-3.1793-.765-.8771-1.841-1.4224-3.001-1.5209z" fill="#4f2800"/><path d="m134.437 75.2589h-.186v-19.4152c0-5.8431-13.715-9.129-29.216-9.9005.011-.4052-.057-.8087-.202-1.1874s-.362-.7252-.641-1.0197-.613-.5313-.983-.6967c-.37-.1655-.769-.2565-1.174-.2677-.405-.0113-.809.0574-1.187.2021-.379.1446-.726.3625-1.0201.6411-.5948.5626-.9417 1.3385-.9645 2.1569h-1.8143c-.0707-.7858-.4383-1.5151-1.028-2.0392-.5896-.5242-1.3569-.8039-2.1456-.782-.7887.0218-1.5393.3435-2.099.8996-.5597.556-.8864 1.3046-.9134 2.093-15.4865.7429-29.2014 4.0288-29.2014 9.8291v19.3724h-.2001c-1.3664.5171-2.5414 1.4408-3.3666 2.6466-.8251 1.2058-1.2606 2.6355-1.2479 4.0965v14.2007l41.0877 13.3435 41.0882-13.5435v-13.8864c.014-1.4576-.417-2.8849-1.237-4.0903-.819-1.2054-1.988-2.1311-3.349-2.6529z" fill="#7f3e13"/><path d="m64.9618 56.5723v20.8725l-1.7144.6571c-.9178.3345-1.7091.9457-2.2644 1.7493-.5554.8036-.8474 1.7599-.8358 2.7367v14.6721l37.8447 12.172 37.8731-12.4434v-14.4007c.01-.9686-.276-1.9172-.82-2.7188s-1.319-1.4181-2.223-1.7672l-1.714-.6571v-20.8725c-.072-9.9004-66.0034-9.9004-66.0748 0z" fill="#b85a1b"/><path d="m64.9618 56.5723v20.8725l-1.7144.6571c-.9178.3345-1.7091.9457-2.2644 1.7493-.5554.8036-.8474 1.7599-.8358 2.7367v14.6721l37.8447 12.172v-7.943c-13.072.071-26.1584-8.5721-22.7154-25.5014h22.7154v-26.8156c-16.5151 0-33.0301 2.5001-33.0301 7.4003z" fill="#e1762f"/><path d="m73.4907 71.5588h49.0883c6.929 36.8592-56.6172 36.6022-49.0883 0z" fill="#e5895b"/><path d="m75.8623 74.4732c-.6572 5.7146.5286 11.1577 4.7574 15.4579 4.5002 4.4859 11.2291 6.4003 17.4437 6.3431 6.2146-.0571 12.3576-1.9143 16.7866-6.1431 2.045-2.0239 3.583-4.5022 4.489-7.233s1.155-5.637.725-8.4821z" fill="#e5895b"/><path d="m106.192 91.6454c3.3 4.286 12.944 2.5144 10.001-6.5431z" fill="#fad395"/><path d="m103.149 90.7168c3.7 4.7574 15.715 1.9144 12.958-8.3861z" fill="#4f2800"/><path d="m114.25 82.7879c.367-.086.754-.023 1.075.1751.321.198.551.5152.639.8821.117.1887.188.4021.208.6232.021.2211-.011.4438-.092.6505s-.209.3916-.374.5402c-.165.1485-.363.2566-.577.3156s-.439.0673-.656.0243c-.218-.0431-.423-.1363-.598-.2722-.176-.136-.317-.311-.413-.5111-.096-.2002-.144-.42-.141-.6419-.112-.36-.077-.7497.097-1.0842.174-.3346.473-.5867.832-.7016zm-7.858 5.4859c.368-.0859.754-.0229 1.075.1751.322.1981.551.5152.64.8821.112.36.077.7497-.097 1.0842-.174.3346-.473.5868-.832.7016-.367.086-.754.023-1.075-.1751-.321-.198-.551-.5151-.639-.8821-.112-.3599-.078-.7496.096-1.0842.174-.3345.473-.5867.832-.7016z" fill="#fff"/><path d="m111.207 92.5741c1.411-.4141 2.666-1.2383 3.607-2.3677.942-1.1295 1.526-2.5133 1.679-3.9755-2.115-.3286-5.815 2.8573-5.286 6.3432z" fill="#ad6151"/><path d="m78.5053 71.5588h38.9157c5.544 26.3584-44.8589 26.1012-38.9157 0z" fill="#fad395"/><path d="m97.9347 86.5738c.247-1.5818.88-3.0784 1.843-4.3574 4.7003-.7286 8.7293-4.2859 7.4713-10.6433-2.974-1.0445-6.104-1.5806-9.2571-1.5858l-1.9144 6.0145z" fill="#4f2800"/><path d="m97.9348 86.5738c-.2524-1.5828-.8902-3.0792-1.8572-4.3574-4.686-.7286-8.7148-4.2859-7.4575-10.6433 2.9703-1.0432 6.095-1.5793 9.2433-1.5858z" fill="#63300f"/><path d="m91.063 72.4874c4.5234-1.189 9.277-1.189 13.801 0 1.928 4.8145-15.9154 4.7573-13.801 0z" fill="#ad6151"/><path d="m90.5344 59.0724c1.0354-.0028 2.0483.3018 2.9104.8753.862.5735 1.5344 1.3899 1.932 2.346.3975.956.5023 2.0085.301 3.0241-.2013 1.0157-.6996 1.9487-1.4318 2.6808-.7321.7321-1.6651 1.2304-2.6807 1.4317s-2.0681.0965-3.0242-.301c-.956-.3975-1.7725-1.0699-2.3459-1.932-.5735-.862-.8781-1.875-.8753-2.9103.0038-1.3818.5544-2.706 1.5315-3.6831s2.3012-1.5277 3.683-1.5315z" fill="#fff"/><path d="m90.9344 60.9297c.772 0 1.5266.2291 2.1683.6583s1.1416 1.0392 1.4364 1.7527c.2947.7135.3711 1.4984.2195 2.2553-.1517.757-.5245 1.4519-1.0714 1.9968s-1.2432.9152-2.0007 1.0641c-.7575.1488-1.5421.0695-2.2546-.2278-.7124-.2974-1.3205-.7996-1.7473-1.4428-.4269-.6433-.6532-1.3987-.6504-2.1707-.0038-.5126.0946-1.0208.2894-1.4949s.4822-.9047.8453-1.2665.7947-.6476 1.2696-.8406c.4748-.1931.9834-.2896 1.4959-.2839z" fill="#1b1d23"/><path d="m105.464 59.0724c-1.036-.0028-2.049.3018-2.911.8753s-1.534 1.3899-1.932 2.346c-.397.956-.502 2.0085-.301 3.0241.202 1.0157.7 1.9487 1.432 2.6808s1.665 1.2304 2.681 1.4317c1.015.2013 2.068.0965 3.024-.301s1.772-1.0699 2.346-1.932c.573-.862.878-1.875.875-2.9103-.004-1.3818-.554-2.706-1.531-3.6831s-2.302-1.5277-3.683-1.5315z" fill="#fff"/><path d="m105.135 60.9297c-.772 0-1.526.2291-2.168.6583s-1.142 1.0392-1.437 1.7527c-.294.7135-.371 1.4984-.219 2.2553.152.757.525 1.4519 1.071 1.9968.547.5449 1.244.9152 2.001 1.0641.758.1488 1.542.0696 2.255-.2278.712-.2974 1.32-.7995 1.747-1.4428s.653-1.3987.65-2.1707c-.015-1.0285-.431-2.0104-1.159-2.7364-.729-.7259-1.712-1.1384-2.741-1.1495z" fill="#1b1d23"/><path d="m94.306 57.4295c-1.8326-.4122-3.7291-.4552-5.5785-.1266-1.8495.3287-3.615 1.0225-5.1934 2.041-1.1286-6.4146 9.6433-8.329 10.7719-1.9144z" fill="#63300f"/><path d="m100.635 54.1865c1.833-.4122 3.729-.4553 5.578-.1266 1.85.3287 3.615 1.0225 5.194 2.041 1.128-6.4146-9.572-8.2576-10.772-1.9144z" fill="#4f2800"/><path d="m138.965 95.9314v40.0016c0 1.303-.515 2.552-1.433 3.475-.918.924-2.165 1.447-3.467 1.454h-72.4034c-1.2935-.007-2.5319-.525-3.4466-1.439-.9146-.915-1.4318-2.153-1.4393-3.447v-39.6446l41.0877 9.8436z" fill="#7eaaba"/><path d="m135.722 100.103-37.7872 9.329-37.7876-9v34.716c-.0058.322.0534.642.1742.941.1207.299.3004.571.5284.799s.4997.408.7987.528c.299.121.6193.18.9417.175h70.7458c.33.017.66-.033.969-.149.309-.115.591-.293.828-.522s.425-.505.551-.81.188-.633.181-.962v-35.045z" fill="#d3e8ef"/><path d="m97.9348 109.432-37.7876-9v34.716c-.0058.323.0538.645.1754.945s.3026.572.5322.8c.2295.228.5029.408.8036.528.3007.119.6225.177.9461.17h35.3874v-28.159z" fill="#fff"/><path d="m97.9919 128.004h31.6591v4.286h-31.6448v-4.286zm0-8.786h31.6591v4.286h-31.6448v-4.286z" fill="#036aab"/><path d="m97.992 132.29v-4.286h-31.773v4.286zm-31.773-13.029h31.773v4.286h-31.773z" fill="#0399ed"/><path d="m79.1052 116.49h3.9574v19.415h-3.9574z" fill="#fff"/><path d="m67.9333 98.9172c10.0005 2.3718 20.001 4.8148 30.0015 7.1428l-10.6434 10.158c-6.9432-4.1-13.8149-8.572-19.3009-17.3008" fill="#7eaaba"/><path d="m76.3909 104.332c3.1352 2.998 6.6172 5.612 10.3719 7.786l4.5002-4.286c-4.8859-1.129-9.9147-2.386-14.8721-3.5z" fill="#fff"/><path d="m127.922 98.9172c-10 2.3718-20.001 4.8148-30.0015 7.1428l10.7005 10.101c6.943-4.1 13.801-8.572 19.287-17.3009" fill="#7eaaba"/><path d="m119.464 104.332c-3.129 3.005-6.612 5.619-10.372 7.786l-4.485-4.286c4.957-1.129 9.914-2.386 14.857-3.5z" fill="#fff"/></g></svg>