<svg fill="none" height="147" viewBox="0 0 365 147" width="365" xmlns="http://www.w3.org/2000/svg" xmlns:xlink="http://www.w3.org/1999/xlink"><linearGradient id="a" gradientUnits="userSpaceOnUse" x1="96" x2="191.5" y1="9" y2="147"><stop offset="0" stop-color="#52d4c4"/><stop offset="1" stop-color="#36a7bc"/></linearGradient><rect fill="url(#a)" height="147" rx="20" width="365"/><g clip-rule="evenodd" fill-rule="evenodd"><path d="m283.843 75.6275c0-3.4139-2.012-6.2181-5.609-6.2181-4.023 0-5.73 3.3529-6.035 6.2181zm2.682 12.4361c-1.585.5487-3.353 1.4631-7.072 1.4631-7.925 0-11.582-4.816-11.582-12.1313 0-6.6448 4.145-11.3389 10.485-11.3389 7.437 0 9.876 5.4256 9.876 12.68h-15.972c0 4.4502 3.475 7.4983 7.376 7.4983 2.743 0 5.914-1.4021 6.889-2.2556zm33.163-1.9507c-1.89 0-3.475-1.4022-3.475-4.0235v-12.2533h5.913v-3.3529h-5.913v-6.0351c-2.073.1219-3.658 1.585-4.145 3.5357v2.4994h-5.06v3.3529h5.06v13.1068c0 4.5111 2.621 6.5228 6.888 6.5228 1.342 0 2.622-.3657 3.536-.6096v-3.5357c-.609.3657-1.524.7925-2.804.7925zm-54.987-20.1173c-2.378 0-4.755 1.6459-5.853 4.0234l-.061-3.3529c-2.133.3048-3.718 2.0118-3.84 4.1454v18.1056h4.145v-10.1806c0-5.6084 2.439-9.1442 6.096-9.1442.671 0 1.524.0609 2.256.3657v-3.7186c-.915-.1219-1.524-.2438-2.743-.2438zm73.032 14.204c0 3.3529-2.134 5.9133-6.218 5.9133-1.89 0-4.207-1.2802-4.207-3.6577 0-3.9625 5.548-4.3283 7.803-4.3283.915 0 1.768.061 2.622.061zm4.267 8.7175c-.061-.6706-.183-1.8289-.183-4.3892v-9.2662c0-6.0961-2.621-9.2661-9.022-9.2661-.61 0-1.22.0609-1.829.1219-2.256.3048-3.963 2.1336-3.963 4.4502 1.646-.6706 3.292-1.2802 5.121-1.2802 4.146 0 5.548 1.9507 5.548 5.8523-1.646-.061-2.744-.061-4.39-.061-4.267 0-10.424 1.7679-10.424 7.3764 0 4.8769 3.414 7.0105 8.23 7.0105 3.779 0 5.974-2.0726 6.949-3.4138l.061 2.9262h3.902zm-94.978-18.1056v18.1056h4.145v-22.3119c-2.255.1829-4.023 1.9507-4.145 4.2063zm3.779-10.2415c0 1.0363-.853 1.8898-1.889 1.8898-1.037 0-1.89-.8535-1.89-1.8898 0-1.0364.853-1.8898 1.89-1.8898 1.036-.061 1.889.7925 1.889 1.8898zm-22.677 24.5675h-4.511v-22.4948h5.059c6.218 0 10.973 4.1454 10.973 11.1559 0 7.8031-4.145 11.3389-11.521 11.3389zm.061-26.2744h-4.755c-2.195.1219-3.963 1.8898-4.085 4.1453v25.9087h8.901c9.875 0 16.033-5.1817 16.033-15.2404-.061-9.2661-7.194-14.8136-16.094-14.8136zm77.36 26.1525c-1.219.6705-2.743 1.0363-3.963 1.0363-5.303 0-7.498-4.3892-7.498-8.4127 0-4.2673 2.56-8.4127 7.194-8.4127 1.219 0 2.743.3048 4.267.9144v-3.5357c-1.219-.3658-2.987-.6706-4.389-.6706-6.828 0-11.4 4.9379-11.4 11.7046 0 6.401 4.694 11.7046 11.4 11.7046 1.28 0 2.865-.1829 4.389-.7315z" fill="#fff"/><path d="m123.331 80.1994c0 3.3529-2.134 5.9132-6.218 5.9132-1.89 0-4.207-1.2801-4.207-3.6576 0-3.9625 5.548-4.3283 7.804-4.3283.914 0 1.767.0609 2.621.0609zm4.267 8.7175c-.061-.6706-.183-1.8289-.183-4.3893v-9.2661c0-6.0962-2.621-9.2662-9.022-9.2662-.61 0-1.219.061-1.829.122-2.255.3048-3.962 2.1336-3.962 4.4502 1.646-.6706 3.292-1.2802 5.12-1.2802 4.146 0 5.548 1.9507 5.548 5.8523-1.646-.061-2.743-.061-4.389-.061-4.268 0-10.425 1.7679-10.425 7.3764 0 4.8769 3.414 7.0105 8.23 7.0105 3.78 0 5.974-2.0727 6.95-3.4138l.061 2.9261h3.901zm32.005-2.8043c-1.89 0-3.475-1.4021-3.475-4.0234v-12.2533h5.913v-3.3529h-5.913v-6.0352c-2.073.122-3.658 1.585-4.145 3.5358v2.4994h-5.06v3.3529h5.06v13.1067c0 4.5112 2.621 6.5229 6.888 6.5229 1.342 0 2.622-.3657 3.536-.6096v-3.5358c-.609.3658-1.524.7925-2.804.7925zm-14.082-1.0973c-1.219.6706-2.743 1.0364-3.963 1.0364-5.303 0-7.498-4.3892-7.498-8.4127 0-4.2673 2.56-8.4127 7.194-8.4127 1.219 0 2.743.3048 4.267.9144v-3.5357c-1.219-.3658-2.987-.6706-4.389-.6706-6.828 0-11.4 4.9379-11.4 11.7046 0 6.401 4.694 11.7046 11.4 11.7046 1.28 0 2.865-.1829 4.389-.7315zm51.147-19.02c-2.378 0-4.755 1.646-5.853 4.0235l-.061-3.3529c-2.133.3048-3.718 2.0117-3.84 4.1454v18.1056h4.145v-10.1806c0-5.6085 2.439-9.1442 6.096-9.1442.671 0 1.524.0609 2.256.3657v-3.7186c-.915-.1219-1.524-.2439-2.743-.2439zm15.301 14.2041c0 3.3529-2.134 5.9132-6.218 5.9132-1.89 0-4.207-1.2801-4.207-3.6576 0-3.9625 5.548-4.3283 7.804-4.3283.914 0 1.767.0609 2.621.0609zm4.267 8.7175c-.061-.6706-.183-1.8289-.183-4.3893v-9.2661c0-6.0962-2.621-9.2662-9.022-9.2662-.61 0-1.219.061-1.829.122-2.255.3048-3.962 2.1336-3.962 4.4502 1.646-.6706 3.292-1.2802 5.12-1.2802 4.146 0 5.548 1.9507 5.548 5.8523-1.646-.061-2.743-.061-4.389-.061-4.268 0-10.425 1.7679-10.425 7.3764 0 4.8769 3.414 7.0105 8.23 7.0105 3.78 0 5.974-2.0727 6.95-3.4138l.061 2.9261h3.901zm-32.858 0h-4.206l-.122-3.7796c-.793 1.4021-1.768 2.4994-2.987 3.2309-1.22.7316-2.622 1.0973-4.268 1.0973-2.743-.0609-4.694-.8534-5.852-2.4384s-1.707-3.7187-1.646-6.34v-9.571c.122-2.4385 2.073-4.3892 4.45-4.5721v13.1677c-.061 1.6459.183 3.0481.793 4.2673.548 1.2192 1.768 1.8288 3.657 1.8898 1.402 0 2.439-.3658 3.231-1.0973.793-.6706 1.341-1.585 1.707-2.6823.305-1.0973.488-2.2556.488-3.4139v-12.1923h4.45v17.2521c0 .8535 0 1.707.061 2.5604.061.9145.122 1.7679.244 2.6214zm-73.093-26.3964h-11.9484v9.4491h11.4604v3.5357h-11.4604v13.3506h-4.8769v-25.9086c.1219-2.2556 1.8898-4.0235 4.0844-4.1454h12.7409z" fill="#fff"/><path d="m41.4598 88.7948v-27.3108c.061-1.4631 1.2193-2.6214 2.6823-2.7433h10.2416l10.5463 10.7902v19.2639z" fill="#3f5484"/><path d="m62.2475 71.36v14.8746h-18.1055v-23.5312c0-.7315.6096-1.3411 1.3411-1.3411h6.7668v9.9367h9.8757z" fill="#fff"/><path d="m46.8241 81.053h12.741v2.5604h-12.741zm0-5.1207h12.741v2.5603h-12.741z" fill="#3f5484"/><path d="m27.6213 74.1642c0-14.143 11.4608-25.6038 25.6039-25.6038s25.6038 11.4608 25.6038 25.6038c0 14.1431-11.4607 25.6039-25.6038 25.6039s-25.6039-11.4608-25.6039-25.6039zm-2.6213 0c0-15.5452 12.619-28.1642 28.1642-28.1642s28.1643 12.619 28.1643 28.1642-12.6191 28.1638-28.1643 28.1638-28.1642-12.6186-28.1642-28.1638z" fill="#0c65af"/></g></svg>