<svg fill="none" height="147" viewBox="0 0 365 147" width="365" xmlns="http://www.w3.org/2000/svg" xmlns:xlink="http://www.w3.org/1999/xlink"><linearGradient id="a" gradientUnits="userSpaceOnUse" x1="96" x2="276" y1="9.00001" y2="205.5"><stop offset="0" stop-color="#a3498a"/><stop offset="1" stop-color="#bb7aaa"/></linearGradient><rect fill="url(#a)" height="147" rx="20" width="365"/><g clip-rule="evenodd" fill="#fff" fill-rule="evenodd"><path d="m263.251 107.733c5.088.005 10.063-1.5 14.296-4.323 4.233-2.822 7.534-6.8372 9.486-11.5362 1.951-4.6989 2.465-9.871 1.477-14.8622s-3.434-9.5774-7.028-13.1785c-3.595-3.6011-8.176-6.0554-13.166-7.0527-4.989-.9972-10.162-.4925-14.865 1.4503-4.702 1.9428-8.723 5.2364-11.554 9.4644-2.83 4.2279-4.344 9.2004-4.348 14.2884-.003 3.3783.659 6.7242 1.949 9.8466s3.182 5.9601 5.569 8.3509c2.387 2.391 5.221 4.289 8.341 5.585 3.12 1.295 6.464 1.964 9.843 1.967zm0-10.5555c3 .0047 5.935-.8805 8.432-2.5435 2.497-1.6631 4.445-4.0293 5.598-6.7995 1.152-2.7702 1.458-5.82.877-8.7637s-2.022-5.649-4.14-7.7739-4.819-3.574-7.761-4.1639c-2.942-.59-5.992-.2943-8.766.8496s-5.146 3.0846-6.817 5.5767c-1.671 2.4922-2.565 5.4238-2.57 8.4242-.003 1.9922.386 3.9655 1.146 5.8072.759 1.8418 1.874 3.5159 3.281 4.9268 1.406 1.4109 3.077 2.5309 4.916 3.2962 1.839.7652 3.812 1.1607 5.804 1.1638z"/><path d="m208.747 107.733c5.088.005 10.063-1.5 14.296-4.323 4.233-2.822 7.535-6.8372 9.486-11.5362 1.951-4.6989 2.466-9.871 1.478-14.8622s-3.434-9.5774-7.029-13.1785c-3.594-3.6011-8.176-6.0554-13.165-7.0527-4.99-.9972-10.163-.4925-14.865 1.4503-4.703 1.9428-8.724 5.2364-11.554 9.4644-2.831 4.2279-4.344 9.2004-4.349 14.2884 0 6.8147 2.704 13.3509 7.518 18.1745 4.814 4.823 11.346 7.539 18.16 7.551zm0-10.5555c3 .0047 5.935-.8805 8.432-2.5435 2.497-1.6631 4.446-4.0293 5.598-6.7995 1.153-2.7702 1.458-5.82.877-8.7637s-2.021-5.649-4.14-7.7739c-2.118-2.1249-4.819-3.574-7.761-4.1639-2.941-.59-5.992-.2943-8.766.8496s-5.146 3.0846-6.817 5.5767c-1.671 2.4922-2.565 5.4238-2.57 8.4242-.003 1.9922.386 3.9655 1.146 5.8072.759 1.8418 1.874 3.5159 3.281 4.9268 1.406 1.4109 3.077 2.5309 4.916 3.2962 1.84.7652 3.812 1.1607 5.804 1.1638z"/><path d="m180.725 81.819v.1894c0 5.7929-1.957 11.4159-5.553 15.9571-3.597 4.5415-8.622 7.7345-14.261 9.0615s-11.561.71-16.805-1.751c-5.244-2.46-9.504-6.6204-12.087-11.8053-2.584-5.185-3.34-11.0906-2.146-16.7592s4.268-10.7676 8.723-14.4702c4.455-3.7025 10.03-5.7914 15.822-5.9279 5.791-.1365 11.459 1.6874 16.083 5.1759v-16.3773c0-1.3558.539-2.656 1.498-3.6147.958-.9587 2.259-1.4973 3.614-1.4973 1.356 0 2.656.5386 3.615 1.4973s1.497 2.2589 1.497 3.6147zm-25.725 15.3597c3 .014 5.937-.862 8.44-2.5173 2.502-1.6552 4.458-4.0154 5.619-6.782s1.476-5.8154.904-8.7608c-.572-2.9455-2.004-5.6553-4.115-7.7868-2.112-2.1315-4.808-3.589-7.748-4.1881s-5.992-.313-8.769.8222c-2.778 1.1352-5.156 3.0685-6.835 5.5554-1.678 2.4869-2.582 5.4157-2.596 8.4161-.009 1.9922.374 3.9667 1.128 5.8108.754 1.8442 1.863 3.5218 3.265 4.937 1.402 1.4153 3.07 2.5406 4.907 3.3116s3.807 1.1726 5.8 1.1819z"/><path d="m101.726 107.687c5.088 0 10.062-1.509 14.292-4.336 4.231-2.827 7.528-6.8444 9.475-11.5452 1.947-4.7007 2.457-9.8733 1.464-14.8636s-3.443-9.5742-7.041-13.172c-3.597-3.5978-8.181-6.0479-13.171-7.0405-4.991-.9927-10.1634-.4832-14.8641 1.4639-4.7008 1.9471-8.7186 5.2445-11.5453 9.475-2.8268 4.2306-4.3356 9.2044-4.3356 14.2924 0 6.8229 2.7104 13.3663 7.5349 18.191 4.8245 4.824 11.3679 7.535 18.1911 7.535zm-.237-10.461c3.004 0 5.941-.8922 8.438-2.5633 2.497-1.6712 4.441-4.0461 5.586-6.8236 1.146-2.7776 1.441-5.8327.848-8.778-.594-2.9453-2.048-5.6482-4.179-7.766s-4.843-3.5551-7.792-4.1297-6.002-.2606-8.7723.9021-5.133 3.1219-6.7885 5.629c-1.6555 2.5072-2.5293 5.4495-2.5105 8.4539.025 4.007 1.6343 7.8413 4.4766 10.6659 2.8423 2.8245 6.6866 4.4098 10.6937 4.4097z"/></g></svg>