<svg fill="none" height="147" viewBox="0 0 365 147" width="365" xmlns="http://www.w3.org/2000/svg" xmlns:xlink="http://www.w3.org/1999/xlink"><linearGradient id="a" gradientUnits="userSpaceOnUse" x1="96" x2="276" y1="9.00001" y2="205.5"><stop offset="0" stop-color="#017737"/><stop offset="1" stop-color="#58af80"/></linearGradient><rect fill="url(#a)" height="147" rx="20" width="365"/><g fill="#fff"><path d="m85.3858 58.3619c-4.5501 0-7.1884 2.0648-8.4502 3.4413-.153-1.2236-.9559-2.7913-4.0913-2.7913h-6.8443v7.112h2.7912c.4589 0 .6118.1529.6118.6117v32.5391h8.1061v-12.1591-.9177c1.2618 1.1471 3.6707 2.753 7.4561 2.753 7.9149 0 13.4591-6.2707 13.4591-15.2945.0383-9.1385-5.2383-15.2945-13.0385-15.2945zm-1.6442 23.5153c-4.3589 0-6.3472-4.1678-6.3472-8.0679 0-6.1178 3.3266-8.2972 6.4619-8.2972 3.8237 0 6.4237 3.2883 6.4237 8.2208-.0382 5.6589-3.3265 8.1443-6.5384 8.1443z"/><path d="m109.36 80.6156v-17.2445c0-2.906-1.415-4.3207-4.283-4.3207h-7.2645v7.1119h2.7915c.459 0 .612.153.612.6118v17.1681c0 2.9442 1.376 4.3207 4.282 4.3207h7.265v-7.0737h-2.791c-.421.0382-.612-.153-.612-.5736z"/><path d="m130.543 58.3619c-4.55 0-7.188 2.0648-8.488 3.4413-.153-1.2236-.956-2.7913-4.092-2.7913h-6.806v7.112h2.791c.459 0 .612.1529.612.6117v32.5391h8.183v-12.1591-.9177c1.262 1.1471 3.709 2.753 7.456 2.753 7.915 0 13.459-6.2707 13.459-15.2945 0-9.1385-5.277-15.2945-13.115-15.2945zm-1.644 23.5153c-4.359 0-6.347-4.1678-6.347-8.0679 0-6.1178 3.326-8.2972 6.462-8.2972 3.823 0 6.423 3.2883 6.423 8.2208 0 5.6589-3.288 8.1443-6.538 8.1443z"/><path d="m158.914 58.3619c-8.756 0-14.836 6.309-14.836 15.2945 0 8.8708 6.577 15.2945 15.677 15.2945 7.15 0 11.509-4.2442 11.701-4.3972l.344-.3059-3.518-5.8501-.535.4971c-.039.0382-3.25 2.9824-7.495 2.9824-4.053 0-7.035-2.4854-7.762-6.3854h19.233l.038-.5354c0-.0764.192-1.7971.192-2.6383 0-8.3355-5.239-13.9562-13.039-13.9562zm-6.118 11.0885c.88-2.8677 3.097-4.5119 6.118-4.5119 2.447 0 4.321 1.8736 4.665 4.5119z"/><path d="m201.471 80.6155v-28.2566c0-2.9059-1.415-4.3207-4.321-4.3207h-7.265v7.112h2.792c.458 0 .611.1529.611.6118v5.1236c-1.185-1.0706-3.517-2.4853-7.57-2.4853-7.877 0-13.383 6.3089-13.383 15.2945 0 9.1384 5.276 15.2945 13.077 15.2945 4.473 0 7.073-2.0648 8.335-3.5178.153 1.2618.994 2.8677 4.015 2.8677h7.035v-7.0737h-2.714c-.459-.0382-.612-.2294-.612-.65zm-14.492 1.2618c-3.862 0-6.347-3.2118-6.347-8.2208 0-4.856 2.6-8.1061 6.462-8.1061 4.397 0 6.347 4.0531 6.347 8.0679 0 6.1178-3.326 8.259-6.462 8.259z"/><path d="m222.883 58.6297c-3.364 0-6.5 1.95-8.335 5.0472v-.6501c0-2.6383-1.453-4.0148-4.321-4.0148h-6.959v7.112h2.791c.459 0 .612.1529.612.6118v21.527h8.106v-11.7003c0-1.5295.191-3.0207.574-4.3972 1.223-4.053 4.473-5.4678 7.074-5.4678.917 0 1.605.1147 1.605.1147l.689.1147v-8.0678l-.497-.0765c0-.0382-.689-.1529-1.339-.1529z"/><path d="m236.266 80.6156v-17.2445c0-2.906-1.415-4.3207-4.283-4.3207h-6.576v7.1119h2.103c.459 0 .611.153.611.6118v17.1681c0 2.9442 1.377 4.3207 4.283 4.3207h7.265v-7.0737h-2.791c-.421.0382-.612-.153-.612-.5736z"/><path d="m266.893 59.0504h-4.32c-2.524 0-3.9.8794-4.703 3.0206l-5.277 14.7592c-.191.5354-.344 1.1471-.497 1.7589-.153-.5735-.344-1.2235-.535-1.7589l-5.277-14.7592c-.803-2.1794-2.103-3.0206-4.703-3.0206h-4.588v7.1119h1.185c.65 0 .841.2294.994.6118l8.183 21.527h9.138l8.183-21.527c.153-.3824.344-.6118.994-.6118h1.262v-7.1119z"/><path d="m280.888 58.3619c-8.756 0-14.836 6.309-14.836 15.2945 0 8.8708 6.577 15.2945 15.677 15.2945 7.15 0 11.509-4.2442 11.7-4.3972l.345-.3059-3.518-5.8501-.536.4971c-.038.0382-3.25 2.9824-7.456 2.9824-4.053 0-7.035-2.4854-7.762-6.3854h19.233l.039-.5354c0-.0764.152-1.7971.152-2.6383 0-8.3355-5.238-13.9562-13.038-13.9562zm-6.118 11.0885c.88-2.8677 3.097-4.5119 6.118-4.5119 2.447 0 4.321 1.8736 4.665 4.5119z"/><path d="m108.786 48h-7.226v7.609h7.226z"/><path d="m235.731 48h-7.227v7.609h7.227z"/><path d="m293.773 59.0502h1.071v2.9059h.803v-2.9059h1.071v-.6883h-2.945z"/><path d="m299.891 58.3619-.803 2.4854-.841-2.4854h-1.109v3.5942h.727v-2.5236h.038l.879 2.5236h.612l.879-2.5236v2.5236h.727v-3.5942z"/></g></svg>