<svg fill="none" height="147" viewBox="0 0 365 147" width="365" xmlns="http://www.w3.org/2000/svg" xmlns:xlink="http://www.w3.org/1999/xlink"><linearGradient id="a" gradientUnits="userSpaceOnUse" x1="96" x2="276" y1="9.00001" y2="205.5"><stop offset="0" stop-color="#4173d9"/><stop offset="1" stop-color="#019cb6"/></linearGradient><rect fill="url(#a)" height="147" rx="20" width="365"/><g fill="#fff"><path d="m237.214 63.2811v-3.3509h6.01c.047.2892.078.5811.09.8741v24.6765c.124 3.5431-1.081 7.003-3.375 9.6884-2.268 2.3543-5.325 3.77-8.573 3.9701-4.827.6636-9.742-.0296-14.204-2.0032-.709-.352-1.396-.7473-2.058-1.1838-.274-.1923-.533-.4054-.776-.6374.903-1.5661 1.805-3.0959 2.581-4.4072 2.274.8742 4.404 1.8212 6.624 2.495 2.233.6335 4.581.7332 6.858.2914 4.278-.7831 6.407-3.3691 6.552-7.9766 0-.7102 0-1.4205 0-2.495-1.835 1.7961-4.118 3.0563-6.607 3.6464s-5.089.488-7.525-.2955c-3.085-.7595-5.783-2.6398-7.58-5.2813-1.488-2.0893-2.368-4.5567-2.54-7.1236s.371-5.1312 1.566-7.4037c1.196-2.2725 2.997-4.1626 5.2-5.4571 2.204-1.2945 4.722-1.942 7.271-1.8693 1.896-.1427 3.8.1428 5.573.8359 1.774.693 3.372 1.7762 4.678 3.1707zm-.217 9.9616c0-4.9899-3.519-8.3044-8.808-8.3226-5.288-.0182-8.933 3.3873-8.933 8.3773 0 4.9899 3.609 8.4136 8.915 8.4136 5.307 0 8.826-3.4055 8.826-8.4501z"/><path d="m277.588 76.211h-22.38c.165 1.1876.597 2.3212 1.263 3.3144.655 1.0036 1.532 1.8392 2.563 2.4404 1.966 1.0979 4.204 1.5996 6.445 1.4445s4.39-.9602 6.189-2.3186l.83-.6739 3.357 3.8609c-.451.4552-.83.9105-1.263 1.2929-5.848 5.0082-17.164 4.1705-22.2-1.6207-1.92-2.2484-3.139-5.02-3.502-7.9658-.363-2.9457.146-5.934 1.463-8.5885 2.87-5.7183 7.725-8.1222 13.951-7.9037 8.411.2914 14.096 6.9021 13.5 15.9714 0 .255-.108.4917-.18.7467zm-22.344-4.3161h16.37c-.153-2.0501-1.093-3.9587-2.62-5.3195-1.528-1.3607-3.521-2.0659-5.556-1.9651-2.033-.0871-4.021.6223-5.549 1.9799-1.527 1.3576-2.474 3.2583-2.645 5.3047z"/><path d="m141.684 59.8391h6.137c.307 0 .686.5099.848.8742 2.671 6.374 5.336 12.7601 7.995 19.1583l.686 1.5116c.686-1.5844 1.282-2.8774 1.805-4.1704 2.346-5.4634 4.711-10.9268 7.039-16.4813.077-.3069.263-.5746.522-.7525s.575-.2536.886-.2127h5.107c-.271.6374-.469 1.0926-.649 1.5661-3.61 8.6323-7.28 17.2766-11.01 25.9331-.091.3935-.33.7356-.667.9534s-.746.2939-1.138.2121c-1.364-.091-2.733-.091-4.097 0-.417.0783-.848-.0059-1.207-.2357-.358-.2298-.617-.588-.724-1.0026-3.086-7.3939-6.245-14.7695-9.385-22.1633z"/><path d="m194.746 82.7306c.47 1.1291.975 2.4039 1.408 3.6423.016.1869-.015.3748-.09.5463-.078.1666-.196.3107-.343.4189-1.019.4907-2.083.881-3.177 1.1656-2.005.4535-4.092.3845-6.064-.2004-1.689-.4129-3.193-1.382-4.275-2.754-1.081-1.372-1.679-3.0687-1.699-4.8219-.162-4.6804 0-9.3607 0-14.041 0-1.5298 0-1.5298-1.552-1.548-.956 0-1.895 0-2.833 0 0 0-.145 0-.343-.1456 0-1.4023 0-2.8775 0-4.3526 0-.2185.523-.5646.83-.5828.986-.0544 1.974-.0544 2.96 0 .686 0 .902-.2549.902-.947 0-1.5115 0-3.0413 0-4.571 0-.7649.163-1.1109.993-1.0927h4.44c.812 0 1.028.3096 1.01 1.0745v4.225c0 .9834.235 1.3476 1.264 1.3112 2.075-.091 4.151 0 6.335 0v5.1539c-2.094 0-4.169 0-6.245 0-.993 0-1.354.2185-1.354 1.3112v12.8937c-.074.5866-.008 1.1826.191 1.7388s.526 1.0567.954 1.4604.945.699 1.509.8615c.563.1625 1.157.1876 1.732.0733 1.163-.2092 2.314-.4828 3.447-.8196z"/><path d="m287.857 59.839v3.879l.216.2185c1.177-1.4942 2.694-2.6788 4.422-3.4526 1.729-.7738 3.618-1.1138 5.505-.9909v6.0098c-.985-.0729-1.975-.0729-2.96 0-1.837.1683-3.544 1.0243-4.787 2.3994-1.243 1.3752-1.93 3.1699-1.927 5.0308-.199 4.6257 0 9.2696-.126 13.9135v1.5298h-6.371c0-.3825 0-.7831 0-1.1838 0-8.705 0-17.3919 0-26.1333 0-1.0199.288-1.3113 1.281-1.2749 1.498.1093 3.068.0547 4.747.0547z"/><path d="m200.936 88.4857v-28.6283h5.848c.181 0 .397.346.505.5828.046.2223.046.4515 0 .6738v26.0059c0 1.0016-.198 1.4387-1.299 1.3841-1.606-.0911-3.285-.0183-5.054-.0183z"/><path d="m204.167 47.0182c1.048-.0496 2.072.3208 2.85 1.0305.777.7097 1.245 1.7009 1.301 2.7575-.002.5429-.106 1.0805-.307 1.5843-.21.4984-.516.9497-.9 1.3279s-.839.6759-1.338.8757c-.504.2049-1.044.304-1.588.2914-.543.0528-1.092-.0096-1.61-.1832-.518-.1737-.994-.4547-1.399-.8251-.404-.3704-.727-.822-.948-1.3258s-.335-1.0487-.335-1.5996.114-1.0957.335-1.5995.544-.9553.948-1.3258c.405-.3704.881-.6514 1.399-.8251.518-.1736 1.067-.236 1.61-.1832z"/><path d="m122.066 83.496c-1.583-.1815-3.061-.8858-4.205-2.0033-.493-.6058-.812-1.3366-.921-2.1125-.613-2.7277-2.021-5.2077-4.043-7.1207-2.034-1.9145-4.583-3.1814-7.327-3.6423-1.998-.3617-4.05-.2747-6.0104.255-1.9554.5337-3.7722 1.4907-5.3241 2.8045-1.2634 1.0563-1.8049.9288-2.599-.5463-.8996-1.8275-2.3561-3.3159-4.1556-4.2467-1.7996-.9309-3.8475-1.2552-5.8431-.9253-1.9657.3564-3.7738 1.3179-5.1763 2.7526-1.4024 1.4347-2.3304 3.2723-2.6567 5.2604-.2021 1.3499-.1138 2.7278.259 4.0402.3729 1.3123 1.0215 2.5282 1.9017 3.565s1.9714 1.8701 3.1993 2.4433c1.228.5732 2.5638.8727 3.9168.8783 1.4906.0005 2.9653-.3094 4.3316-.9105 1.0649-.5464 1.6424-.255 1.8951 1.0016.4896 2.8078 1.803 5.4027 3.7704 7.4489 1.9675 2.0461 4.4982 3.4494 7.2643 4.0281 2.767.5787 5.642.3062 8.253-.7821 2.612-1.0884 4.839-2.9425 6.395-5.3226.487-.7648.83-1.038 1.805-.5463 1.169.5262 2.376.9645 3.609 1.3112-.992 1.3659-1.804 2.8046-2.833 3.9883-3.195 3.6933-7.685 5.9912-12.526 6.4102-3.909.364-7.8335-.503-11.2337-2.4829-3.4003-1.9796-6.1087-4.9741-7.7527-8.5712-.2166-.4917-.3429-.7831-1.0288-.692-3.6215.4503-7.2777-.4997-10.2333-2.6589-2.2327-1.6829-3.935-3.9819-4.9014-6.6195-.9665-2.6375-1.1559-5.5009-.5453-8.2446.6107-2.7437 1.9951-5.2505 3.9864-7.2179 1.9913-1.9673 4.5043-3.3111 7.2357-3.8692 2.2859-.4729 4.6526-.3643 6.8865.316 2.2339.6804 4.2648 1.9111 5.9097 3.5812.1786.2529.446.4277.7478.4886s.6153.0034.8765-.1608c3.3301-1.6899 7.0866-2.3297 10.7826-1.836 3.695.4937 7.157 2.0979 9.937 4.6041 2.06 1.7576 3.706 3.9553 4.821 6.4342 1.114 2.4788 1.668 5.1767 1.622 7.8982-.018.3824-.054.6374-.09 1.0017z"/><path d="m84.4171 67.4878c.8593.0497 1.7001.2726 2.4726.6556.7785.3922 1.4719.937 2.0395 1.6026.397.4553.3609 1.2748.5414 1.9122.6136 2.6531 1.9799 5.0683 3.9319 6.9506s4.405 3.1501 7.0595 3.6484c2.057.4693 4.195.4382 6.238-.0906s3.932-1.5401 5.511-2.9507c1.372-1.1109 1.697-1.0927 2.527.5099.913 1.8029 2.364 3.2705 4.149 4.1954 1.784.9249 3.812 1.2602 5.796.9585 1.285-.2131 2.514-.6903 3.609-1.4023 1.499-.8992 2.707-2.2169 3.479-3.7941.771-1.5771 1.074-3.3461.871-5.0931-.143-1.5474-.655-3.0371-1.491-4.3423-.836-1.3051-1.973-2.3873-3.312-3.1543-1.34-.7671-2.843-1.1964-4.382-1.2514-1.54-.055-3.069.2658-4.459.9353-1.21.5646-1.643.3278-1.932-1.0198-.481-2.6437-1.691-5.097-3.491-7.0783-1.8-1.9814-4.117-3.4106-6.685-4.1236-2.569-.713-5.284-.681-7.8353.0924-2.5512.7734-4.8345 2.2569-6.5881 4.2802-.6497.7831-1.2273 1.6026-1.8048 2.3857l-4.476-1.6208c.7779-1.2626 1.6276-2.4788 2.5448-3.6423 2.7507-3.3548 6.5848-5.6245 10.8289-6.4104 2.6915-.5528 5.4705-.4982 8.1375.1599 2.668.658 5.159 1.9032 7.294 3.6463 2.351 1.85 4.211 4.2588 5.414 7.0113.415.9106 1.065.7285 1.679.6557 2.389-.1873 4.787.2354 6.972 1.2292 2.185.9937 4.087 2.5266 5.53 4.4571 1.444 1.9306 2.382 4.1967 2.729 6.5895.347 2.3929.092 4.8354-.743 7.1023-.835 2.267-2.221 4.2855-4.032 5.8694s-3.989 2.6822-6.331 3.1937c-2.342.5116-4.775.4198-7.073-.2668s-4.388-1.9459-6.076-3.6619c-.083-.1092-.186-.2008-.304-.2696-.117-.0687-.247-.1133-.382-.131-.135-.0243-.273-.0207-.407.0106-.133.0313-.259.0897-.369.1715-3.518 1.782-7.501 2.4033-11.388 1.7758-3.8866-.6275-7.4793-2.4719-10.2701-5.2724-1.8048-1.766-3.2433-3.8766-4.2318-6.2091-.9884-2.3324-1.507-4.84-1.5256-7.3766v-.4553c.0371-.1256.0854-.2474.1443-.3642z"/></g></svg>