<svg fill="none" height="250" viewBox="0 0 365 250" width="365" xmlns="http://www.w3.org/2000/svg" xmlns:xlink="http://www.w3.org/1999/xlink"><clipPath id="a"><path d="m0 0h365v250h-365z"/></clipPath><clipPath id="b"><path d="m157 98h183v41h-183z"/></clipPath><mask id="c" fill="#fff"><path d="m407.671 85.1673c7.575-11.3604 13.357-24.1115 19.477-36.3124 6.59-13.101 12.939-26.3119 18.658-39.82036 11.044-26.11564 19.75-53.58534 22.129-81.95924 1.039-12.3891.736-25.1478-3.106-37.0713-4.159-12.897-12.793-23.385-23.725-31.232-12.07-8.653-26.028-13.886-39.995-18.515-7.451-2.466-14.918-4.81-22.304-7.532-6.784-2.485-13.425-5.452-20.145-8.118-12.51-4.953-25.303-8.307-38.795-6.074-13.126 2.133-25.365 8.153-37.177 14.043-24.462 12.146-49.43 28.248-59.665 54.876-9.27 24.1021-.066 47.5953 13.565 67.8771 2.895 4.3132 5.943 8.4777 9.037 12.658 13.015 25.49136 26.272 51.0169 42.893 74.4032 15.705 22.1006 35.342 44.4161 59.615 57.3056 9.766 5.1811 21.149 8.7241 32.295 6.4531 11.891-2.44 20.724-11.1777 27.243-20.9817zm-13.35 11.9174c-9.955 7.9633-22.415 9.1383-34.307 5.3153-11.487-3.6811-21.553-10.8186-30.795-18.4268-10.794-8.8891-20.447-19.0759-29.24-29.975-17.586-21.8738-31.403-46.45528-44.339-71.2343-2.127-4.0436-4.179-8.086-6.275-12.1443.248-.344.286-.8124-.04-1.2564-.622-.827-1.258-1.6845-1.895-2.5421-.396-.7477-.762-1.5101-1.143-2.2273-.205-.427-.595-.6148-.959-.5905-12.833-17.3641-25.581-37.0567-24.044-59.3623 2.014-28.274 24.668-49.043 47.743-62.361 11.43-6.608 23.504-12.737 35.885-17.362 13.112-4.902 26.366-6.457 40.016-2.727 12.956 3.539 25.005 9.8 37.629 14.211 13.648 4.744 27.659 8.602 40.786 14.684 12.481 5.755 24.469 13.846 32.36 25.29 7.625 11.047 10.337 24.5255 10.495 37.766.36 26.5725-6.865 53.2946-16.07 78.00277-9.395 25.24973-21.57 49.31973-33.864 73.22143-5.788 11.3288-11.804 23.5919-21.943 31.7185zm30.962-88.89673c7.598-24.61307 13.993-49.62387 19.105-74.88237 2.061-10.1788 3.845-20.937.805-31.1076-2.766-9.289-9.163-16.836-16.771-22.602-16.515-12.522-38.324-18.866-58.553-21.917-21.18-3.232-43.064-2.376-63.898 2.703-21.274 5.178-43.824 15.131-53.512 36.17-8.999 19.6585-.221 40.5426 10.5 57.4943 6.709 10.6233 14.335 20.7319 19.577 32.209 4.732 10.33408 7.545 21.36335 10.998 32.1609 3.395 10.5999 7.55 20.9852 14.226 29.974 3.243 4.334 6.9 8.2814 10.849 11.9763 5.454 5.1112 11.048 10.043 17.011 14.5723 9.684 7.3582 20.803 14.9665 33.57 12.6315.834-.1378 1.67-.3512 2.49-.5195 6.079-1.4901 11.891-4.2404 16.947-7.9408 1.562-1.1245 3.036-2.3564 4.465-3.6797 18.295-17.1024 25.041-44.1197 32.191-67.24233zm-66.633 77.04823c-1.011-.2281-2.035-.4867-3.09-.8064-6.774-2.1521-12.541-6.6631-18.131-10.8838-3.004-2.2726-5.932-4.6196-8.797-7.0715-.701-.6014-8.415-7.2166-8.23-7.4557.016-.0451.047-.0598.093-.1195-7.615-7.1129-14.184-15.2528-18.773-25.0551-8.913-19.2069-11.752-40.46384-22.645-58.8707-10.569-17.8872-25.652-34.6221-27.973-56.1278-2.595-24.1127 15.939-41.9677 36.679-50.4517 37.852-15.53 83.388-13.477 120.717 2.453 9.347 3.994 18.537 9.226 25.571 16.692 7.525 8.02 10.977 17.9548 10.522 28.9009-.452 10.7949-3.325 21.5506-5.649 32.0428-2.681 11.9389-5.618 23.8131-8.886 35.6214-3.126 11.40213-6.523 22.7091-10.176 33.9514-3.716 11.4229-7.421 23.0274-12.716 33.8196-4.793 9.7261-11.469 18.8921-20.189 25.4381-4.276 3.2138-9.056 5.7689-14.196 7.2591-4.912 1.4183-9.411 1.6632-14.131.6639zm24.489-24.6876c2.14-3.0518 3.861-6.428 5.383-9.6712 7.079-15.2112 9.373-32.1036 11.418-48.57632 1.051-8.60656 2.012-17.24488 3.502-25.79898 1.608-9.3237 4.148-18.2693 7.127-27.238 4.988-15.0333 10.13-33.0293.701-47.5243-9.769-15.0448-30.92-20.0168-47.51-22.5998-16.725-2.631-35.712-3.014-51.88 2.715-7.414 2.619-14.329 7.061-18.723 13.707-4.223 6.3764-5.758 14.0523-5.551 21.6051.492 17.7695 10.276 32.7695 17.874 48.2182 4.875 9.8524 7.915 20.0229 10.036 30.78378 1.954 9.86555 3.604 19.87742 7.246 29.27102 4.92 12.6822 12.861 23.8398 21.634 34.1486 3.86 4.5255 8.266 8.9389 14.094 10.6823 4.743 1.4384 9.955 1.1142 14.514-.8847 4.222-1.8379 7.47-5.0835 10.135-8.8377zm-33.4 1.7288c-.313-.2623-.596-.5392-.91-.8015-1.178-1.0478-2.063-2.4238-3.102-3.6509-2.182-2.5921-4.302-5.2135-6.346-7.9093-4.027-5.3453-7.718-10.9271-10.797-16.8773-8.035-15.5769-9.156-32.781657-13.691-49.4366-4.451-16.3206-14.316-30.0814-20.535-45.6288-5.885-14.6949-7.905-34.2441 4.764-46.173 12.285-11.556 32.143-12.566 48.086-12.036 16.926.547 36.004 3.7 50.719 12.546 7.852 4.711 13.714 11.69 15.605 20.7981 1.737 8.3945.428 17.012-1.857 25.1599-2.383 8.6455-5.746 16.9726-7.904 25.6974-1.817 7.3234-3.046 14.7772-4.063 22.2799-2.428 17.63155-3.53 35.6779-8.945 52.7164-1.278 4.0641-2.797 8.0185-4.586 11.8777-2.904 6.2316-6.246 12.4107-12.523 15.8342-4.338 2.3807-9.553 2.9317-14.298 1.569-3.705-1.0737-6.737-3.4829-9.617-5.9652z" fill="#fff"/></mask><mask id="d" fill="#fff"><path d="m-50.0767 227.611c2.6769 13.389 7.6049 26.494 11.9043 39.449 4.6042 13.923 9.456 27.754 14.9642 41.35 10.6573 26.276 23.925525 51.856 42.3065 73.602 8.026 9.494 17.2614 18.302 28.4096 24.017 12.0603 6.178 25.5814 7.489 38.8609 5.308 14.6522-2.416 28.2232-8.585 41.3722-15.189 7.012-3.525 13.951-7.147 21.098-10.445 6.554-3.04 13.347-5.638 19.984-8.505 12.348-5.343 23.766-12.018 31.727-23.137 7.774-10.79 12.171-23.7 16.358-36.218 8.71-25.886 14.979-54.926 3.387-80.993-10.488-23.597-33.608-33.701-57.588-38.404-5.097-1.003-10.197-1.792-15.341-2.56-27.228-8.823-54.651-17.498-82.941-22.281-26.7325-4.523-56.39692-6.417-82.6747 1.632-10.5693 3.243-21.1233 8.786-27.3996 18.273-6.6827 10.134-6.7498 22.558-4.4274 34.101zm1.0131-17.867c1.4083-12.67 9.388-22.312 20.5009-28.017 10.7247-5.52 22.8899-7.591 34.80449-8.746 13.91821-1.347 27.94681-.97 41.87151.519 27.9018 3.033 55.0537 10.644 81.7227 19.019 4.363 1.355 8.672 2.762 13.024 4.15.068.418.373.776.917.86 1.024.145 2.081.301 3.137.458.809.248 1.607.529 2.384.766.446.157.855.014 1.095-.26 21.352 3.204 44.292 8.114 58.978 24.973 18.568 21.417 17.235 52.122 10.336 77.856-3.41 12.755-7.614 25.626-13.098 37.651-5.806 12.738-14.077 23.21-26.367 30.223-11.664 6.66-24.611 10.752-36.657 16.561-13.005 6.295-25.64 13.475-39.223 18.455-12.894 4.757-27.0923 7.512-40.7646 5-13.2032-2.419-24.6515-10.033-34.1256-19.284-19.044-18.535-32.83048-42.539-43.7933-66.519-11.2109-24.497-19.6217-50.127-27.8299-75.721-3.9177-12.103-8.3352-25.028-6.9122-37.944zm40.96625 84.753c12.03107 22.777 25.19485 44.984 39.44045 66.459 5.7399 8.655 12.0861 17.523 21.4268 22.566 8.5242 4.612 18.3843 5.425 27.841 4.123 20.5321-2.824 40.4391-13.759 56.9011-25.907 17.262-12.69 32.131-28.77 43.271-47.093 11.382-18.704 20.289-41.687 12.263-63.415-7.537-20.264-28.512-28.824-48.079-33.23-12.256-2.767-24.796-4.523-36.619-8.932-10.6527-3.961-20.4407-9.771-30.517-14.965-9.8961-5.094-20.178-9.499-31.2547-11.135-5.3573-.772-10.7347-.977-16.1398-.797-7.4708.243-14.9132.71-22.33256 1.724-12.05111 1.645-25.29284 4.127-32.66924 14.806-.4928.688-.933 1.43-1.3939 2.128-3.2445 5.352-5.4095 11.407-6.368 17.599-.3097 1.9-.4805 3.812-.5556 5.759-.8431 25.03 13.4911 48.904 24.78545 70.31zm-7.36455-101.599c.8756-.553 1.7832-1.094 2.7546-1.614 6.31216-3.268 13.579689-4.156 20.51693-5.125 3.73127-.517 7.46077-.927 11.22037-1.219.9211-.071 11.0537-.848 11.0915-.548.0207.043.0095.075.0189.15 10.4144-.355 20.8152.756 30.9914 4.442 19.8833 7.279 36.9221 20.302 57.6402 25.616 20.121 5.174 42.62 6.343 59.468 19.908 18.885 15.215 18.405 40.946 9.739 61.611-15.784 37.747-49.434 68.494-87.094 83.625-9.4336 3.785-19.6318 6.584-29.8855 6.278-10.9911-.349-20.4571-4.934-27.8756-12.995-7.3135-7.953-12.8874-17.59-18.6634-26.652-6.5464-10.338-12.866-20.811-18.90426-31.472-5.852182-10.273-11.44557-20.67-16.81204-31.203-5.4493-10.705-11.0355-21.53-14.9225-32.905-3.4882-10.267-5.2493-21.469-3.7116-32.264.7511-5.296 2.324-10.482 4.905-15.171 2.4704-4.476 5.4785-7.83 9.523-10.462zm.1398 34.774c.6452 3.671 1.8156 7.275 3.0327 10.645 5.75042 15.761 16.07293 29.328 26.2749 42.422 5.3424 6.829 10.771 13.617 15.7665 20.719 5.4558 7.73 9.9851 15.851 14.2202 24.3 7.1035 14.157 16.1923 30.518 33.1095 34.1 17.546 3.731 36.0173-7.709 49.5753-17.613 13.686-9.967 27.383-23.122 34.765-38.606 3.391-7.094 5.139-15.124 3.546-22.931-1.523-7.495-5.865-14.008-11.352-19.202-12.912-12.218-30.437-15.905-46.734-21.457-10.414-3.519-19.7547-8.562-28.8638-14.671-8.3581-5.594-16.6039-11.507-25.8217-15.573-12.4463-5.49-25.9514-7.764-39.4441-8.85-5.92923-.471-12.165699-.476-17.51949 2.413-4.37118 2.337-7.82721 6.251-9.63711 10.888-1.6863 4.285-1.6876 8.877-.9179 13.416zm22.39516-24.84c.40709-.036.80298-.04 1.21008-.076 1.57404-.093 3.17286.254 4.77526.387 3.3756.291 6.7286.645 10.08 1.106 6.6276.932 13.1842 2.269 19.569 4.299 16.6956 5.333 29.654 16.706 44.6379 25.276 14.6877 8.394 31.3937 11.148 46.7847 17.744 14.552 6.23 29.804 18.625 29.28 36.018-.515 16.858-13.843 31.614-25.491 42.513-12.355 11.582-28.074 22.842-44.7347 26.992-8.8835 2.221-17.9631 1.431-25.741-3.672-7.164-4.707-12.3321-11.726-16.478-19.103-4.4276-7.799-7.9383-16.065-12.5817-23.76-3.8936-6.463-8.2953-12.603-12.8808-18.628-10.7509-14.184-22.73192-27.724-30.95154-43.601-1.96982-3.777-3.69208-7.648-5.15556-11.642-2.3532-6.459-4.3596-13.192-2.3417-20.051 1.3839-4.751 4.68215-8.828 9.00076-11.22 3.379134-1.86 7.22678-2.301 11.0183-2.582z" fill="#fff"/></mask><g clip-path="url(#a)"><path d="m0 0h365v250h-365z" fill="#5d566a"/><path d="m133.184 6.00233-83.8036 20.02227c-4.6248 1.1108-7.4779 5.7552-6.3782 10.3827l20.0224 83.8037c1.1107 4.625 5.7551 7.478 10.3826 6.378l83.8038-20.022c4.625-1.111 7.478-5.756 6.378-10.383l-20.022-83.8035c-1.111-4.62483-5.756-7.47795-10.383-6.37817zm-83.0027 23.37447 83.8037-20.0223c2.777-.66346 5.566 1.05 6.23 3.8269l1.201 5.0282-93.8602 22.425-1.2013-5.0282c-.6635-2.7771 1.0497-5.5661 3.8268-6.2296zm106.2287 73.8372-83.8037 20.023c-2.7769.663-5.5661-1.05-6.2296-3.827l-18.02-75.4234 93.8603-22.425 18.02 75.4233c.663 2.7771-1.05 5.5661-3.827 6.2291z" fill="#fff" fill-opacity=".12"/><path d="m122.178 19.2621c.926-.2211 1.497-1.1508 1.276-2.0764s-1.151-1.4967-2.077-1.2756c-.925.2212-1.496 1.1508-1.275 2.0765.221.9256 1.151 1.4967 2.076 1.2755z" fill="#fff" fill-opacity=".12"/><path d="m128.882 17.6606c.926-.2212 1.497-1.1508 1.276-2.0765-.221-.9256-1.151-1.4967-2.077-1.2755-.925.2211-1.496 1.1508-1.275 2.0764s1.151 1.4967 2.076 1.2756z" fill="#fff" fill-opacity=".12"/><path d="m135.586 16.0588c.926-.2212 1.497-1.1508 1.276-2.0765-.221-.9256-1.151-1.4967-2.076-1.2756-.926.2212-1.497 1.1509-1.276 2.0765s1.151 1.4967 2.076 1.2756z" fill="#fff" fill-opacity=".12"/><path d="m61.1415 60.4212 33.5215-8.0089c1.8514-.4424 2.9936-2.3017 2.5513-4.1531l-1.6018-6.7043c-.4423-1.8514-2.3017-2.9936-4.1531-2.5513l-33.5215 8.009c-1.8514.4423-2.9936 2.3017-2.5513 4.1531l1.6018 6.7042c.4425 1.8514 2.3019 2.9936 4.1531 2.5513zm-2.4027-10.0564 33.5215-8.009 1.6018 6.7043-33.5215 8.0089z" fill="#fff" fill-opacity=".12"/><path d="m135.038 28.592-33.522 8.0089c-1.8511.4424-2.9934 2.3018-2.551 4.1532l1.602 6.7042c.442 1.8514 2.301 2.9936 4.153 2.5513l33.521-8.0089c1.852-.4424 2.994-2.3018 2.552-4.1532l-1.602-6.7042c-.443-1.8513-2.302-2.9936-4.153-2.5513zm-31.119 18.0654-1.602-6.7042 33.522-8.009 1.601 6.7042z" fill="#fff" fill-opacity=".12"/><path d="m139.042 45.353-77.0992 18.4206c-1.8514.4423-2.9937 2.3017-2.5513 4.1531l8.0089 33.5213c.4423 1.851 2.3017 2.994 4.1531 2.551l77.0995-18.4202c1.851-.4424 2.993-2.3017 2.551-4.1531l-8.009-33.5215c-.442-1.8513-2.302-2.9935-4.153-2.5512zm-68.2894 55.294-8.009-33.5214 77.0994-18.4205 8.009 33.5215z" fill="#fff" fill-opacity=".12"/><path d="m147.778 89.3311-23.465 5.6062c-2.777.6635-4.49 3.4527-3.827 6.2297s3.453 4.49 6.23 3.827l23.465-5.6065c2.777-.6635 4.49-3.4526 3.827-6.2296-.664-2.7768-3.453-4.4903-6.23-3.8268zm1.602 6.7044-23.465 5.6065c-.926.221-1.856-.35-2.077-1.276-.221-.9255.35-1.8551 1.276-2.0763l23.465-5.6062c.926-.2212 1.855.3501 2.076 1.2756s-.35 1.8553-1.275 2.0764z" fill="#fff" fill-opacity=".12"/><path d="m69.3736 72.6286 5.0282-1.2014c.9257-.2211 1.4967-1.1509 1.2756-2.0764-.2212-.9257-1.1509-1.4967-2.0764-1.2756l-5.0283 1.2014c-.9257.2211-1.4967 1.1509-1.2755 2.0764.2211.9255 1.1509 1.4967 2.0764 1.2756z" fill="#fff" fill-opacity=".12"/><path d="m81.1063 69.8254 20.1127-4.8054c.926-.2212 1.497-1.1509 1.276-2.0764-.221-.9257-1.151-1.4968-2.077-1.2756l-20.1126 4.8053c-.9257.2212-1.4967 1.151-1.2756 2.0765.221.9255 1.1508 1.4967 2.0765 1.2756z" fill="#fff" fill-opacity=".12"/><path d="m113.752 65.5688-43.5777 10.4116c-.9257.2212-1.4967 1.1508-1.2756 2.0765.2212.9257 1.151 1.4967 2.0765 1.2755l43.5778-10.4116c.926-.2211 1.497-1.1507 1.276-2.0764s-1.151-1.4968-2.077-1.2756z" fill="#fff" fill-opacity=".12"/><path d="m50.8812 37.5491c.8108.4979 1.8718.2444 2.37-.5662l.3737-.6084.6083.3737c.8094.4781 1.8528.2193 2.3447-.5817.4921-.8011.2514-1.8486-.5409-2.3544l-.6084-.3738.3737-.6083c.4781-.8094.2193-1.8527-.5817-2.3446-.8011-.4922-1.8486-.2514-2.3544.5409l-.3738.6083-.6083-.3737c-.8094-.4781-1.8527-.2193-2.3446.5818-.4922.8011-.2514 1.8485.5409 2.3544l.6083.3737-.3737.6083c-.4981.8109-.2446 1.8719.5662 2.37z" fill="#fff" fill-opacity=".12"/><circle cx="62" cy="117" fill="#fff" r="39"/><path d="m100 120h3v42h-3z" fill="#fff" transform="matrix(0 -1 1 0 -20 220)"/><path d="m47.9613 104.003h-3.7207l10.1437 28.673 5.6787-16.228-4.4028-12.445h-3.9257v-2.733h17.3842v2.733h-4.0709l10.1435 28.673 3.6462-10.42c4.7831-13.349-3.9202-17.508-3.9202-20.487 0-2.9796 2.4152-5.3947 5.3944-5.3947.1612 0 .3177.0088.4711.0231-5.048-4.7654-11.8548-7.6877-19.3446-7.6877-9.7867 0-18.4073 4.9886-23.4609 12.5603h9.9837v2.733z" fill="#009cb6"/><path d="m33.2512 116.897c0 10.792 6.0656 20.165 14.9724 24.902l-12.7204-35.958c-1.4491 3.395-2.252 7.132-2.252 11.056z" fill="#009cb6"/><path d="m85.9699 103.007c.4032 2.374.2811 5.042-.3376 7.721h.1121l-.4262 1.218c-.2525.879-.5705 1.779-.9317 2.663l-9.699 27.171c8.8882-4.742 14.9382-14.105 14.9382-24.883 0-5.051-1.3295-9.79-3.6558-13.89z" fill="#009cb6"/><path d="m52.7454 143.716c2.7383.887 5.6593 1.368 8.6933 1.368 2.8938 0 5.6855-.437 8.3135-1.247l-8.2451-23.307z" fill="#009cb6"/><path d="m85.2595 93.0759c-6.3628-6.3628-14.8226-9.8669-23.821-9.8669s-17.4581 3.5041-23.8209 9.8669c-6.3627 6.3628-9.8669 14.8221-9.8669 23.8211 0 8.998 3.5042 17.458 9.8669 23.821 6.3628 6.363 14.8227 9.867 23.821 9.867 8.9984 0 17.4581-3.504 23.8211-9.867 6.3627-6.363 9.8669-14.823 9.8669-23.821-.0002-8.999-3.5043-17.4583-9.8671-23.8211zm-23.821 55.1321c-17.2651 0-31.3113-14.046-31.3113-31.311 0-17.2652 14.0462-31.3116 31.3113-31.3116s31.3113 14.0464 31.3113 31.3116c0 17.265-14.046 31.311-31.3113 31.311z" fill="#009cb6"/><g fill="#fff"><path d="m407.671 85.1673c7.575-11.3604 13.357-24.1115 19.477-36.3124 6.59-13.101 12.939-26.3119 18.658-39.82036 11.044-26.11564 19.75-53.58534 22.129-81.95924 1.039-12.3891.736-25.1478-3.106-37.0713-4.159-12.897-12.793-23.385-23.725-31.232-12.07-8.653-26.028-13.886-39.995-18.515-7.451-2.466-14.918-4.81-22.304-7.532-6.784-2.485-13.425-5.452-20.145-8.118-12.51-4.953-25.303-8.307-38.795-6.074-13.126 2.133-25.365 8.153-37.177 14.043-24.462 12.146-49.43 28.248-59.665 54.876-9.27 24.1021-.066 47.5953 13.565 67.8771 2.895 4.3132 5.943 8.4777 9.037 12.658 13.015 25.49136 26.272 51.0169 42.893 74.4032 15.705 22.1006 35.342 44.4161 59.615 57.3056 9.766 5.1811 21.149 8.7241 32.295 6.4531 11.891-2.44 20.724-11.1777 27.243-20.9817zm-13.35 11.9174c-9.955 7.9633-22.415 9.1383-34.307 5.3153-11.487-3.6811-21.553-10.8186-30.795-18.4268-10.794-8.8891-20.447-19.0759-29.24-29.975-17.586-21.8738-31.403-46.45528-44.339-71.2343-2.127-4.0436-4.179-8.086-6.275-12.1443.248-.344.286-.8124-.04-1.2564-.622-.827-1.258-1.6845-1.895-2.5421-.396-.7477-.762-1.5101-1.143-2.2273-.205-.427-.595-.6148-.959-.5905-12.833-17.3641-25.581-37.0567-24.044-59.3623 2.014-28.274 24.668-49.043 47.743-62.361 11.43-6.608 23.504-12.737 35.885-17.362 13.112-4.902 26.366-6.457 40.016-2.727 12.956 3.539 25.005 9.8 37.629 14.211 13.648 4.744 27.659 8.602 40.786 14.684 12.481 5.755 24.469 13.846 32.36 25.29 7.625 11.047 10.337 24.5255 10.495 37.766.36 26.5725-6.865 53.2946-16.07 78.00277-9.395 25.24973-21.57 49.31973-33.864 73.22143-5.788 11.3288-11.804 23.5919-21.943 31.7185zm30.962-88.89673c7.598-24.61307 13.993-49.62387 19.105-74.88237 2.061-10.1788 3.845-20.937.805-31.1076-2.766-9.289-9.163-16.836-16.771-22.602-16.515-12.522-38.324-18.866-58.553-21.917-21.18-3.232-43.064-2.376-63.898 2.703-21.274 5.178-43.824 15.131-53.512 36.17-8.999 19.6585-.221 40.5426 10.5 57.4943 6.709 10.6233 14.335 20.7319 19.577 32.209 4.732 10.33408 7.545 21.36335 10.998 32.1609 3.395 10.5999 7.55 20.9852 14.226 29.974 3.243 4.334 6.9 8.2814 10.849 11.9763 5.454 5.1112 11.048 10.043 17.011 14.5723 9.684 7.3582 20.803 14.9665 33.57 12.6315.834-.1378 1.67-.3512 2.49-.5195 6.079-1.4901 11.891-4.2404 16.947-7.9408 1.562-1.1245 3.036-2.3564 4.465-3.6797 18.295-17.1024 25.041-44.1197 32.191-67.24233zm-66.633 77.04823c-1.011-.2281-2.035-.4867-3.09-.8064-6.774-2.1521-12.541-6.6631-18.131-10.8838-3.004-2.2726-5.932-4.6196-8.797-7.0715-.701-.6014-8.415-7.2166-8.23-7.4557.016-.0451.047-.0598.093-.1195-7.615-7.1129-14.184-15.2528-18.773-25.0551-8.913-19.2069-11.752-40.46384-22.645-58.8707-10.569-17.8872-25.652-34.6221-27.973-56.1278-2.595-24.1127 15.939-41.9677 36.679-50.4517 37.852-15.53 83.388-13.477 120.717 2.453 9.347 3.994 18.537 9.226 25.571 16.692 7.525 8.02 10.977 17.9548 10.522 28.9009-.452 10.7949-3.325 21.5506-5.649 32.0428-2.681 11.9389-5.618 23.8131-8.886 35.6214-3.126 11.40213-6.523 22.7091-10.176 33.9514-3.716 11.4229-7.421 23.0274-12.716 33.8196-4.793 9.7261-11.469 18.8921-20.189 25.4381-4.276 3.2138-9.056 5.7689-14.196 7.2591-4.912 1.4183-9.411 1.6632-14.131.6639zm24.489-24.6876c2.14-3.0518 3.861-6.428 5.383-9.6712 7.079-15.2112 9.373-32.1036 11.418-48.57632 1.051-8.60656 2.012-17.24488 3.502-25.79898 1.608-9.3237 4.148-18.2693 7.127-27.238 4.988-15.0333 10.13-33.0293.701-47.5243-9.769-15.0448-30.92-20.0168-47.51-22.5998-16.725-2.631-35.712-3.014-51.88 2.715-7.414 2.619-14.329 7.061-18.723 13.707-4.223 6.3764-5.758 14.0523-5.551 21.6051.492 17.7695 10.276 32.7695 17.874 48.2182 4.875 9.8524 7.915 20.0229 10.036 30.78378 1.954 9.86555 3.604 19.87742 7.246 29.27102 4.92 12.6822 12.861 23.8398 21.634 34.1486 3.86 4.5255 8.266 8.9389 14.094 10.6823 4.743 1.4384 9.955 1.1142 14.514-.8847 4.222-1.8379 7.47-5.0835 10.135-8.8377zm-33.4 1.7288c-.313-.2623-.596-.5392-.91-.8015-1.178-1.0478-2.063-2.4238-3.102-3.6509-2.182-2.5921-4.302-5.2135-6.346-7.9093-4.027-5.3453-7.718-10.9271-10.797-16.8773-8.035-15.5769-9.156-32.781657-13.691-49.4366-4.451-16.3206-14.316-30.0814-20.535-45.6288-5.885-14.6949-7.905-34.2441 4.764-46.173 12.285-11.556 32.143-12.566 48.086-12.036 16.926.547 36.004 3.7 50.719 12.546 7.852 4.711 13.714 11.69 15.605 20.7981 1.737 8.3945.428 17.012-1.857 25.1599-2.383 8.6455-5.746 16.9726-7.904 25.6974-1.817 7.3234-3.046 14.7772-4.063 22.2799-2.428 17.63155-3.53 35.6779-8.945 52.7164-1.278 4.0641-2.797 8.0185-4.586 11.8777-2.904 6.2316-6.246 12.4107-12.523 15.8342-4.338 2.3807-9.553 2.9317-14.298 1.569-3.705-1.0737-6.737-3.4829-9.617-5.9652z" mask="url(#c)" stroke="#fff" stroke-width="2"/><path d="m-50.0767 227.611c2.6769 13.389 7.6049 26.494 11.9043 39.449 4.6042 13.923 9.456 27.754 14.9642 41.35 10.6573 26.276 23.925525 51.856 42.3065 73.602 8.026 9.494 17.2614 18.302 28.4096 24.017 12.0603 6.178 25.5814 7.489 38.8609 5.308 14.6522-2.416 28.2232-8.585 41.3722-15.189 7.012-3.525 13.951-7.147 21.098-10.445 6.554-3.04 13.347-5.638 19.984-8.505 12.348-5.343 23.766-12.018 31.727-23.137 7.774-10.79 12.171-23.7 16.358-36.218 8.71-25.886 14.979-54.926 3.387-80.993-10.488-23.597-33.608-33.701-57.588-38.404-5.097-1.003-10.197-1.792-15.341-2.56-27.228-8.823-54.651-17.498-82.941-22.281-26.7325-4.523-56.39692-6.417-82.6747 1.632-10.5693 3.243-21.1233 8.786-27.3996 18.273-6.6827 10.134-6.7498 22.558-4.4274 34.101zm1.0131-17.867c1.4083-12.67 9.388-22.312 20.5009-28.017 10.7247-5.52 22.8899-7.591 34.80449-8.746 13.91821-1.347 27.94681-.97 41.87151.519 27.9018 3.033 55.0537 10.644 81.7227 19.019 4.363 1.355 8.672 2.762 13.024 4.15.068.418.373.776.917.86 1.024.145 2.081.301 3.137.458.809.248 1.607.529 2.384.766.446.157.855.014 1.095-.26 21.352 3.204 44.292 8.114 58.978 24.973 18.568 21.417 17.235 52.122 10.336 77.856-3.41 12.755-7.614 25.626-13.098 37.651-5.806 12.738-14.077 23.21-26.367 30.223-11.664 6.66-24.611 10.752-36.657 16.561-13.005 6.295-25.64 13.475-39.223 18.455-12.894 4.757-27.0923 7.512-40.7646 5-13.2032-2.419-24.6515-10.033-34.1256-19.284-19.044-18.535-32.83048-42.539-43.7933-66.519-11.2109-24.497-19.6217-50.127-27.8299-75.721-3.9177-12.103-8.3352-25.028-6.9122-37.944zm40.96625 84.753c12.03107 22.777 25.19485 44.984 39.44045 66.459 5.7399 8.655 12.0861 17.523 21.4268 22.566 8.5242 4.612 18.3843 5.425 27.841 4.123 20.5321-2.824 40.4391-13.759 56.9011-25.907 17.262-12.69 32.131-28.77 43.271-47.093 11.382-18.704 20.289-41.687 12.263-63.415-7.537-20.264-28.512-28.824-48.079-33.23-12.256-2.767-24.796-4.523-36.619-8.932-10.6527-3.961-20.4407-9.771-30.517-14.965-9.8961-5.094-20.178-9.499-31.2547-11.135-5.3573-.772-10.7347-.977-16.1398-.797-7.4708.243-14.9132.71-22.33256 1.724-12.05111 1.645-25.29284 4.127-32.66924 14.806-.4928.688-.933 1.43-1.3939 2.128-3.2445 5.352-5.4095 11.407-6.368 17.599-.3097 1.9-.4805 3.812-.5556 5.759-.8431 25.03 13.4911 48.904 24.78545 70.31zm-7.36455-101.599c.8756-.553 1.7832-1.094 2.7546-1.614 6.31216-3.268 13.579689-4.156 20.51693-5.125 3.73127-.517 7.46077-.927 11.22037-1.219.9211-.071 11.0537-.848 11.0915-.548.0207.043.0095.075.0189.15 10.4144-.355 20.8152.756 30.9914 4.442 19.8833 7.279 36.9221 20.302 57.6402 25.616 20.121 5.174 42.62 6.343 59.468 19.908 18.885 15.215 18.405 40.946 9.739 61.611-15.784 37.747-49.434 68.494-87.094 83.625-9.4336 3.785-19.6318 6.584-29.8855 6.278-10.9911-.349-20.4571-4.934-27.8756-12.995-7.3135-7.953-12.8874-17.59-18.6634-26.652-6.5464-10.338-12.866-20.811-18.90426-31.472-5.852182-10.273-11.44557-20.67-16.81204-31.203-5.4493-10.705-11.0355-21.53-14.9225-32.905-3.4882-10.267-5.2493-21.469-3.7116-32.264.7511-5.296 2.324-10.482 4.905-15.171 2.4704-4.476 5.4785-7.83 9.523-10.462zm.1398 34.774c.6452 3.671 1.8156 7.275 3.0327 10.645 5.75042 15.761 16.07293 29.328 26.2749 42.422 5.3424 6.829 10.771 13.617 15.7665 20.719 5.4558 7.73 9.9851 15.851 14.2202 24.3 7.1035 14.157 16.1923 30.518 33.1095 34.1 17.546 3.731 36.0173-7.709 49.5753-17.613 13.686-9.967 27.383-23.122 34.765-38.606 3.391-7.094 5.139-15.124 3.546-22.931-1.523-7.495-5.865-14.008-11.352-19.202-12.912-12.218-30.437-15.905-46.734-21.457-10.414-3.519-19.7547-8.562-28.8638-14.671-8.3581-5.594-16.6039-11.507-25.8217-15.573-12.4463-5.49-25.9514-7.764-39.4441-8.85-5.92923-.471-12.165699-.476-17.51949 2.413-4.37118 2.337-7.82721 6.251-9.63711 10.888-1.6863 4.285-1.6876 8.877-.9179 13.416zm22.39516-24.84c.40709-.036.80298-.04 1.21008-.076 1.57404-.093 3.17286.254 4.77526.387 3.3756.291 6.7286.645 10.08 1.106 6.6276.932 13.1842 2.269 19.569 4.299 16.6956 5.333 29.654 16.706 44.6379 25.276 14.6877 8.394 31.3937 11.148 46.7847 17.744 14.552 6.23 29.804 18.625 29.28 36.018-.515 16.858-13.843 31.614-25.491 42.513-12.355 11.582-28.074 22.842-44.7347 26.992-8.8835 2.221-17.9631 1.431-25.741-3.672-7.164-4.707-12.3321-11.726-16.478-19.103-4.4276-7.799-7.9383-16.065-12.5817-23.76-3.8936-6.463-8.2953-12.603-12.8808-18.628-10.7509-14.184-22.73192-27.724-30.95154-43.601-1.96982-3.777-3.69208-7.648-5.15556-11.642-2.3532-6.459-4.3596-13.192-2.3417-20.051 1.3839-4.751 4.68215-8.828 9.00076-11.22 3.379134-1.86 7.22678-2.301 11.0183-2.582z" mask="url(#d)" stroke="#fff" stroke-width="2"/><path d="m510.747-24.2484c-9.699 44.0743-47.577 73.5773-90.245 82.7044-21.634 4.6436-45.901 5.4443-67.016-2.0015-22.072-7.7661-35.763-25.9403-46.939-45.5956-11.655-20.576-25.385-43.3538-24.507-67.8929.439-12.4897 4.59-24.4991 9.659-35.8279 6.067-13.6101 14.888-30.7841 26.104-41.2321 16.405-15.212 39.515-20.336 61.268-18.574 25.146 2.001 50.611 11.168 73.042 22.457 20.676 10.408 39.994 25.34 51.21 46.0359 9.859 18.2942 11.894 39.751 7.424 59.9267z" fill-opacity=".2"/><path d="m-38.4203 374.865c-24.307-38.024-18.3847-85.669 5.3323-122.294 12.0136-18.581 28.60728-36.307 48.8025-45.972 21.0989-10.116 43.6307-6.946 65.4316-.95 22.7909 6.308 48.6059 12.706 65.3369 30.679 8.521 9.142 14.078 20.569 18.504 32.164 5.334 13.914 11.24 32.295 10.697 47.613-.843 22.357-13.561 42.321-30.189 56.458-19.196 16.365-43.684 27.889-67.5283 35.769-21.9793 7.26-46.1977 10.362-68.7629 3.658-19.9072-5.965-36.5188-19.698-47.6241-37.125z" fill-opacity=".2"/><path d="m332.587 157.685-73.573-19.714c-4.063-1.083-8.236 1.326-9.329 5.386l-19.714 73.574c-1.083 4.062 1.326 8.235 5.386 9.329l73.574 19.714c4.062 1.083 8.235-1.326 9.329-5.386l19.714-73.574c1.083-4.063-1.326-8.236-5.387-9.329zm-74.361-16.771 73.573 19.714c2.438.654 3.885 3.16 3.232 5.598l-1.183 4.414-82.403-22.08 1.183-4.414c.654-2.438 3.159-3.885 5.598-3.232zm51.493 102.116-73.573-19.713c-2.438-.654-3.885-3.16-3.232-5.598l17.743-66.216 82.402 22.08-17.742 66.216c-.654 2.438-3.16 3.885-5.598 3.231z" fill-opacity=".12"/><path d="m318.45 163.36c.813.218 1.648-.265 1.866-1.077.218-.813-.264-1.648-1.077-1.866s-1.648.264-1.866 1.077c-.217.813.265 1.648 1.077 1.866z" fill-opacity=".12"/><path d="m324.336 164.937c.813.218 1.648-.264 1.866-1.077.217-.813-.265-1.648-1.078-1.866-.812-.217-1.647.265-1.865 1.078-.218.812.264 1.647 1.077 1.865z" fill-opacity=".12"/><path d="m330.222 166.514c.812.218 1.648-.264 1.865-1.077.218-.813-.264-1.648-1.077-1.866-.812-.217-1.648.265-1.865 1.077-.218.813.264 1.648 1.077 1.866z" fill-opacity=".12"/><path d="m253.677 169.661 29.43 7.885c1.625.436 3.296-.529 3.731-2.154l1.577-5.886c.436-1.625-.529-3.296-2.154-3.731l-29.43-7.886c-1.625-.436-3.296.529-3.731 2.154l-1.577 5.886c-.436 1.626.529 3.296 2.154 3.732zm2.366-8.829 29.429 7.886-1.577 5.885-29.429-7.885z" fill-opacity=".12"/><path d="m324.519 176.026-29.43-7.886c-1.625-.435-3.296.529-3.731 2.155l-1.577 5.886c-.436 1.625.529 3.296 2.154 3.731l29.43 7.886c1.625.435 3.296-.529 3.731-2.155l1.577-5.885c.436-1.626-.529-3.297-2.154-3.732zm-31.795.943 1.577-5.886 29.429 7.886-1.577 5.886z" fill-opacity=".12"/><path d="m320.576 190.741-67.687-18.137c-1.626-.436-3.296.529-3.732 2.154l-7.886 29.429c-.435 1.626.529 3.296 2.155 3.732l67.687 18.137c1.626.435 3.296-.529 3.732-2.155l7.886-29.429c.435-1.625-.53-3.296-2.155-3.731zm-76.362 14.235 7.886-29.429 67.688 18.136-7.886 29.43z" fill-opacity=".12"/><path d="m308.854 228.605-20.601-5.52c-2.438-.654-4.944.793-5.597 3.231s.794 4.944 3.232 5.598l20.6 5.519c2.438.654 4.944-.793 5.597-3.231.654-2.438-.793-4.944-3.231-5.597zm-1.577 5.886-20.601-5.52c-.813-.218-1.295-1.053-1.077-1.866s1.053-1.295 1.866-1.077l20.6 5.52c.813.218 1.295 1.053 1.077 1.865-.217.813-1.053 1.295-1.865 1.078z" fill-opacity=".12"/><path d="m254.937 182.615 4.415 1.183c.812.218 1.648-.264 1.865-1.077.218-.813-.264-1.648-1.077-1.866l-4.414-1.182c-.813-.218-1.648.264-1.866 1.077-.218.812.265 1.648 1.077 1.865z" fill-opacity=".12"/><path d="m265.238 185.375 17.657 4.732c.813.218 1.648-.265 1.866-1.077.218-.813-.265-1.648-1.077-1.866l-17.658-4.731c-.813-.218-1.648.264-1.866 1.077-.217.812.265 1.648 1.078 1.865z" fill-opacity=".12"/><path d="m292.407 195.809-38.258-10.251c-.813-.218-1.648.265-1.866 1.077-.218.813.265 1.648 1.077 1.866l38.258 10.251c.813.218 1.648-.264 1.866-1.077s-.264-1.648-1.077-1.866z" fill-opacity=".12"/><path d="m255.329 147.562c.421.728 1.352.978 2.081.557l.546-.315.316.546c.428.713 1.348.951 2.068.535.719-.415.973-1.331.57-2.058l-.315-.546.546-.316c.713-.428.951-1.348.535-2.068-.416-.719-1.331-.973-2.058-.57l-.547.315-.315-.546c-.428-.713-1.348-.951-2.068-.535-.719.416-.973 1.331-.57 2.058l.315.547-.546.315c-.729.421-.978 1.352-.558 2.081z" fill-opacity=".12"/></g><g clip-path="url(#b)"><path d="m248.328 119.687c-.014-7.637 2.098-15.129 6.105-21.6543h-10.182c-28.401 0-56.799 0-85.194 0-.272-.016-.544.0248-.799.1197s-.487.2418-.681.4313c-.194.1894-.346.417-.445.6682s-.144.5202-.132.7901c.041 12.202.041 24.404 0 36.603 0 .935.127 1.766.944 2.364h95.154c-3.149-5.957-4.786-12.584-4.77-19.308zm-69.492 1.448c-.052.826-.38 1.611-.932 2.232-.551.621-1.295 1.044-2.116 1.202-.391.079-.788.112-1.047.145-1.36.006-2.684-.425-3.775-1.229-.335-.252-.495-.5-.174-.874.105-.15.201-.306.288-.467.386-.579.703-.659 1.288-.266.725.569 1.632.862 2.557.827.352.004.695-.108.976-.317.281-.21.483-.506.576-.842.065-.157.096-.325.093-.495-.003-.169-.041-.336-.112-.49-.071-.155-.172-.293-.299-.407-.126-.114-.275-.202-.437-.257-.632-.28-1.311-.467-1.967-.678-1.09-.364-2.119-.84-2.506-2.008-.561-1.72-.061-3.523 1.746-4.35s3.61-.561 5.271.542c.283.192.363.397.165.687-.066.098-.118.205-.175.308-.472.934-.623.977-1.552.444-.36-.234-.768-.386-1.195-.446s-.861-.026-1.273.1c-.255.064-.484.206-.653.405-.169.2-.271.447-.291.707-.037.254.015.512.147.733.132.22.337.389.58.477.358.175.725.331 1.099.467.449.164.911.295 1.355.467 1.793.701 2.496 1.734 2.363 3.383zm10.56 3.508c-1.155-.113-2.224-.653-2.995-1.512s-1.188-1.973-1.167-3.122c0-2.289-.037-4.574-.07-6.863 0-.467.179-.635.641-.603.399.026.8.026 1.199 0 .472-.037.609.173.609.626-.019 2.246-.019 4.495 0 6.747-.023.438.067.874.261 1.269.193.395.483.735.845.989.361.254.781.414 1.221.465s.885-.008 1.296-.173c1.043-.355 1.675-1.34 1.685-2.677 0-2.172 0-4.34 0-6.512 0-.561.155-.752.74-.743 1.638 0 1.638 0 1.638 1.602v2.607 1.509 1.509c.056 3.149-2.44 5.34-5.903 4.882zm14.669-.06c-1.67-.028-1.67 0-1.67-1.645v-4.438c0-.869 0-1.738 0-2.607s0-1.733 0-2.602c0-.621.198-.813.788-.752.313.036.63.036.944 0 .575-.066.722.205.707.724v3.195 7.34c.01.57-.146.799-.769.785zm16.514-11.311c-.037.383 0 .78 0 1.243-1.085 0-2.066.023-3.043 0-.472 0-.576.145-.571.579v8.76c0 .575-.17.743-.745.738-1.633-.023-1.633 0-1.633-1.612 0-2.583 0-5.171 0-7.755 0-.584-.184-.738-.745-.71-.817.042-1.638 0-2.454 0-.335 0-.472-.112-.472-.439 0-.038 0-.075 0-.117 0-1.738-.099-1.402 1.369-1.402h7.549c.623-.028.826.15.764.715zm12.565 11.297c-1.92 0-3.84 0-5.756 0-.533 0-.684-.168-.675-.682 0-.897 0-1.799 0-2.696s0-1.799 0-2.696 0-1.756 0-2.635c0-.878 0-1.756 0-2.635 0-.499.113-.705.661-.7 2.161.028 4.317.023 6.478 0 .472 0 .628.163.623.626-.033 1.555.151 1.317-1.335 1.331-1.142 0-2.279 0-3.416 0-.411 0-.586.122-.571.542.023.687.023 1.402 0 2.07 0 .43.179.532.58.528 1.038-.024 2.076 0 3.114 0 .363 0 .472.126.51.467.103 1.373.099 1.401-1.288 1.401-.76 0-1.52.024-2.279 0-.51-.028-.661.173-.637.65.028.63.023 1.266 0 1.897 0 .467.132.626.618.616 1.354-.032 2.717 0 4.076 0 .472 0 .637.154.628.617-.014 1.518.165 1.289-1.312 1.299z" fill="#eb6758"/><g fill="#fff"><path d="m339.16 98.028h-12.433v.257l-.151-.257h-72.143c-3.769 6.138-5.873 13.137-6.107 20.317s1.41 14.298 4.772 20.664h86.902v-41.009c-.278.0093-.557.028-.84.028zm-58.644 28.498c-1.415 1.589-3.365 2.614-5.487 2.883-.708.107-1.416.135-1.817.168-4.001 0-7.077-1.271-9.153-4.35-1.576-2.312-2.062-4.928-1.888-7.68.105-2.412 1.033-4.718 2.633-6.541 2.317-2.588 5.313-3.592 8.743-3.471 2.424.03 4.761.9 6.606 2.458.377.322.396.542.085.906-.449.533-.84 1.102-1.26 1.654-.651.85-1.194.976-2.1.378-1.062-.75-2.328-1.165-3.633-1.191-2.652 0-4.534 1.238-5.336 3.737-.802 2.5-.774 4.882.523 7.167.424.701.995 1.305 1.673 1.771.679.465 1.45.782 2.262.928.812.147 1.647.12 2.448-.079.8-.199 1.549-.565 2.195-1.074.944-.738 1.317-.71 2.133.145.439.467.863.934 1.331 1.364.339.309.335.51.047.837zm19.652 2.803c-1.26 0-2.52-.028-3.775 0-.469.04-.938-.065-1.344-.3-.407-.235-.73-.589-.925-1.012-.977-1.766-2.015-3.495-3.025-5.242-.802-1.402-1.297-1.612-3.019-1.313v7.811c-.251 0-.439.042-.633.042-1.297 0-2.6 0-3.897 0-.5 0-.646-.145-.642-.635 0-3.691 0-7.382 0-11.077 0-3.037 0-6.073 0-9.119 0-.547.123-.753.722-.743 2.539.037 5.077-.047 7.611.065 1.253.065 2.49.304 3.675.71 4.969 1.696 4.771 7.611 2.223 10.068-.709.616-1.458 1.186-2.241 1.705.581.652 1.128 1.333 1.637 2.042 1.33 2.065 2.6 4.162 3.892 6.251.118.196.227.402.387.682-.264.042-.453.065-.641.065zm26.894-.042h-4.463v-13.67h-.128c-1.588 3.053-3.181 6.1-4.779 9.143l-.416.785c-.745 1.444-1.415 1.789-3.029 1.598-.358-.042-.698-.177-.987-.391-.288-.214-.514-.5-.655-.828-1.711-3.299-3.428-6.594-5.152-9.886-.095-.201-.23-.38-.396-.528 0 .42.07.841.07 1.261v11.848c0 .551-.122.762-.722.743-1.255-.047-2.51 0-3.821 0 0-.276-.033-.467-.033-.696 0-6.715 0-13.43 0-20.145 0-.565.151-.743.731-.724 1.18.042 2.359.028 3.539 0 .299-.022.597.051.851.208.255.157.452.39.564.665 2.152 4.271 4.314 8.537 6.488 12.801.027.041.058.079.094.112.944-1.868 1.897-3.737 2.86-5.606 1.245-2.424 2.5-4.844 3.736-7.279.113-.288.314-.533.576-.701s.571-.25.882-.233h3.846.33z"/><path d="m291.349 111.745c-1.072-.085-2.149-.094-3.222-.028v6.213c1.082-.014 2.162-.085 3.236-.21 1.591-.266 2.463-1.472 2.463-3.158 0-1.556-.811-2.579-2.477-2.817z"/></g></g></g></svg>