<svg width="64" height="64" viewBox="0 0 64 64" fill="none" xmlns="http://www.w3.org/2000/svg">
<path d="M10 17.0775V20.6777C10 22.3746 11.3806 23.7552 13.0775 23.7552H51.0197C52.7166 23.7552 54.0972 22.3746 54.0972 20.6777V17.0775C54.0972 15.3806 52.7166 14 51.0197 14H13.0775C11.3806 14 10 15.3806 10 17.0775ZM51.3294 17.0775V20.6777C51.3294 20.8486 51.1905 20.9876 51.0195 20.9876H13.0775C12.9066 20.9876 12.7676 20.8486 12.7676 20.6777V17.0775C12.7676 16.9066 12.9066 16.7676 13.0775 16.7676H51.0197C51.1904 16.7676 51.3294 16.9066 51.3294 17.0775Z" fill="#222747" stroke="#222747"/>
<path d="M10 35.4326C10 37.1296 11.3806 38.5101 13.0775 38.5101H51.0197C52.7166 38.5101 54.0972 37.1296 54.0972 35.4326V31.8326C54.0972 30.1357 52.7166 28.7552 51.0197 28.7552H13.0775C11.3806 28.7552 10 30.1357 10 31.8326V35.4326ZM12.7676 31.8326C12.7676 31.6617 12.9066 31.5228 13.0775 31.5228H51.0197C51.1906 31.5228 51.3296 31.6617 51.3296 31.8326V35.4326C51.3296 35.6036 51.1906 35.7425 51.0197 35.7425H13.0775C12.9066 35.7425 12.7676 35.6036 12.7676 35.4326V31.8326Z" fill="#222747" stroke="#222747"/>
<path d="M35.2672 43.5101H28.8298C26.213 43.5101 24.084 45.6391 24.084 48.2559V48.444C24.084 51.0608 26.213 53.1898 28.8298 53.1898H35.2672C37.884 53.1898 40.013 51.0608 40.013 48.444V48.2559C40.013 45.6391 37.884 43.5101 35.2672 43.5101ZM37.2454 48.4442C37.2454 49.535 36.3579 50.4224 35.2672 50.4224H28.8298C27.739 50.4224 26.8516 49.535 26.8516 48.4442V48.2561C26.8516 47.1653 27.739 46.2779 28.8298 46.2779H35.2672C36.3579 46.2779 37.2454 47.1653 37.2454 48.2561V48.4442Z" fill="#222747" stroke="#222747"/>
<rect x="2" y="2" width="60" height="60" rx="11" stroke="#222747" stroke-width="4"/>
</svg>
